<svg width="218" height="155" viewBox="0 0 218 155" fill="none" xmlns="http://www.w3.org/2000/svg">
<path d="M46.4849 149.777C29.6609 149.777 18.7459 134.668 14.9399 125.683C14.0769 123.649 14.0559 121.354 14.8829 119.305C15.7099 117.255 17.3169 115.618 19.3499 114.754C21.3839 113.89 23.6769 113.869 25.7259 114.696C27.7749 115.524 29.4109 117.131 30.2749 119.166C30.3349 119.307 36.3159 133.046 46.7569 133.046C48.0409 133.039 49.3169 132.838 50.5429 132.452C59.1609 129.813 63.2789 106.655 62.9369 90.9521C62.8879 88.7431 63.7179 86.605 65.2429 85.007C66.7679 83.41 68.8649 82.4831 71.0719 82.4301H71.2639C73.4349 82.4451 75.5149 83.3011 77.0679 84.8191C78.6209 86.3371 79.5249 88.3981 79.5899 90.5691C79.6629 98.7191 78.9889 106.858 77.5759 114.885C74.1029 133.681 66.6519 144.953 55.4259 148.397C52.5279 149.303 49.5109 149.772 46.4749 149.788L46.4849 149.777Z" fill="#1C1D21"/>
<path d="M71.273 82.722C73.373 82.722 75.391 83.542 76.895 85.007C78.4 86.473 79.273 88.469 79.328 90.569C79.406 98.699 78.732 106.819 77.314 114.825C73.81 133.53 66.471 144.691 55.395 148.096C52.527 148.993 49.54 149.458 46.535 149.476C29.872 149.476 19.048 134.447 15.323 125.563C14.797 124.576 14.483 123.491 14.399 122.376C14.315 121.261 14.464 120.141 14.837 119.087C15.209 118.033 15.797 117.068 16.562 116.254C17.328 115.439 18.254 114.793 19.283 114.356C20.311 113.919 21.419 113.701 22.537 113.715C23.654 113.73 24.756 113.977 25.773 114.441C26.79 114.905 27.699 115.575 28.443 116.409C29.186 117.244 29.748 118.224 30.093 119.287C30.153 119.428 36.195 133.389 46.867 133.389C48.179 133.384 49.483 133.18 50.733 132.785C59.896 129.975 63.682 106.182 63.349 90.982C63.309 88.857 64.109 86.8019 65.576 85.2639C67.044 83.7259 69.059 82.8309 71.183 82.7729H71.374L71.273 82.722ZM71.374 82.168H71.173C70.039 82.195 68.922 82.4439 67.885 82.9019C66.849 83.3599 65.912 84.018 65.129 84.839C64.347 85.659 63.733 86.626 63.324 87.683C62.915 88.741 62.718 89.869 62.745 91.002C63.088 106.605 59.04 129.602 50.562 132.211C49.366 132.584 48.121 132.777 46.867 132.785C36.597 132.785 30.758 119.247 30.657 119.086C29.992 117.526 28.884 116.196 27.469 115.261C26.055 114.326 24.398 113.828 22.703 113.828C21.546 113.828 20.402 114.064 19.34 114.523C18.297 114.966 17.351 115.61 16.556 116.419C15.762 117.227 15.134 118.185 14.71 119.236C14.285 120.288 14.072 121.412 14.082 122.546C14.092 123.68 14.326 124.801 14.769 125.845C18.696 135.102 29.872 150.12 46.585 150.12C49.659 150.108 52.714 149.633 55.647 148.71C66.974 145.235 74.485 133.883 77.979 114.976C79.4 106.927 80.074 98.763 79.993 90.589C79.937 88.336 79.004 86.193 77.392 84.618C75.78 83.043 73.617 82.16 71.364 82.158L71.374 82.168Z" fill="#111318"/>
<path d="M0.479915 101.066C0.376915 100.88 0.312913 100.675 0.289913 100.464C0.267913 100.253 0.287903 100.04 0.348903 99.837C0.476903 99.428 0.757907 99.085 1.13391 98.88C1.32091 98.776 1.52591 98.711 1.73791 98.688C1.94991 98.664 2.16489 98.684 2.36889 98.745C2.57389 98.806 2.76392 98.907 2.92892 99.043C3.09392 99.178 3.22991 99.346 3.32891 99.535L6.0679 104.631C6.1269 104.749 6.21692 104.847 6.32992 104.914C6.44192 104.982 6.5709 105.017 6.7019 105.014C6.8249 105.014 6.94592 104.983 7.05392 104.924C7.14892 104.879 7.23291 104.816 7.30191 104.739C7.37191 104.661 7.4239 104.569 7.4569 104.47C7.48691 104.379 7.49692 104.283 7.48892 104.188C7.47992 104.093 7.45192 104 7.40692 103.916L2.30191 94.387C2.20191 94.2 2.13892 93.995 2.11792 93.784C2.09692 93.573 2.1179 93.359 2.1799 93.156C2.2419 92.953 2.3429 92.764 2.4779 92.6C2.6129 92.437 2.77891 92.301 2.96691 92.201C3.19791 92.074 3.45792 92.008 3.72192 92.01C4.01392 92.008 4.30192 92.086 4.55392 92.235C4.80592 92.384 5.01191 92.599 5.15091 92.856L10.2459 102.355C10.3109 102.478 10.4079 102.58 10.5269 102.651C10.6459 102.722 10.7819 102.759 10.9209 102.758C11.0469 102.758 11.1709 102.727 11.2829 102.667C11.4539 102.571 11.5819 102.413 11.6379 102.225C11.6939 102.037 11.6749 101.834 11.5849 101.66L5.4429 90.217C5.3409 90.031 5.2759 89.827 5.2539 89.616C5.2309 89.405 5.25092 89.191 5.31192 88.988C5.39692 88.669 5.57691 88.383 5.82791 88.169C6.07891 87.955 6.38992 87.823 6.71792 87.79C7.04592 87.757 7.37692 87.825 7.66592 87.985C7.95392 88.146 8.18691 88.3899 8.33291 88.6859L14.4849 100.169C14.5479 100.288 14.6429 100.387 14.7579 100.456C14.8729 100.525 15.0049 100.562 15.1389 100.562C15.2669 100.565 15.3929 100.53 15.5019 100.461C15.5929 100.418 15.6739 100.356 15.7399 100.28C15.8059 100.204 15.8549 100.115 15.8839 100.018C15.9439 99.828 15.9259 99.621 15.8339 99.444L10.7289 89.935C10.6289 89.748 10.5669 89.543 10.5459 89.332C10.5249 89.12 10.5459 88.907 10.6079 88.704C10.6689 88.501 10.7709 88.312 10.9059 88.148C11.0399 87.984 11.2059 87.849 11.3939 87.749C11.6279 87.621 11.8919 87.555 12.1589 87.558C12.4509 87.557 12.7389 87.635 12.9899 87.784C13.2419 87.933 13.4489 88.147 13.5889 88.404L22.8919 105.76C22.9379 105.851 23.0079 105.928 23.0949 105.982C23.1829 106.035 23.2829 106.063 23.3849 106.062C23.4659 106.062 23.5449 106.046 23.6179 106.013C23.6909 105.98 23.7559 105.931 23.8079 105.87C23.8619 105.813 23.9029 105.745 23.9269 105.67C23.9519 105.595 23.9589 105.515 23.9489 105.437C23.8089 104.193 23.5359 102.967 23.1339 101.781C22.7509 100.592 22.2879 99.414 21.7039 98.014C21.5709 97.704 21.5519 97.357 21.6489 97.035C21.7469 96.712 21.9549 96.435 22.2379 96.251C22.4739 96.087 22.7549 95.999 23.0429 95.999C23.2819 95.999 23.5169 96.058 23.7269 96.171C23.9379 96.283 24.1179 96.446 24.2509 96.644C24.9959 97.762 25.7919 98.97 26.5169 100.28C27.2709 101.602 27.8859 103 28.3489 104.45C28.8699 106.051 29.0809 107.736 28.9729 109.416C28.9219 110.173 28.7939 110.922 28.5909 111.652C28.2559 111.731 27.9339 111.857 27.6339 112.025L12.5319 120.083C12.0439 120.346 11.6149 120.706 11.2729 121.141L0.479915 101.066Z" fill="#2CC995"/>
<path d="M12.1 87.81C12.338 87.81 12.572 87.874 12.776 87.997C12.98 88.119 13.146 88.295 13.258 88.505L20.457 101.922L22.561 105.851C22.635 105.99 22.745 106.107 22.879 106.189C23.014 106.27 23.169 106.314 23.327 106.314C23.45 106.313 23.572 106.286 23.684 106.236C23.797 106.186 23.898 106.113 23.981 106.022C24.062 105.927 24.121 105.816 24.156 105.696C24.19 105.576 24.2 105.45 24.182 105.327C24.038 104.066 23.761 102.823 23.357 101.62C22.944 100.341 22.42 99.041 21.907 97.833C21.806 97.586 21.792 97.312 21.87 97.057C21.947 96.802 22.109 96.582 22.33 96.432C22.455 96.346 22.596 96.285 22.745 96.254C22.893 96.222 23.047 96.221 23.196 96.25C23.345 96.279 23.487 96.338 23.613 96.423C23.74 96.508 23.847 96.617 23.931 96.745C24.666 97.853 25.451 99.041 26.166 100.331C26.903 101.637 27.507 103.013 27.968 104.44C28.475 106.009 28.683 107.66 28.582 109.306C28.54 109.986 28.432 110.661 28.26 111.32C27.963 111.403 27.676 111.518 27.404 111.663L26.589 112.096L24.897 113.002L23.206 113.919L21.595 114.775L14.003 118.855L12.312 119.761C11.918 119.971 11.561 120.243 11.254 120.567L7.55897 113.677L5.54597 109.87L0.722975 100.885C0.617975 100.683 0.565981 100.459 0.572981 100.232C0.578981 100.006 0.643993 99.784 0.759993 99.589C0.875993 99.395 1.03998 99.233 1.23598 99.119C1.43198 99.006 1.654 98.944 1.881 98.941C2.12 98.941 2.35498 99.005 2.55998 99.127C2.76598 99.25 2.93399 99.425 3.04899 99.636L5.77699 104.743C5.84099 104.867 5.92998 104.976 6.03798 105.064C6.14598 105.152 6.27099 105.216 6.40599 105.253C6.53999 105.29 6.68098 105.299 6.81898 105.278C6.95698 105.258 7.08898 105.209 7.20698 105.135C7.33198 105.075 7.44297 104.989 7.53297 104.883C7.62297 104.777 7.68999 104.654 7.72999 104.521C7.80899 104.26 7.78399 103.978 7.65999 103.735L2.56499 94.247C2.41999 93.94 2.39899 93.589 2.50499 93.267C2.61199 92.945 2.83798 92.677 3.13798 92.518C3.43698 92.358 3.78598 92.32 4.11198 92.411C4.43898 92.503 4.71797 92.716 4.89097 93.008L9.98598 102.506C10.072 102.679 10.207 102.823 10.373 102.921C10.539 103.019 10.729 103.067 10.922 103.06C11.097 103.06 11.27 103.019 11.426 102.939C11.671 102.803 11.854 102.576 11.935 102.307C12.016 102.038 11.988 101.748 11.859 101.499L5.70698 90.026C5.54198 89.719 5.506 89.358 5.606 89.024C5.706 88.69 5.93397 88.409 6.23997 88.243C6.43297 88.14 6.64697 88.085 6.86497 88.082C7.10297 88.083 7.33798 88.148 7.54298 88.27C7.74898 88.392 7.918 88.567 8.032 88.777L14.184 100.26C14.27 100.429 14.401 100.571 14.563 100.669C14.725 100.767 14.911 100.817 15.101 100.814C15.28 100.813 15.456 100.768 15.614 100.683C15.742 100.624 15.857 100.539 15.95 100.432C16.043 100.326 16.112 100.202 16.154 100.067C16.196 99.932 16.209 99.79 16.192 99.649C16.175 99.509 16.129 99.374 16.057 99.253L10.962 89.744C10.854 89.544 10.799 89.319 10.804 89.092C10.809 88.864 10.873 88.642 10.99 88.447C11.107 88.251 11.273 88.09 11.471 87.978C11.669 87.867 11.893 87.809 12.12 87.81H12.1ZM12.12 87.206C11.787 87.203 11.46 87.288 11.17 87.452C10.879 87.615 10.637 87.851 10.466 88.137C10.295 88.423 10.202 88.749 10.195 89.082C10.189 89.415 10.269 89.744 10.429 90.036L15.523 99.535C15.553 99.586 15.572 99.643 15.579 99.701C15.586 99.76 15.58 99.82 15.563 99.876C15.546 99.933 15.518 99.985 15.48 100.031C15.442 100.076 15.395 100.113 15.342 100.139C15.275 100.179 15.199 100.2 15.121 100.2C15.041 100.197 14.964 100.174 14.896 100.131C14.829 100.089 14.774 100.029 14.738 99.958L8.57597 88.485C8.41097 88.18 8.16697 87.926 7.86897 87.748C7.57097 87.571 7.23099 87.477 6.88499 87.478C6.56899 87.483 6.25799 87.562 5.97899 87.709C5.75599 87.828 5.559 87.989 5.399 88.184C5.239 88.379 5.118 88.604 5.045 88.845C4.973 89.087 4.94798 89.34 4.97298 89.591C4.99898 89.842 5.07298 90.086 5.19298 90.308L11.345 101.781C11.375 101.834 11.393 101.893 11.4 101.954C11.406 102.014 11.4 102.076 11.382 102.134C11.364 102.192 11.335 102.246 11.296 102.293C11.256 102.34 11.208 102.378 11.154 102.406C11.084 102.424 11.012 102.424 10.942 102.406C10.858 102.408 10.774 102.386 10.701 102.344C10.628 102.301 10.569 102.239 10.529 102.164L5.44499 92.665C5.27799 92.36 5.03198 92.105 4.73299 91.927C4.43298 91.75 4.09099 91.657 3.74299 91.658C3.42799 91.66 3.11799 91.736 2.83699 91.879C2.39099 92.125 2.05799 92.535 1.91099 93.023C1.76399 93.511 1.81499 94.037 2.05199 94.488L7.16698 104.007C7.19298 104.057 7.20897 104.111 7.21397 104.167C7.21897 104.223 7.213 104.279 7.196 104.332C7.179 104.386 7.15198 104.435 7.11598 104.478C7.07898 104.521 7.035 104.556 6.985 104.581H6.92497C6.86197 104.613 6.79398 104.63 6.72398 104.632C6.64698 104.632 6.57197 104.611 6.50697 104.572C6.44097 104.533 6.387 104.477 6.351 104.41L3.62199 99.313C3.45499 99.008 3.20898 98.754 2.90898 98.577C2.60998 98.4 2.26897 98.306 1.92097 98.306C1.60497 98.311 1.294 98.39 1.015 98.538C0.791998 98.656 0.594981 98.817 0.434981 99.012C0.274981 99.207 0.154984 99.432 0.0819839 99.674C0.00898388 99.915 -0.0160071 100.169 0.00999291 100.42C0.0349929 100.671 0.109987 100.914 0.228987 101.136L5.05199 110.121L7.06599 113.929L11.174 121.595H11.224C11.57 121.032 12.06 120.573 12.644 120.265L14.335 119.358L21.927 115.279L23.538 114.423L25.229 113.506L26.921 112.599L27.726 112.166C28.058 111.99 28.415 111.865 28.784 111.794C29.013 110.999 29.158 110.181 29.217 109.356C29.318 107.652 29.103 105.945 28.582 104.319C28.109 102.849 27.485 101.431 26.72 100.089C26.005 98.799 25.219 97.591 24.444 96.442C24.283 96.202 24.066 96.005 23.812 95.868C23.557 95.731 23.273 95.659 22.984 95.657C22.695 95.658 22.41 95.73 22.156 95.867C21.901 96.004 21.684 96.202 21.524 96.443C21.364 96.684 21.265 96.961 21.237 97.249C21.209 97.537 21.252 97.827 21.363 98.094C21.897 99.364 22.37 100.603 22.793 101.831C23.183 102.996 23.45 104.197 23.588 105.417C23.593 105.454 23.589 105.492 23.578 105.527C23.567 105.562 23.548 105.595 23.523 105.622C23.498 105.65 23.468 105.672 23.434 105.687C23.4 105.702 23.364 105.71 23.327 105.71C23.279 105.708 23.233 105.695 23.192 105.67C23.151 105.645 23.118 105.61 23.095 105.569L20.991 101.64L13.812 88.203C13.648 87.897 13.403 87.642 13.106 87.465C12.808 87.287 12.467 87.194 12.12 87.195V87.206Z" fill="#104A37"/>
<path d="M14.4139 127.074C13.6919 127.069 12.9879 126.841 12.4009 126.419C11.9809 126.115 11.6359 125.719 11.3939 125.261C11.1169 124.735 10.9789 124.147 10.9929 123.553C11.0069 122.959 11.1729 122.378 11.4739 121.866C11.7939 121.333 12.2539 120.898 12.8039 120.607L27.9059 112.549C28.2219 112.38 28.5609 112.261 28.9129 112.196C29.1259 112.156 29.3409 112.136 29.5569 112.136C30.3239 112.137 31.0679 112.393 31.6719 112.865C32.2759 113.336 32.7059 113.996 32.8929 114.739C33.0799 115.483 33.0139 116.267 32.7049 116.969C32.3969 117.67 31.8629 118.249 31.1889 118.613L16.0859 126.671C15.5849 126.942 15.0239 127.084 14.4549 127.084L14.4139 127.074Z" fill="#2CC995"/>
<path d="M29.4989 112.377C30.2009 112.37 30.8839 112.6 31.4399 113.029C31.9959 113.458 32.3909 114.061 32.5629 114.742C32.7349 115.423 32.6729 116.142 32.3879 116.783C32.1019 117.425 31.61 117.952 30.989 118.279L15.886 126.338C15.367 126.616 14.7809 126.743 14.1929 126.704C13.6059 126.665 13.0409 126.461 12.5639 126.116C11.9319 125.651 11.4959 124.968 11.3399 124.199C11.1829 123.43 11.318 122.631 11.718 121.956C12.01 121.472 12.4279 121.075 12.9259 120.808L14.618 119.901L22.209 115.872L23.82 115.006L25.5119 114.099L27.2029 113.193L28.0089 112.76C28.2869 112.613 28.5859 112.507 28.8949 112.447C29.0899 112.408 29.289 112.387 29.489 112.387L29.4989 112.377ZM29.489 111.782C29.252 111.781 29.0159 111.805 28.7839 111.853C28.4149 111.924 28.0589 112.05 27.7269 112.226L26.9209 112.659L25.23 113.565L23.5379 114.482L21.9269 115.338L14.346 119.428L12.6539 120.334C11.7849 120.8 11.1349 121.592 10.8479 122.536C10.5619 123.48 10.6609 124.5 11.1239 125.371C11.3889 125.869 11.764 126.3 12.221 126.63C12.79 127.043 13.464 127.288 14.166 127.336C14.867 127.384 15.5679 127.234 16.1879 126.902L31.291 118.844C32.028 118.449 32.6109 117.82 32.9489 117.056C33.2869 116.292 33.36 115.436 33.157 114.626C32.953 113.816 32.484 113.096 31.825 112.583C31.166 112.07 30.354 111.791 29.519 111.793L29.489 111.782Z" fill="#104A37"/>
<path d="M171.515 149.777C188.339 149.777 199.254 134.668 203.06 125.683C203.923 123.649 203.944 121.354 203.117 119.305C202.29 117.255 200.683 115.618 198.65 114.754C196.616 113.89 194.323 113.869 192.274 114.696C190.225 115.524 188.589 117.131 187.725 119.166C187.665 119.307 181.684 133.046 171.243 133.046C169.959 133.039 168.683 132.838 167.457 132.452C158.839 129.813 154.721 106.655 155.063 90.9521C155.112 88.7431 154.282 86.605 152.757 85.007C151.232 83.41 149.135 82.4831 146.928 82.4301H146.736C144.565 82.4451 142.485 83.3011 140.932 84.8191C139.379 86.3371 138.475 88.3981 138.41 90.5691C138.337 98.7191 139.011 106.858 140.424 114.885C143.897 133.681 151.348 144.953 162.574 148.397C165.472 149.303 168.489 149.772 171.525 149.788L171.515 149.777Z" fill="#1C1D21"/>
<path d="M146.727 82.722C144.627 82.722 142.609 83.542 141.105 85.007C139.6 86.473 138.727 88.469 138.672 90.569C138.594 98.699 139.268 106.819 140.686 114.825C144.19 133.53 151.529 144.691 162.605 148.096C165.473 148.993 168.46 149.458 171.465 149.476C188.128 149.476 198.952 134.447 202.677 125.563C203.203 124.576 203.516 123.491 203.6 122.376C203.684 121.261 203.536 120.141 203.163 119.087C202.791 118.033 202.202 117.068 201.437 116.254C200.671 115.439 199.746 114.793 198.717 114.356C197.689 113.919 196.58 113.701 195.462 113.715C194.345 113.73 193.244 113.977 192.227 114.441C191.21 114.905 190.301 115.575 189.557 116.409C188.814 117.244 188.251 118.224 187.906 119.287C187.846 119.428 181.805 133.389 171.133 133.389C169.821 133.384 168.517 133.18 167.267 132.785C158.104 129.975 154.318 106.182 154.651 90.982C154.691 88.857 153.891 86.8019 152.424 85.2639C150.956 83.7259 148.94 82.8309 146.816 82.7729H146.626L146.727 82.722ZM146.626 82.168H146.827C147.961 82.195 149.078 82.4439 150.115 82.9019C151.151 83.3599 152.088 84.018 152.871 84.839C153.653 85.659 154.267 86.626 154.676 87.683C155.085 88.741 155.282 89.869 155.255 91.002C154.912 106.605 158.959 129.602 167.438 132.211C168.633 132.584 169.879 132.777 171.133 132.785C181.403 132.785 187.241 119.247 187.342 119.086C188.007 117.526 189.116 116.196 190.531 115.261C191.945 114.326 193.602 113.828 195.297 113.828C196.454 113.828 197.598 114.064 198.66 114.523C199.703 114.966 200.649 115.61 201.444 116.419C202.238 117.227 202.866 118.185 203.29 119.236C203.715 120.288 203.928 121.412 203.918 122.546C203.908 123.68 203.673 124.801 203.23 125.845C199.303 135.102 188.128 150.12 171.415 150.12C168.341 150.108 165.286 149.633 162.353 148.71C151.026 145.235 143.515 133.883 140.021 114.976C138.6 106.927 137.925 98.763 138.007 90.589C138.062 88.336 138.996 86.193 140.608 84.618C142.22 83.043 144.382 82.16 146.635 82.158L146.626 82.168Z" fill="#111318"/>
<path d="M217.52 101.066C217.623 100.88 217.687 100.675 217.71 100.464C217.732 100.253 217.712 100.04 217.651 99.837C217.523 99.428 217.242 99.085 216.866 98.88C216.679 98.776 216.474 98.711 216.262 98.688C216.05 98.664 215.835 98.684 215.631 98.745C215.426 98.806 215.236 98.907 215.071 99.043C214.906 99.178 214.77 99.346 214.671 99.535L211.932 104.631C211.873 104.749 211.783 104.847 211.67 104.914C211.558 104.982 211.429 105.017 211.298 105.014C211.175 105.014 211.054 104.983 210.946 104.924C210.851 104.879 210.767 104.816 210.698 104.739C210.628 104.661 210.576 104.569 210.543 104.47C210.513 104.379 210.503 104.283 210.511 104.188C210.52 104.093 210.548 104 210.593 103.916L215.698 94.387C215.798 94.2 215.861 93.995 215.882 93.784C215.903 93.573 215.882 93.359 215.82 93.156C215.758 92.953 215.657 92.764 215.522 92.6C215.387 92.437 215.221 92.301 215.033 92.201C214.802 92.074 214.542 92.008 214.278 92.01C213.986 92.008 213.698 92.086 213.446 92.235C213.194 92.384 212.988 92.599 212.849 92.856L207.754 102.355C207.689 102.478 207.592 102.58 207.473 102.651C207.354 102.722 207.218 102.759 207.079 102.758C206.953 102.758 206.829 102.727 206.717 102.667C206.546 102.571 206.418 102.413 206.362 102.225C206.306 102.037 206.325 101.834 206.415 101.66L212.557 90.217C212.659 90.031 212.724 89.827 212.746 89.616C212.769 89.405 212.749 89.191 212.688 88.988C212.603 88.669 212.423 88.383 212.172 88.169C211.921 87.955 211.61 87.823 211.282 87.79C210.954 87.757 210.623 87.825 210.334 87.985C210.046 88.146 209.813 88.3899 209.667 88.6859L203.515 100.169C203.452 100.288 203.357 100.387 203.242 100.456C203.127 100.525 202.995 100.562 202.861 100.562C202.733 100.565 202.607 100.53 202.498 100.461C202.407 100.418 202.326 100.356 202.26 100.28C202.194 100.204 202.145 100.115 202.116 100.018C202.056 99.828 202.074 99.621 202.166 99.444L207.271 89.935C207.371 89.748 207.433 89.543 207.454 89.332C207.475 89.12 207.454 88.907 207.392 88.704C207.331 88.501 207.229 88.312 207.094 88.148C206.96 87.984 206.794 87.849 206.606 87.749C206.372 87.621 206.108 87.555 205.841 87.558C205.549 87.557 205.261 87.635 205.01 87.784C204.758 87.933 204.551 88.147 204.411 88.404L195.108 105.76C195.062 105.851 194.992 105.928 194.905 105.982C194.817 106.035 194.717 106.063 194.615 106.062C194.534 106.062 194.455 106.046 194.382 106.013C194.309 105.98 194.244 105.931 194.192 105.87C194.138 105.813 194.097 105.745 194.073 105.67C194.048 105.595 194.041 105.515 194.051 105.437C194.191 104.193 194.464 102.967 194.866 101.781C195.249 100.592 195.712 99.414 196.296 98.014C196.429 97.704 196.448 97.357 196.351 97.035C196.253 96.712 196.045 96.435 195.762 96.251C195.526 96.087 195.245 95.999 194.957 95.999C194.718 95.999 194.483 96.058 194.273 96.171C194.062 96.283 193.882 96.446 193.749 96.644C193.004 97.762 192.208 98.97 191.483 100.28C190.729 101.602 190.114 103 189.651 104.45C189.13 106.051 188.919 107.736 189.027 109.416C189.078 110.173 189.206 110.922 189.409 111.652C189.744 111.731 190.066 111.857 190.366 112.025L205.468 120.083C205.956 120.346 206.385 120.706 206.727 121.141L217.52 101.066Z" fill="#2CC995"/>
<path d="M205.9 87.81C205.662 87.81 205.428 87.874 205.224 87.997C205.02 88.119 204.854 88.295 204.742 88.505L197.543 101.922L195.439 105.851C195.365 105.99 195.255 106.107 195.121 106.189C194.986 106.27 194.831 106.314 194.673 106.314C194.55 106.313 194.428 106.286 194.316 106.236C194.203 106.186 194.102 106.113 194.019 106.022C193.938 105.927 193.879 105.816 193.844 105.696C193.81 105.576 193.8 105.45 193.818 105.327C193.962 104.066 194.239 102.823 194.643 101.62C195.056 100.341 195.58 99.041 196.093 97.833C196.194 97.586 196.208 97.312 196.13 97.057C196.053 96.802 195.891 96.582 195.67 96.432C195.545 96.346 195.404 96.285 195.255 96.254C195.107 96.222 194.953 96.221 194.804 96.25C194.655 96.279 194.513 96.338 194.387 96.423C194.26 96.508 194.153 96.617 194.069 96.745C193.334 97.853 192.549 99.041 191.834 100.331C191.097 101.637 190.493 103.013 190.032 104.44C189.525 106.009 189.317 107.66 189.418 109.306C189.46 109.986 189.568 110.661 189.74 111.32C190.037 111.403 190.324 111.518 190.596 111.663L191.411 112.096L193.103 113.002L194.794 113.919L196.405 114.775L203.997 118.855L205.688 119.761C206.082 119.971 206.439 120.243 206.746 120.567L210.441 113.677L212.454 109.87L217.277 100.885C217.382 100.683 217.434 100.459 217.427 100.232C217.421 100.006 217.356 99.784 217.24 99.589C217.124 99.395 216.96 99.233 216.764 99.119C216.568 99.006 216.346 98.944 216.119 98.941C215.88 98.941 215.645 99.005 215.44 99.127C215.234 99.25 215.066 99.425 214.951 99.636L212.223 104.743C212.159 104.867 212.07 104.976 211.962 105.064C211.854 105.152 211.729 105.216 211.594 105.253C211.46 105.29 211.319 105.299 211.181 105.278C211.043 105.258 210.911 105.209 210.793 105.135C210.668 105.075 210.557 104.989 210.467 104.883C210.377 104.777 210.31 104.654 210.27 104.521C210.191 104.26 210.216 103.978 210.34 103.735L215.435 94.247C215.58 93.94 215.601 93.589 215.495 93.267C215.388 92.945 215.162 92.677 214.862 92.518C214.563 92.358 214.214 92.32 213.888 92.411C213.561 92.503 213.282 92.716 213.109 93.008L208.014 102.506C207.928 102.679 207.793 102.823 207.627 102.921C207.461 103.019 207.271 103.067 207.078 103.06C206.903 103.06 206.73 103.019 206.574 102.939C206.329 102.803 206.146 102.576 206.065 102.307C205.984 102.038 206.012 101.748 206.141 101.499L212.293 90.026C212.458 89.719 212.494 89.358 212.394 89.024C212.294 88.69 212.066 88.409 211.76 88.243C211.567 88.14 211.353 88.085 211.135 88.082C210.897 88.083 210.662 88.148 210.457 88.27C210.251 88.392 210.082 88.567 209.968 88.777L203.816 100.26C203.73 100.429 203.599 100.571 203.437 100.669C203.275 100.767 203.089 100.817 202.899 100.814C202.72 100.813 202.544 100.768 202.386 100.683C202.258 100.624 202.143 100.539 202.05 100.432C201.957 100.326 201.888 100.202 201.846 100.067C201.804 99.932 201.791 99.79 201.808 99.649C201.825 99.509 201.871 99.374 201.943 99.253L207.038 89.744C207.146 89.544 207.201 89.319 207.196 89.092C207.191 88.864 207.127 88.642 207.01 88.447C206.893 88.251 206.727 88.09 206.529 87.978C206.331 87.867 206.107 87.809 205.88 87.81H205.9ZM205.88 87.206C206.213 87.203 206.54 87.288 206.83 87.452C207.121 87.615 207.363 87.851 207.534 88.137C207.705 88.423 207.798 88.749 207.805 89.082C207.811 89.415 207.731 89.744 207.571 90.036L202.477 99.535C202.447 99.586 202.428 99.643 202.421 99.701C202.414 99.76 202.42 99.82 202.437 99.876C202.454 99.933 202.482 99.985 202.52 100.031C202.558 100.076 202.605 100.113 202.658 100.139C202.725 100.179 202.801 100.2 202.879 100.2C202.959 100.197 203.036 100.174 203.104 100.131C203.171 100.089 203.226 100.029 203.262 99.958L209.424 88.485C209.589 88.18 209.833 87.926 210.131 87.748C210.429 87.571 210.769 87.477 211.115 87.478C211.431 87.483 211.742 87.562 212.021 87.709C212.244 87.828 212.441 87.989 212.601 88.184C212.761 88.379 212.882 88.604 212.955 88.845C213.027 89.087 213.052 89.34 213.027 89.591C213.001 89.842 212.927 90.086 212.807 90.308L206.655 101.781C206.625 101.834 206.607 101.893 206.6 101.954C206.594 102.014 206.6 102.076 206.618 102.134C206.636 102.192 206.665 102.246 206.704 102.293C206.744 102.34 206.792 102.378 206.846 102.406C206.916 102.424 206.988 102.424 207.058 102.406C207.142 102.408 207.226 102.386 207.299 102.344C207.372 102.301 207.431 102.239 207.471 102.164L212.555 92.665C212.722 92.36 212.968 92.105 213.267 91.927C213.567 91.75 213.909 91.657 214.257 91.658C214.572 91.66 214.882 91.736 215.163 91.879C215.609 92.125 215.942 92.535 216.089 93.023C216.236 93.511 216.185 94.037 215.948 94.488L210.833 104.007C210.807 104.057 210.791 104.111 210.786 104.167C210.781 104.223 210.787 104.279 210.804 104.332C210.821 104.386 210.848 104.435 210.884 104.478C210.921 104.521 210.965 104.556 211.015 104.581H211.075C211.138 104.613 211.206 104.63 211.276 104.632C211.353 104.632 211.428 104.611 211.493 104.572C211.559 104.533 211.613 104.477 211.649 104.41L214.378 99.313C214.545 99.008 214.791 98.754 215.091 98.577C215.39 98.4 215.731 98.306 216.079 98.306C216.395 98.311 216.706 98.39 216.985 98.538C217.208 98.656 217.405 98.817 217.565 99.012C217.725 99.207 217.845 99.432 217.918 99.674C217.991 99.915 218.016 100.169 217.99 100.42C217.965 100.671 217.89 100.914 217.771 101.136L212.948 110.121L210.934 113.929L206.826 121.595H206.776C206.43 121.032 205.94 120.573 205.356 120.265L203.665 119.358L196.073 115.279L194.462 114.423L192.771 113.506L191.079 112.599L190.274 112.166C189.942 111.99 189.585 111.865 189.216 111.794C188.987 110.999 188.842 110.181 188.783 109.356C188.682 107.652 188.897 105.945 189.418 104.319C189.891 102.849 190.515 101.431 191.28 100.089C191.995 98.799 192.781 97.591 193.556 96.442C193.717 96.202 193.934 96.005 194.188 95.868C194.443 95.731 194.727 95.659 195.016 95.657C195.305 95.658 195.59 95.73 195.844 95.867C196.099 96.004 196.316 96.202 196.476 96.443C196.636 96.684 196.735 96.961 196.763 97.249C196.791 97.537 196.748 97.827 196.637 98.094C196.103 99.364 195.63 100.603 195.207 101.831C194.817 102.996 194.55 104.197 194.412 105.417C194.407 105.454 194.411 105.492 194.422 105.527C194.433 105.562 194.452 105.595 194.477 105.622C194.502 105.65 194.532 105.672 194.566 105.687C194.6 105.702 194.636 105.71 194.673 105.71C194.721 105.708 194.767 105.695 194.808 105.67C194.849 105.645 194.882 105.61 194.905 105.569L197.009 101.64L204.188 88.203C204.352 87.897 204.597 87.642 204.894 87.465C205.192 87.287 205.533 87.194 205.88 87.195V87.206Z" fill="#104A37"/>
<path d="M203.586 127.074C204.308 127.069 205.012 126.841 205.599 126.419C206.019 126.115 206.364 125.719 206.606 125.261C206.883 124.735 207.021 124.147 207.007 123.553C206.993 122.959 206.827 122.378 206.526 121.866C206.206 121.333 205.746 120.898 205.196 120.607L190.094 112.549C189.778 112.38 189.439 112.261 189.087 112.196C188.874 112.156 188.659 112.136 188.443 112.136C187.676 112.137 186.932 112.393 186.328 112.865C185.724 113.336 185.294 113.996 185.107 114.739C184.92 115.483 184.986 116.267 185.295 116.969C185.603 117.67 186.137 118.249 186.811 118.613L201.914 126.671C202.415 126.942 202.976 127.084 203.545 127.084L203.586 127.074Z" fill="#2CC995"/>
<path d="M188.501 112.377C187.799 112.37 187.116 112.6 186.56 113.029C186.004 113.458 185.609 114.061 185.437 114.742C185.265 115.423 185.327 116.142 185.612 116.783C185.898 117.425 186.39 117.952 187.011 118.279L202.114 126.338C202.633 126.616 203.219 126.743 203.807 126.704C204.394 126.665 204.959 126.461 205.436 126.116C206.068 125.651 206.504 124.968 206.66 124.199C206.817 123.43 206.682 122.631 206.282 121.956C205.99 121.472 205.572 121.075 205.074 120.808L203.382 119.901L195.791 115.872L194.18 115.006L192.488 114.099L190.797 113.193L189.991 112.76C189.713 112.613 189.414 112.507 189.105 112.447C188.91 112.408 188.711 112.387 188.511 112.387L188.501 112.377ZM188.511 111.782C188.748 111.781 188.984 111.805 189.216 111.853C189.585 111.924 189.941 112.05 190.273 112.226L191.079 112.659L192.77 113.565L194.462 114.482L196.073 115.338L203.654 119.428L205.346 120.334C206.215 120.8 206.865 121.592 207.152 122.536C207.438 123.48 207.339 124.5 206.876 125.371C206.611 125.869 206.236 126.3 205.779 126.63C205.21 127.043 204.536 127.288 203.834 127.336C203.133 127.384 202.432 127.234 201.812 126.902L186.709 118.844C185.972 118.449 185.389 117.82 185.051 117.056C184.713 116.292 184.64 115.436 184.843 114.626C185.047 113.816 185.516 113.096 186.175 112.583C186.834 112.07 187.646 111.791 188.481 111.793L188.511 111.782Z" fill="#104A37"/>
<path d="M69.196 100.37C68.678 100.368 68.1599 100.331 67.6459 100.259C64.7869 99.838 62.21 98.301 60.48 95.985C58.75 93.669 58.0069 90.762 58.4129 87.9C58.7939 85.303 60.0919 82.929 62.0719 81.209C64.0519 79.488 66.5839 78.535 69.2059 78.522C69.7289 78.523 70.25 78.56 70.767 78.632C73.512 79.008 76.012 80.414 77.76 82.565C79.507 84.717 80.3709 87.453 80.1759 90.218C79.9809 92.983 78.743 95.571 76.711 97.456C74.68 99.341 72.008 100.383 69.237 100.37H69.196Z" fill="#2CC995"/>
<path d="M69.168 78.8239C69.676 78.8259 70.184 78.863 70.688 78.935C73.473 79.334 75.985 80.823 77.673 83.075C79.361 85.326 80.086 88.156 79.689 90.942C79.323 93.468 78.062 95.779 76.137 97.453C74.211 99.128 71.749 100.056 69.198 100.068C68.692 100.066 68.188 100.029 67.688 99.957C64.9 99.558 62.385 98.068 60.696 95.815C59.006 93.561 58.28 90.729 58.676 87.94C59.047 85.417 60.309 83.11 62.234 81.438C64.158 79.765 66.618 78.8379 69.168 78.8239ZM69.168 78.22C66.329 78.22 63.597 79.297 61.521 81.233C59.445 83.169 58.18 85.821 57.981 88.653C57.781 91.486 58.663 94.2889 60.447 96.4969C62.232 98.7039 64.787 100.154 67.597 100.552C68.127 100.631 68.662 100.672 69.198 100.672C72.027 100.655 74.745 99.569 76.808 97.633C78.871 95.697 80.128 93.0529 80.326 90.2289C80.525 87.4059 79.65 84.6119 77.878 82.4059C76.106 80.1999 73.567 78.744 70.769 78.331C70.238 78.259 69.703 78.222 69.168 78.22Z" fill="#104A37"/>
<path d="M59.8869 87.547C60.2909 89.458 61.2709 91.199 62.6949 92.536C64.1189 93.872 65.9189 94.74 67.8509 95.021C68.2979 95.081 68.7489 95.112 69.1999 95.111C71.3809 95.1 73.4919 94.341 75.1819 92.961C76.8709 91.58 78.0359 89.662 78.4829 87.527C78.7089 88.597 78.7429 89.698 78.5839 90.78C78.2559 93.039 77.1279 95.105 75.4059 96.603C73.6839 98.1 71.4819 98.929 69.1999 98.939C68.7489 98.939 68.2979 98.909 67.8509 98.849C65.3599 98.487 63.1149 97.153 61.6049 95.139C60.0959 93.124 59.4449 90.594 59.7959 88.101C59.8159 87.919 59.8459 87.728 59.8869 87.547Z" fill="#27B082"/>
<path d="M73.52 155.005C73.154 152.576 72.9321 150.127 72.8551 147.672C72.8051 146.03 72.674 144.428 72.483 142.897L69.16 117.302C67.872 107.82 69.5501 98.172 73.9631 89.682C77.3041 83.187 82.233 77.643 88.29 73.565C94.229 69.596 101.204 67.463 108.347 67.431C122.382 67.431 135.532 75.953 142.731 89.672C147.142 98.162 148.823 107.809 147.543 117.292L144.211 142.887C144.019 144.398 143.889 146.01 143.838 147.662C143.752 150.454 143.48 153.237 143.023 155.992L108.095 158.228L73.52 155.005Z" fill="#2CC995"/>
<path d="M108.366 67.744C122.291 67.744 135.36 76.205 142.478 89.824C146.861 98.262 148.531 107.848 147.261 117.272L143.938 142.858C143.73 144.452 143.603 146.055 143.556 147.662C143.469 150.362 143.21 153.054 142.78 155.721L108.125 157.947L73.801 154.683C73.464 152.346 73.256 149.992 73.177 147.632C73.127 145.98 72.996 144.369 72.794 142.827L69.472 117.242C68.201 107.818 69.872 98.232 74.254 89.793C77.568 83.346 82.458 77.844 88.471 73.798C94.367 69.874 101.286 67.773 108.366 67.754V67.744ZM108.366 67.15C101.162 67.173 94.125 69.324 88.139 73.334C82.042 77.436 77.082 83.015 73.721 89.552C69.294 98.103 67.603 107.808 68.878 117.353L72.2 142.948C72.402 144.52 72.523 146.101 72.573 147.693C72.652 150.236 72.888 152.773 73.278 155.288L108.115 158.551L143.294 156.295C143.785 153.452 144.074 150.577 144.16 147.693C144.16 146.101 144.331 144.52 144.532 142.948L147.855 117.353C149.129 107.808 147.439 98.103 143.012 89.552C136.025 76.185 123.086 67.15 108.366 67.15Z" fill="#104A37"/>
<path d="M106.681 94.669C105.331 94.669 103.972 94.609 102.653 94.498C86.423 93.179 77.8539 86.047 73.2529 82.209C72.7699 81.806 72.377 81.474 72.005 81.202C71.127 80.528 70.393 79.685 69.845 78.724C69.296 77.763 68.945 76.702 68.811 75.604C68.677 74.505 68.763 73.391 69.065 72.326C69.366 71.261 69.876 70.267 70.566 69.402C71.256 68.536 72.111 67.817 73.081 67.286C74.052 66.755 75.119 66.423 76.219 66.309C77.319 66.195 78.4309 66.302 79.4899 66.622C80.5489 66.943 81.533 67.472 82.385 68.177C82.859 68.55 83.392 68.973 83.906 69.427C87.752 72.63 93.028 77.022 104.043 77.918C104.919 77.989 105.815 78.019 106.701 78.019C119.498 78.019 130.452 70.635 133.503 68.379C134.931 67.306 136.671 66.73 138.457 66.737C140.208 66.737 141.914 67.289 143.334 68.315C144.753 69.341 145.813 70.789 146.363 72.452C146.912 74.116 146.924 75.91 146.396 77.58C145.867 79.25 144.826 80.712 143.42 81.756C138.124 85.624 124.059 94.669 106.681 94.669Z" fill="#1C1D21"/>
<path d="M77.1839 66.635C79.0139 66.619 80.7929 67.238 82.2179 68.388C82.7009 68.771 83.2249 69.184 83.7379 69.637C87.6149 72.871 92.9309 77.293 104.006 78.199C104.882 78.27 105.788 78.3 106.684 78.3C119.582 78.3 130.597 70.876 133.668 68.6C135.045 67.568 136.72 67.013 138.44 67.018C140.119 67.037 141.75 67.58 143.105 68.571C144.46 69.562 145.472 70.952 145.999 72.547C146.525 74.142 146.541 75.861 146.043 77.465C145.546 79.069 144.56 80.477 143.223 81.493C138.008 85.361 124.012 94.366 106.725 94.366C105.386 94.366 104.026 94.306 102.697 94.205C91.8679 93.524 81.5829 89.216 73.4989 81.977L72.2799 80.969C70.9949 79.921 70.0649 78.502 69.6159 76.905C69.1679 75.308 69.2219 73.612 69.7729 72.047C70.3239 70.483 71.3429 69.127 72.6929 68.163C74.0429 67.2 75.6569 66.677 77.3149 66.666L77.1839 66.635ZM77.3149 66.061C75.5249 66.06 73.7789 66.615 72.3189 67.651C70.8589 68.686 69.7569 70.15 69.1649 71.839C68.5729 73.529 68.5209 75.361 69.0159 77.082C69.5109 78.802 70.5289 80.326 71.9279 81.443C72.3209 81.755 72.7329 82.097 73.1759 82.45C77.7979 86.308 86.4169 93.53 102.748 94.809C104.117 94.93 105.476 94.981 106.775 94.981C124.143 94.981 138.159 86.056 143.636 81.987C145.474 80.623 146.696 78.584 147.032 76.319C147.368 74.054 146.791 71.749 145.428 69.909C144.065 68.07 142.027 66.848 139.763 66.511C137.499 66.175 135.194 66.752 133.356 68.116C130.194 70.463 119.391 77.706 106.735 77.706C105.869 77.706 104.993 77.706 104.107 77.605C93.2229 76.719 87.9969 72.357 84.1709 69.184C83.6379 68.731 83.1639 68.308 82.6509 67.925C81.1249 66.704 79.2279 66.04 77.2739 66.041L77.3149 66.061Z" fill="#111318"/>
<path d="M112.219 110.615V108.63H117.223L113.316 104.722L114.716 103.322L118.622 107.23V101.74H120.606V107.23L124.512 103.322L125.922 104.722L122.015 108.63H127.009V110.615H112.219Z" fill="#2CC995"/>
<path d="M120.305 102.043V107.955L121.312 106.948L124.483 103.765L125.49 104.772L122.319 107.955L121.312 108.963H126.739V110.363H112.522V108.983H117.949L116.942 107.976L113.791 104.722L114.797 103.715L117.979 106.898L118.986 107.905V101.992H120.365L120.305 102.043ZM120.969 101.388H118.321V106.424L114.717 102.808L112.884 104.641L116.499 108.248H111.918V110.836H127.313V108.348H122.741L126.346 104.742L124.514 102.909L120.909 106.525V101.489L120.969 101.388Z" fill="#104A37"/>
<path d="M107.664 80.5652C129.569 80.5652 147.327 62.7539 147.327 40.7826C147.327 18.8113 129.569 1 107.664 1C85.758 1 68 18.8113 68 40.7826C68 62.7539 85.758 80.5652 107.664 80.5652Z" fill="#1E8A66"/>
<path d="M107.664 80.5652C129.569 80.5652 147.327 62.7539 147.327 40.7826C147.327 18.8113 129.569 1 107.664 1C85.758 1 68 18.8113 68 40.7826C68 62.7539 85.758 80.5652 107.664 80.5652Z" stroke="#1C1D21" stroke-width="0.648529" stroke-miterlimit="10"/>
<path d="M133.977 22.129C133.734 22.1269 133.495 22.0656 133.281 21.9502C133.066 21.8349 132.883 21.669 132.747 21.4668C131.624 19.7822 130.37 18.1895 128.996 16.7038C127.371 15.1881 125.564 13.8813 123.617 12.8135C123.404 12.7504 123.207 12.6404 123.041 12.4915C122.875 12.3426 122.744 12.1586 122.658 11.9528C122.572 11.747 122.533 11.5245 122.543 11.3015C122.553 11.0786 122.612 10.8606 122.717 10.6636C122.821 10.4665 122.968 10.2952 123.147 10.1621C123.326 10.029 123.532 9.93739 123.75 9.89397C123.968 9.85056 124.193 9.85639 124.409 9.91106C124.625 9.96572 124.826 10.0678 124.997 10.21C127.226 11.4129 129.287 12.9056 131.127 14.6495C132.611 16.2658 133.964 17.9995 135.17 19.834C135.308 20.0581 135.385 20.3146 135.394 20.5779C135.402 20.8412 135.341 21.102 135.217 21.3344C135.093 21.5667 134.911 21.7624 134.688 21.9018C134.465 22.0413 134.21 22.1196 133.947 22.129H133.977Z" fill="#FAFAFA"/>
<path d="M124.307 10.2407C124.511 10.239 124.712 10.2881 124.892 10.3837C127.1 11.5804 129.143 13.0602 130.969 14.7856C132.454 16.3994 133.806 18.1306 135.013 19.9625C135.105 20.0973 135.17 20.2494 135.202 20.4098C135.234 20.5701 135.234 20.7354 135.2 20.8956C135.147 21.1336 135.026 21.351 134.852 21.5212C134.678 21.6914 134.458 21.8071 134.22 21.8542C133.981 21.9013 133.734 21.8777 133.508 21.7863C133.283 21.6949 133.089 21.5396 132.95 21.3395C131.816 19.6544 130.552 18.0617 129.169 16.5764C127.521 15.0316 125.683 13.7041 123.7 12.626C123.453 12.496 123.256 12.2865 123.142 12.0312C123.028 11.7758 123.002 11.4894 123.07 11.2178C123.137 10.9463 123.294 10.7053 123.514 10.5336C123.734 10.3619 124.006 10.2693 124.285 10.2708L124.307 10.2407ZM124.285 9.81933C123.905 9.81806 123.537 9.94446 123.237 10.1783C122.938 10.4122 122.725 10.74 122.634 11.1093C122.542 11.4786 122.577 11.868 122.732 12.2153C122.887 12.5626 123.154 12.8476 123.49 13.0248C125.431 14.0809 127.231 15.3806 128.846 16.8925C130.198 18.3685 131.432 19.9485 132.537 21.6179C132.693 21.851 132.904 22.0417 133.152 22.173C133.399 22.3043 133.675 22.3721 133.955 22.3704C134.288 22.3702 134.614 22.2735 134.893 22.092C135.267 21.8407 135.527 21.4517 135.616 21.0095C135.706 20.5672 135.619 20.1072 135.373 19.7292C134.144 17.8672 132.769 16.1059 131.262 14.462C129.406 12.6941 127.327 11.1763 125.08 9.94725C124.835 9.81727 124.562 9.75007 124.285 9.75161V9.81933Z" fill="#FAFAFA"/>
<path d="M136.294 26.4256C135.997 26.4256 135.707 26.3374 135.46 26.172C135.214 26.0066 135.021 25.7716 134.908 25.4966C134.794 25.2216 134.764 24.919 134.822 24.6271C134.88 24.3352 135.023 24.067 135.233 23.8566C135.443 23.6461 135.71 23.5028 136.001 23.4447C136.292 23.3866 136.594 23.4164 136.868 23.5303C137.142 23.6442 137.377 23.8371 137.541 24.0846C137.706 24.3321 137.794 24.623 137.794 24.9207C137.794 25.3198 137.636 25.7026 137.355 25.9848C137.073 26.2671 136.692 26.4256 136.294 26.4256Z" fill="#FAFAFA"/>
<path d="M136.295 23.6564C136.546 23.655 136.792 23.7283 137.001 23.8671C137.211 24.0059 137.374 24.204 137.471 24.4362C137.569 24.6685 137.595 24.9244 137.547 25.1716C137.499 25.4187 137.378 25.646 137.201 25.8246C137.024 26.0032 136.799 26.1251 136.552 26.1748C136.306 26.2244 136.051 26.1997 135.819 26.1037C135.587 26.0076 135.388 25.8447 135.249 25.6354C135.109 25.4261 135.034 25.1799 135.034 24.9281C135.034 24.5921 135.167 24.2698 135.403 24.0316C135.639 23.7933 135.96 23.6584 136.295 23.6564ZM136.295 23.205C135.955 23.205 135.623 23.306 135.34 23.4954C135.058 23.6847 134.838 23.9538 134.708 24.2687C134.578 24.5836 134.544 24.93 134.61 25.2643C134.676 25.5985 134.84 25.9056 135.08 26.1465C135.32 26.3875 135.626 26.5516 135.96 26.6181C136.293 26.6846 136.638 26.6505 136.952 26.5201C137.266 26.3897 137.534 26.1688 137.723 25.8854C137.912 25.6021 138.013 25.2689 138.013 24.9281C138.014 24.7015 137.97 24.477 137.884 24.2675C137.798 24.058 137.672 23.8677 137.512 23.7074C137.352 23.5472 137.162 23.4204 136.953 23.3341C136.745 23.2479 136.521 23.204 136.295 23.205Z" fill="#FAFAFA"/>
<path d="M107.5 72C123.24 72 136 59.2401 136 43.5C136 27.7599 123.24 15 107.5 15C91.7599 15 79 27.7599 79 43.5C79 59.2401 91.7599 72 107.5 72Z" fill="#27B082" stroke="#104A37" stroke-width="0.648529" stroke-linecap="round" stroke-linejoin="round"/>
<path d="M107.666 67.3906C120.291 67.3906 130.525 57.1256 130.525 44.4631C130.525 31.8006 120.291 21.5356 107.666 21.5356C95.0415 21.5356 84.8073 31.8006 84.8073 44.4631C84.8073 57.1256 95.0415 67.3906 107.666 67.3906Z" fill="#2CC995" stroke="#104A37" stroke-width="0.648529" stroke-linecap="round" stroke-linejoin="round"/>
<path d="M68.5535 49.4203C70.1911 58.6637 75.0347 67.0287 82.2278 73.0361C89.4208 79.0435 98.5001 82.3064 107.86 82.2478C117.22 82.1893 126.258 78.8131 133.376 72.7162C140.494 66.6193 145.233 58.1944 146.755 48.9312C142.322 54.7477 129.373 67.8856 121.999 67.8856C114.842 67.8856 118.555 60.1955 107.632 60.1955C98.5694 60.1955 99.1771 66.9676 93.8131 66.9676C88.7942 66.93 78.6138 63.3333 68.5535 49.4203Z" fill="#2CC995" stroke="#104A37" stroke-width="0.648529" stroke-linecap="round" stroke-linejoin="round"/>
<path d="M107.671 78.1041C111.238 78.1041 114.13 75.2035 114.13 71.6254C114.13 68.0473 111.238 65.1467 107.671 65.1467C104.104 65.1467 101.212 68.0473 101.212 71.6254C101.212 75.2035 104.104 78.1041 107.671 78.1041Z" fill="#1C1D21" stroke="#111318" stroke-width="0.648529" stroke-linecap="round" stroke-linejoin="round"/>
<path d="M148.728 100.37C148.21 100.368 147.692 100.331 147.178 100.259C144.433 99.8841 141.934 98.4781 140.187 96.3281C138.44 94.1781 137.575 91.443 137.769 88.679C137.962 85.914 139.199 83.327 141.228 81.441C143.258 79.555 145.928 78.5111 148.698 78.5221C149.22 78.5231 149.742 78.5601 150.259 78.6331C153.004 79.0081 155.504 80.414 157.251 82.566C158.999 84.717 159.863 87.453 159.668 90.218C159.473 92.983 158.234 95.571 156.203 97.456C154.171 99.342 151.499 100.383 148.728 100.37Z" fill="#2CC995"/>
<path d="M148.699 78.825C149.204 78.826 149.709 78.8629 150.209 78.9359C151.589 79.1309 152.918 79.596 154.118 80.306C155.318 81.015 156.367 81.954 157.204 83.069C158.041 84.185 158.65 85.454 158.996 86.805C159.342 88.156 159.418 89.562 159.22 90.943C158.854 93.469 157.593 95.7789 155.668 97.4539C153.743 99.1289 151.28 100.057 148.729 100.069C148.224 100.067 147.719 100.03 147.219 99.9579C144.52 99.6269 142.052 98.2719 140.322 96.1729C138.592 94.0749 137.734 91.392 137.924 88.679C138.114 85.965 139.337 83.428 141.342 81.591C143.347 79.754 145.981 78.756 148.699 78.805V78.825ZM148.699 78.2C145.861 78.201 143.128 79.278 141.052 81.214C138.976 83.15 137.711 85.802 137.512 88.634C137.313 91.466 138.194 94.269 139.979 96.477C141.763 98.685 144.318 100.134 147.128 100.532C147.658 100.612 148.193 100.652 148.729 100.653C151.558 100.635 154.276 99.5499 156.339 97.6129C158.402 95.6769 159.659 93.033 159.857 90.21C160.056 87.387 159.182 84.593 157.41 82.386C155.638 80.18 153.098 78.7249 150.3 78.3109C149.769 78.2389 149.234 78.202 148.699 78.2Z" fill="#104A37"/>
<path d="M139.414 87.547C139.818 89.458 140.798 91.199 142.222 92.536C143.646 93.872 145.446 94.74 147.378 95.021C147.825 95.081 148.276 95.112 148.727 95.111C150.908 95.1 153.02 94.341 154.709 92.961C156.398 91.58 157.564 89.662 158.011 87.527C158.294 88.906 158.268 90.331 157.933 91.699C157.598 93.067 156.963 94.344 156.075 95.436C155.186 96.528 154.066 97.409 152.795 98.015C151.525 98.621 150.135 98.937 148.727 98.939C148.276 98.939 147.825 98.909 147.378 98.849C144.888 98.487 142.642 97.153 141.132 95.139C139.623 93.124 138.972 90.594 139.323 88.101C139.344 87.919 139.374 87.728 139.414 87.547Z" fill="#27B082"/>
<path d="M73.277 155.278C73.277 155.278 95.136 158.541 108.114 158.541C121.092 158.541 143.293 156.285 143.293 156.285" stroke="#104A37" stroke-width="0.679286" stroke-linecap="round" stroke-linejoin="round"/>
<path d="M108.111 164.233C94.871 164.233 73.344 161.05 72.428 160.909C71.006 160.7 69.715 159.96 68.816 158.837C67.917 157.715 67.476 156.294 67.582 154.859C67.688 153.425 68.333 152.084 69.387 151.105C70.441 150.127 71.826 149.585 73.264 149.587C73.547 149.587 73.829 149.608 74.11 149.648C74.321 149.648 95.646 152.851 108.111 152.851C120.576 152.851 142.505 150.655 142.716 150.655H143.3C144.756 150.66 146.155 151.224 147.208 152.23C148.261 153.237 148.888 154.609 148.961 156.064C149.033 157.519 148.545 158.946 147.597 160.052C146.648 161.157 145.313 161.857 143.864 162.007C142.988 162.037 121.2 164.233 108.111 164.233Z" fill="#1C1D21"/>
<path d="M73.266 149.889C73.532 149.889 73.798 149.909 74.062 149.949C74.283 149.949 95.669 153.152 108.113 153.152C120.558 153.152 141.853 151.017 142.749 150.926H143.303C144.679 150.935 145.999 151.471 146.993 152.423C147.987 153.376 148.579 154.673 148.648 156.048C148.716 157.423 148.255 158.772 147.361 159.818C146.466 160.865 145.205 161.529 143.836 161.674C142.92 161.775 121.232 163.961 108.113 163.961C94.994 163.961 73.387 160.727 72.511 160.606C71.169 160.404 69.953 159.702 69.106 158.641C68.259 157.58 67.844 156.238 67.943 154.884C68.042 153.53 68.649 152.263 69.641 151.337C70.634 150.411 71.939 149.893 73.296 149.889H73.266ZM73.296 149.284C71.851 149.39 70.491 150.012 69.466 151.037C68.44 152.063 67.818 153.423 67.711 154.869C67.605 156.316 68.022 157.752 68.887 158.916C69.751 160.08 71.006 160.895 72.42 161.211C73.327 161.342 94.873 164.535 108.143 164.535C121.414 164.535 143.011 162.339 143.927 162.248C145.358 161.975 146.643 161.193 147.544 160.047C148.445 158.901 148.901 157.468 148.829 156.011C148.756 154.555 148.16 153.174 147.15 152.123C146.14 151.072 144.784 150.421 143.333 150.292H142.719C142.507 150.292 120.659 152.518 108.143 152.518C95.628 152.518 74.404 149.355 74.182 149.325C73.89 149.277 73.593 149.253 73.296 149.254V149.284Z" fill="#111318"/>
</svg>
