<svg viewBox="0 0 343 411" fill="none" xmlns="http://www.w3.org/2000/svg">
<path d="M172.026 314L345 314L345 225C292.393 314.331 172.834 309.552 172.834 309.552L172 309.221L172 308.69L172 311.005L172 311.667L172.026 314Z" fill="#F7CA60"/>
<path d="M171.192 310.955C171.192 310.955 51.6148 315.742 -1.00001 226.282L-1 0C25.2848 351.172 172 308.287 172 308.287L172 310.999L171.192 310.955Z" fill="#3B74F7"/>
<path d="M172.808 310.955C172.808 310.955 292.385 315.742 345 226.282L345 0C312.004 350.793 172 308.287 172 308.287L172 310.999L172.808 310.955Z" fill="#3B74F7"/>
<path d="M172.026 315L345 315L345 282C284.143 313.573 186.114 312.895 172 312.619L172.026 315Z" fill="#DD3F7D"/>
<path d="M172.026 315L345 315L345 404C292.393 314.704 172.834 319.481 172.834 319.481L172 319.82L172 320.351L172 318.028L172 317.393L172.026 315Z" fill="#F7CA60"/>
<path d="M172.808 318.045C172.808 318.045 292.385 313.246 345 402.942L345 465L317.011 465C280.913 308.098 172 320.719 172 320.719L172 318.01L172.808 318.045Z" fill="#3B74F7"/>
<path d="M172.026 315L345 315L345 347C284.143 316.375 186.114 317.041 172 317.301L172.026 315Z" fill="#DD3F7D"/>
<path d="M171.974 314L-1.00001 314L-1 225C51.53 314.331 171.153 309.552 171.153 309.552L172 309.221L172 308.69L172 311.005L172 314L171.974 314Z" fill="#F7CA60"/>
<path d="M171.987 315L-0.999987 315L-0.999985 282C59.8618 313.573 157.898 312.895 172 312.619L171.987 315Z" fill="#DD3F7D"/>
<path d="M171.974 315L-1 315L-1.00001 404C51.53 314.704 171.153 319.481 171.153 319.481L172 319.82L172 320.351L172 318.028L172 315.043L171.974 315Z" fill="#F7CA60"/>
<path d="M171.179 318.045C171.179 318.045 51.5378 313.246 -0.99999 402.942L-0.999994 465L26.9885 465C63.0874 308.098 172 320.719 172 320.719L172 318.01L171.179 318.045Z" fill="#3B74F7"/>
<path d="M171.987 315L-0.999985 315L-0.999987 347C59.8875 316.41 157.898 317.076 172 317.335L171.987 315Z" fill="#DD3F7D"/>
<path d="M274 319.321V354H67V319.321H128.506L80.0467 271.03L104.653 246.505L153.112 294.805V227H187.897V294.805L236.356 246.505L260.953 271.03L212.494 319.321H274Z" fill="#2CC995" stroke="#104A37" stroke-width="0.594915" stroke-miterlimit="10"/>
</svg>
