<svg width="612" height="308" viewBox="0 0 612 308" fill="none" xmlns="http://www.w3.org/2000/svg">
<path d="M414.122 154.671V0H296.727C414.558 47.0404 408.255 153.948 408.255 153.948L407.818 154.694H407.118H410.172H411.045L414.122 154.671Z" fill="#F7CA60"/>
<path d="M410.033 154.052C410.033 154.052 416.337 260.96 298.517 308H0.5C463 284.5 406.52 153.329 406.52 153.329H410.091L410.033 154.052Z" fill="#3B74F7"/>
<path d="M410.033 153.948C410.033 153.948 416.337 47.0404 298.517 0H0.5C462.5 29.5 406.52 154.671 406.52 154.671H410.091L410.033 153.948Z" fill="#3B74F7"/>
<path d="M415.305 154.671V0H532.758C414.914 47.0404 421.218 153.948 421.218 153.948L421.666 154.694H422.366H419.301H418.462L415.305 154.671Z" fill="#F7CA60"/>
<path d="M419.387 153.948C419.387 153.948 413.083 47.0404 530.915 0H612.44V25.0232C406.32 57.2975 422.901 154.671 422.901 154.671H419.341L419.387 153.948Z" fill="#3B74F7"/>
<path fill-rule="evenodd" clip-rule="evenodd" d="M414.707 154.671H414.707L411.642 154.694C411.998 142.074 412.87 54.4177 372.223 0H414.707H414.707H457.192C416.533 54.4177 417.417 142.074 417.761 154.694L414.707 154.671Z" fill="#DD3F7D"/>
<path d="M414.122 153.329V308H296.727C414.558 261.028 408.255 154.063 408.255 154.063L407.818 153.306H407.118H410.172H414.122V153.329Z" fill="#F7CA60"/>
<path d="M415.305 153.329V308H532.758C414.914 261.028 421.218 154.063 421.218 154.063L421.666 153.306H422.366H419.301H415.362L415.305 153.329Z" fill="#F7CA60"/>
<path d="M419.387 154.063C419.387 154.063 413.083 261.029 530.915 308H612.44V282.977C406.32 250.703 422.901 153.329 422.901 153.329H419.341L419.387 154.063Z" fill="#3B74F7"/>
<path fill-rule="evenodd" clip-rule="evenodd" d="M414.707 153.328L417.807 153.316C417.463 165.926 416.579 253.558 457.192 307.999H414.707H414.707H372.223C412.87 253.581 411.998 165.926 411.642 153.316L414.707 153.328H414.707Z" fill="#DD3F7D"/>
<path d="M547.922 186.097V230.648H282.668V186.097H361.483L299.386 124.061L330.917 92.5557L393.013 154.603V67.498H437.588V154.603L499.684 92.5557L531.203 124.061L469.107 186.097H547.922Z" fill="#2CC995" stroke="#104A37" stroke-width="0.783051" stroke-miterlimit="10"/>
</svg>
