<svg viewBox="0 0 560 582" fill="none" xmlns="http://www.w3.org/2000/svg">
<g clip-path="url(#clip0_2102_263)">
<path d="M465.317 74.9727H60.8349V479.743H465.317V74.9727Z" fill="#9E2E5B" stroke="#9E2E5B" stroke-width="0.6" stroke-miterlimit="10"/>
<path d="M465.317 143.137V411.579L411.408 425.806L397.204 479.743H128.949L114.733 425.806L60.8349 411.579V143.137L114.733 128.921L128.949 74.9727H397.204L411.408 128.921L465.317 143.137Z" fill="#C43971" stroke="#9E2E5B" stroke-width="0.6" stroke-miterlimit="10"/>
<path d="M465.317 235.851V318.875L338.087 352.431L304.547 479.743H221.595L188.064 352.431L60.8349 318.875V235.851L188.064 202.296L221.595 74.9727H304.547L338.087 202.296L465.317 235.851Z" fill="#DD3F7D" stroke="#9E2E5B" stroke-width="0.6" stroke-miterlimit="10"/>
<path d="M224.717 315.738L79.2025 277.357L224.717 238.978L263.067 93.356L301.419 238.978L446.933 277.357L301.419 315.738L263.067 461.369L224.717 315.738Z" fill="#EB4487" stroke="#9E2E5B" stroke-width="0.6" stroke-miterlimit="10"/>
<path d="M257.229 281.689L147.576 41.4605C146.25 38.5597 146.131 35.2506 147.243 32.2613C148.356 29.272 150.61 26.8475 153.508 25.5209C156.407 24.1944 159.713 24.0747 162.7 25.188C165.687 26.3012 168.11 28.5564 169.436 31.4573C169.565 31.7367 169.683 32.0376 169.79 32.3169L260.772 280.227C260.86 280.463 260.9 280.715 260.89 280.966C260.88 281.218 260.82 281.466 260.715 281.694C260.609 281.923 260.459 282.128 260.274 282.299C260.088 282.469 259.871 282.602 259.635 282.687C259.181 282.851 258.683 282.839 258.238 282.655C257.793 282.469 257.434 282.125 257.229 281.689Z" fill="#F7CA60"/>
<path d="M257.379 282.494L37.6421 67.6022C36.3281 66.3167 35.2798 64.7849 34.5574 63.0941C33.8349 61.4032 33.4522 59.5866 33.4313 57.7477C33.4104 55.9089 33.7515 54.084 34.4354 52.3772C35.1192 50.6703 36.1322 49.1149 37.4167 47.7999C38.7012 46.4848 40.2319 45.4358 41.9215 44.7128C43.6111 43.9898 45.4264 43.6068 47.2638 43.5859C49.1013 43.5649 50.9249 43.9064 52.6305 44.5907C54.3361 45.275 55.8902 46.2888 57.2044 47.5742C57.4649 47.8187 57.7122 48.0769 57.9451 48.3479L260.621 279.422C260.815 279.641 260.963 279.897 261.058 280.175C261.153 280.452 261.193 280.745 261.173 281.038C261.154 281.331 261.077 281.616 260.948 281.879C260.818 282.142 260.637 282.376 260.417 282.569C259.993 282.938 259.445 283.135 258.883 283.121C258.321 283.107 257.785 282.884 257.379 282.494Z" fill="#EB4487"/>
<path d="M257.122 282.494L8.47222 248.111C5.89375 247.755 3.5623 246.388 1.99076 244.311C0.419214 242.235 -0.263706 239.619 0.0922362 237.039C0.448178 234.458 1.81382 232.125 3.88875 230.552C5.96367 228.979 8.57791 228.296 11.1564 228.653L11.7898 228.76L257.659 279.367C258.045 279.462 258.381 279.7 258.598 280.032C258.815 280.365 258.898 280.768 258.83 281.16C258.762 281.551 258.547 281.902 258.23 282.142C257.913 282.382 257.518 282.492 257.122 282.451V282.494Z" fill="#F7CA60"/>
<path d="M258.753 282.558L45.0076 476.176C42.4249 478.515 39.0193 479.732 35.5399 479.559C32.0606 479.386 28.7925 477.836 26.4547 475.252C24.1169 472.667 22.9008 469.259 23.0739 465.777C23.2471 462.295 24.7953 459.025 27.3781 456.685L28.1511 456.04L256.047 279.346C256.482 279.121 256.979 279.051 257.459 279.149C257.937 279.246 258.369 279.503 258.682 279.879C258.995 280.255 259.17 280.726 259.179 281.215C259.188 281.704 259.03 282.181 258.731 282.569L258.753 282.558Z" fill="#3B74F7"/>
<path d="M234.781 287.319L121.327 450.433C120.726 451.452 119.921 452.337 118.963 453.031C118.005 453.726 116.914 454.214 115.758 454.467C114.603 454.719 113.407 454.73 112.247 454.499C111.087 454.267 109.987 453.799 109.016 453.121C108.046 452.445 107.225 451.574 106.606 450.566C105.988 449.557 105.584 448.431 105.42 447.258C105.256 446.086 105.336 444.893 105.655 443.753C105.973 442.613 106.524 441.55 107.272 440.633C107.379 440.472 107.519 440.301 107.648 440.139L232.601 285.707C232.835 285.473 233.145 285.331 233.475 285.31C233.805 285.287 234.132 285.386 234.395 285.587C234.658 285.788 234.838 286.078 234.903 286.402C234.968 286.727 234.913 287.064 234.749 287.351L234.781 287.319Z" fill="#3B74F7"/>
<path d="M261.085 281.14L246.762 569.289C246.676 571.012 246.252 572.702 245.513 574.261C244.775 575.821 243.737 577.219 242.458 578.378C241.179 579.535 239.686 580.43 238.062 581.01C236.437 581.59 234.715 581.844 232.993 581.758C231.27 581.672 229.582 581.247 228.024 580.508C226.465 579.769 225.068 578.73 223.911 577.45C222.754 576.171 221.86 574.675 221.28 573.05C220.701 571.425 220.447 569.701 220.533 567.978C220.533 567.656 220.533 567.301 220.618 566.979L256.919 280.775C256.994 280.243 257.268 279.76 257.689 279.426C258.109 279.091 258.641 278.931 259.175 278.977C259.71 279.024 260.206 279.275 260.561 279.677C260.917 280.08 261.105 280.603 261.085 281.14Z" fill="#F7CA60"/>
<path d="M260.72 279.604L454.162 493.497C456.5 496.08 457.717 499.486 457.544 502.968C457.372 506.449 455.825 509.719 453.244 512.058C450.663 514.398 447.258 515.615 443.78 515.443C440.301 515.271 437.034 513.722 434.696 511.139C434.471 510.892 434.245 510.613 434.052 510.366L257.509 282.3C257.28 281.866 257.206 281.365 257.301 280.882C257.395 280.4 257.653 279.964 258.03 279.649C258.407 279.333 258.881 279.156 259.372 279.148C259.864 279.14 260.343 279.301 260.73 279.604H260.72Z" fill="#3B74F7"/>
<path d="M259.289 278.862L547.225 293.206C548.949 293.288 550.641 293.709 552.202 294.446C553.764 295.184 555.165 296.221 556.326 297.501C557.486 298.78 558.383 300.277 558.965 301.904C559.547 303.531 559.803 305.256 559.717 306.982C559.632 308.708 559.207 310.399 558.467 311.961C557.727 313.522 556.687 314.923 555.407 316.081C554.125 317.24 552.628 318.134 551.002 318.713C549.374 319.292 547.65 319.544 545.925 319.455C545.593 319.455 545.238 319.401 544.916 319.358L258.924 283.02C258.458 282.873 258.056 282.571 257.785 282.164C257.513 281.758 257.388 281.271 257.431 280.784C257.474 280.297 257.681 279.839 258.019 279.485C258.357 279.132 258.805 278.904 259.289 278.84V278.862Z" fill="#EB4487"/>
<path d="M282.601 276.573L487.671 317.081C488.93 317.252 490.141 317.679 491.229 318.337C492.317 318.993 493.259 319.866 493.998 320.901C494.736 321.936 495.256 323.111 495.524 324.354C495.793 325.597 495.804 326.882 495.557 328.13C495.311 329.378 494.812 330.562 494.091 331.609C493.37 332.656 492.444 333.546 491.368 334.222C490.291 334.897 489.088 335.346 487.831 335.539C486.575 335.733 485.293 335.667 484.064 335.346C483.838 335.346 483.602 335.25 483.376 335.185L281.946 279.42C281.563 279.329 281.232 279.09 281.026 278.754C280.819 278.418 280.754 278.015 280.845 277.632C280.936 277.248 281.176 276.917 281.511 276.71C281.846 276.504 282.25 276.439 282.633 276.53L282.601 276.573Z" fill="#EB4487"/>
<path d="M245.545 268.579L90.3685 151.817C88.6757 150.548 87.5565 148.658 87.2561 146.562C86.9558 144.466 87.5006 142.337 88.7692 140.643C90.0378 138.949 91.9263 137.828 94.0209 137.529C96.1147 137.228 98.2421 137.772 99.9348 139.042L100.365 139.386L247.145 266.602C247.407 266.814 247.574 267.122 247.609 267.458C247.645 267.793 247.546 268.129 247.333 268.391C247.121 268.653 246.813 268.82 246.478 268.856C246.143 268.891 245.807 268.791 245.545 268.579Z" fill="#EB4487"/>
<path d="M255.88 280.151L490.509 68.182C493.342 65.6172 497.077 64.2839 500.892 64.4754C504.709 64.6668 508.291 66.3673 510.854 69.2026C513.417 72.038 514.749 75.7761 514.559 79.5946C514.367 83.4131 512.668 86.9986 509.834 89.5641C509.566 89.8111 509.265 90.0581 508.986 90.2732L258.822 283.675C258.352 284.028 257.763 284.187 257.179 284.118C256.595 284.05 256.059 283.76 255.682 283.309C255.305 282.857 255.116 282.278 255.152 281.69C255.189 281.104 255.45 280.552 255.88 280.151Z" fill="#F7CA60"/>
<path d="M257.121 276.993L390.814 6.88397C392.487 3.88097 395.249 1.63529 398.528 0.610242C401.808 -0.414804 405.356 -0.141011 408.44 1.37514C411.523 2.89128 413.908 5.5341 415.101 8.75838C416.295 11.9826 416.206 15.5423 414.854 18.7031C414.704 18.9931 414.542 19.3154 414.37 19.5841L260.901 279.034C260.603 279.478 260.15 279.796 259.631 279.924C259.111 280.052 258.563 279.98 258.093 279.725C257.623 279.47 257.265 279.048 257.09 278.543C256.914 278.038 256.933 277.484 257.143 276.993H257.121Z" fill="#3B74F7"/>
<path d="M277.962 328.513L316.871 452.013C317.434 454.052 317.185 456.231 316.175 458.089C315.164 459.948 313.473 461.342 311.456 461.977C309.439 462.613 307.255 462.439 305.363 461.494C303.47 460.549 302.019 458.906 301.314 456.912C301.227 456.64 301.155 456.364 301.099 456.084L275.45 329.223C275.377 328.895 275.435 328.551 275.61 328.265C275.786 327.978 276.066 327.771 276.391 327.686C276.716 327.601 277.061 327.645 277.353 327.81C277.647 327.974 277.865 328.246 277.962 328.568V328.513Z" fill="#FAFAFA"/>
<path d="M396.808 339.354L472.243 396.913C473.439 397.825 474.224 399.175 474.425 400.666C474.627 402.157 474.228 403.667 473.317 404.864C472.405 406.061 471.057 406.847 469.567 407.048C468.076 407.25 466.568 406.851 465.371 405.939L464.931 405.563L395.637 340.73C395.455 340.574 395.342 340.353 395.322 340.114C395.303 339.875 395.38 339.639 395.535 339.456C395.69 339.274 395.911 339.161 396.15 339.141C396.389 339.123 396.625 339.199 396.808 339.354Z" fill="#FAFAFA"/>
<path d="M374.71 256.922L472.725 221.303C474.251 220.748 475.936 220.822 477.408 221.509C478.88 222.196 480.018 223.44 480.574 224.967C481.13 226.495 481.055 228.18 480.369 229.653C479.682 231.126 478.439 232.266 476.912 232.822C476.722 232.889 476.529 232.946 476.333 232.993L375.28 258.781C375.035 258.846 374.774 258.814 374.553 258.691C374.332 258.568 374.166 258.363 374.093 258.121C374.019 257.879 374.042 257.617 374.157 257.391C374.273 257.165 374.471 256.993 374.71 256.911V256.922Z" fill="#FAFAFA"/>
<path d="M138.922 232.972L31.0082 176.982C29.9537 176.471 29.0122 175.753 28.2396 174.871C27.4669 173.989 26.8786 172.961 26.5094 171.848C26.1403 170.735 25.9977 169.559 26.0901 168.391C26.1826 167.221 26.5081 166.083 27.0477 165.042C27.5872 164 28.3298 163.078 29.2314 162.329C30.133 161.58 31.1755 161.019 32.2974 160.68C33.4191 160.341 34.5975 160.23 35.7628 160.354C36.9281 160.478 38.0568 160.834 39.0822 161.403C39.396 161.568 39.7007 161.751 39.9948 161.95L140.35 230.576C140.648 230.775 140.857 231.081 140.935 231.43C141.015 231.779 140.956 232.145 140.772 232.452C140.59 232.76 140.296 232.986 139.951 233.082C139.607 233.179 139.239 233.14 138.922 232.972Z" fill="#FAFAFA"/>
<path d="M140.016 321.411L90.1017 358.813C89.6152 359.178 89.0616 359.443 88.4728 359.594C87.8841 359.744 87.2713 359.777 86.669 359.691C85.4539 359.517 84.3579 358.866 83.6221 357.884C82.8856 356.9 82.57 355.665 82.7442 354.448C82.9184 353.232 83.5686 352.136 84.5504 351.399C84.7046 351.282 84.866 351.174 85.0337 351.076L139.211 320.175C139.374 320.091 139.562 320.07 139.74 320.117C139.918 320.164 140.071 320.275 140.172 320.429C140.272 320.583 140.312 320.768 140.283 320.95C140.254 321.131 140.159 321.295 140.016 321.411Z" fill="#FAFAFA"/>
<path d="M277.341 328.47L312.075 380.303C312.758 381.323 313.009 382.572 312.771 383.778C312.534 384.983 311.827 386.043 310.808 386.728C309.789 387.411 308.539 387.662 307.335 387.424C306.131 387.187 305.071 386.48 304.388 385.46C304.277 385.304 304.18 385.138 304.098 384.966L276.075 329.223C276.026 329.139 275.995 329.047 275.981 328.951C275.968 328.856 275.974 328.759 275.999 328.665C276.023 328.573 276.066 328.485 276.124 328.408C276.182 328.331 276.255 328.266 276.338 328.218C276.421 328.169 276.513 328.138 276.609 328.124C276.704 328.111 276.801 328.117 276.894 328.142C276.988 328.166 277.075 328.209 277.152 328.266C277.229 328.325 277.293 328.397 277.341 328.481V328.47Z" fill="#FAFAFA"/>
<path d="M262.383 158.899L262.275 36.7646C262.275 35.6248 262.728 34.5316 263.533 33.7256C264.338 32.9196 265.431 32.4668 266.57 32.4668C267.709 32.4668 268.802 32.9196 269.607 33.7256C270.412 34.5316 270.864 35.6248 270.864 36.7646V36.9688L263.746 158.899C263.735 159.079 263.654 159.248 263.519 159.369C263.385 159.49 263.207 159.552 263.027 159.543C262.86 159.531 262.703 159.459 262.585 159.341C262.467 159.223 262.395 159.065 262.383 158.899Z" fill="#FAFAFA"/>
<path d="M225.967 331.661L154.761 505.433C154.426 506.589 153.851 507.661 153.074 508.581C152.298 509.5 151.337 510.246 150.255 510.77C149.172 511.294 147.991 511.585 146.789 511.623C145.586 511.662 144.39 511.448 143.276 510.994C142.162 510.539 141.155 509.857 140.322 508.989C139.488 508.121 138.846 507.088 138.437 505.956C138.028 504.824 137.861 503.619 137.947 502.418C138.032 501.218 138.37 500.048 138.936 498.987C139.021 498.793 139.118 498.578 139.215 498.395L223.487 330.543C223.657 330.26 223.925 330.049 224.239 329.948C224.554 329.848 224.893 329.864 225.196 329.995C225.499 330.127 225.744 330.363 225.886 330.661C226.027 330.96 226.056 331.299 225.967 331.618V331.661Z" fill="#FAFAFA"/>
<path d="M267.567 267.849L438.667 155.524C439.666 154.845 440.79 154.371 441.974 154.13C443.159 153.889 444.379 153.887 445.564 154.124C446.749 154.359 447.875 154.829 448.877 155.506C449.879 156.182 450.736 157.051 451.399 158.062C452.061 159.074 452.516 160.207 452.737 161.395C452.958 162.585 452.939 163.806 452.684 164.987C452.428 166.17 451.94 167.288 451.247 168.279C450.556 169.271 449.673 170.114 448.652 170.76C448.465 170.885 448.271 171 448.072 171.104L269.07 270.331C268.742 270.53 268.347 270.591 267.973 270.499C267.6 270.407 267.278 270.171 267.078 269.842C266.88 269.512 266.819 269.117 266.911 268.744C267.002 268.37 267.238 268.048 267.567 267.849Z" fill="#F7CA60"/>
<path d="M139.879 321.572L41.8742 358.297C41.2426 358.537 40.5697 358.65 39.8944 358.63C39.2189 358.609 38.5543 358.454 37.9385 358.176C37.3227 357.898 36.7679 357.501 36.3059 357.007C35.8438 356.514 35.4838 355.934 35.2463 355.301C35.0088 354.668 34.8985 353.994 34.922 353.318C34.9453 352.642 35.1018 351.978 35.3824 351.363C35.6631 350.748 36.0623 350.194 36.5572 349.734C37.0522 349.274 37.6331 348.915 38.2667 348.68L38.6532 348.562L139.32 320.035C139.424 320.006 139.532 319.997 139.639 320.01C139.746 320.022 139.849 320.057 139.943 320.11C140.037 320.162 140.12 320.233 140.185 320.318C140.252 320.404 140.3 320.5 140.329 320.604C140.38 320.793 140.363 320.994 140.28 321.17C140.198 321.348 140.055 321.489 139.879 321.572Z" fill="#FAFAFA"/>
<path d="M180.437 180.324L203.972 194.227L171.58 225.279L148.045 211.375L180.437 180.324Z" fill="#104A37"/>
<path d="M124.962 273.695L148.497 287.598L143.161 331.511L119.626 317.608L124.962 273.695Z" fill="#104A37"/>
<path d="M148.045 211.375L171.58 225.28L221.462 287.598L197.916 273.694L148.045 211.375Z" fill="#104A37"/>
<path d="M197.917 273.695L221.463 287.598H148.497L124.962 273.695H197.917Z" fill="#104A37"/>
<path d="M180.439 180.324L203.974 194.227L253.857 256.556L230.311 242.653L180.439 180.324Z" fill="#2CC995"/>
<path d="M180.545 179.442L204.08 193.346L253.458 255.052L229.912 241.149L180.545 179.442Z" fill="#104A37"/>
<path d="M281.408 155.16L304.943 169.063H264.488L240.953 155.16H281.408Z" fill="#104A37"/>
<path d="M240.952 155.16L264.486 169.063L253.857 256.556L230.312 242.653L240.952 155.16Z" fill="#104A37"/>
<path d="M281.406 155.16L304.941 169.063L294.312 256.556L270.766 242.653L281.406 155.16Z" fill="#2CC995"/>
<path d="M282.063 154.537L305.599 168.44L295.076 255.053L271.531 241.149L282.063 154.537Z" fill="#104A37"/>
<path d="M335.798 180.324L359.344 194.227L294.312 256.556L270.766 242.653L335.798 180.324Z" fill="#104A37"/>
<path d="M335.799 180.324L359.344 194.227L384.178 225.279L360.632 211.375L335.799 180.324Z" fill="#2CC995"/>
<path d="M360.634 211.375L384.178 225.28L319.146 287.598L295.612 273.694L360.634 211.375Z" fill="#2CC995"/>
<path d="M335.904 179.442L359.45 193.346L384.992 225.279L361.447 211.376L335.904 179.442Z" fill="#104A37"/>
<path d="M361.449 211.375L384.995 225.28L320.608 286.986L297.072 273.071L361.449 211.375Z" fill="#104A37"/>
<path d="M368.578 273.695L392.113 287.598H319.146L295.612 273.695H368.578Z" fill="#104A37"/>
<path d="M363.24 317.607L386.775 331.511H143.161L119.626 317.607H363.24Z" fill="#2CC995"/>
<path d="M281.406 155.16L270.766 242.653L335.798 180.323L360.631 211.375L295.61 273.694H368.577L363.24 317.607H119.626L124.962 273.694H197.917L148.046 211.375L180.438 180.323L230.31 242.653L240.95 155.16H281.406Z" fill="#2CC995"/>
<path d="M297.072 273.072H369.221L363.735 318.199H118.94L124.426 273.072H196.576L147.187 211.376L180.471 179.443L229.86 241.149L240.5 154.537H282.115L271.529 241.117L335.949 179.41L361.491 211.344L297.072 273.072ZM363.241 317.607L368.609 273.694H295.6L360.622 211.376L335.788 180.324L270.756 242.643L281.407 155.16H240.951L230.311 242.653L180.439 180.335L148.047 211.387L197.918 273.706H124.963L119.595 317.619H363.209" fill="#104A37"/>
<path d="M368.577 273.695L392.111 287.598L386.775 331.511L363.24 317.608L368.577 273.695Z" fill="#2CC995"/>
<path d="M369.218 273.072L392.753 286.986L387.267 332.124L363.721 318.221L369.218 273.072Z" fill="#104A37"/>
<path d="M363.727 318.22L387.272 332.123H142.52L118.974 318.22H363.727Z" fill="#104A37"/>
<path d="M351.618 216.199L346.754 197.707L328.265 192.83L346.754 187.962L351.618 169.46L356.492 187.962L374.97 192.83L356.492 197.707L351.618 216.199Z" fill="white"/>
<path d="M491.149 227.148C493.894 227.148 496.119 224.921 496.119 222.173C496.119 219.426 493.894 217.199 491.149 217.199C488.403 217.199 486.177 219.426 486.177 222.173C486.177 224.921 488.403 227.148 491.149 227.148Z" fill="white"/>
<path d="M508.896 344.511C513.96 344.511 518.065 340.403 518.065 335.335C518.065 330.268 513.96 326.159 508.896 326.159C503.832 326.159 499.727 330.268 499.727 335.335C499.727 340.403 503.832 344.511 508.896 344.511Z" fill="#EB4487"/>
<path d="M146.984 22.4106C152.048 22.4106 156.154 18.3024 156.154 13.2347C156.154 8.16701 152.048 4.05884 146.984 4.05884C141.92 4.05884 137.816 8.16701 137.816 13.2347C137.816 18.3024 141.92 22.4106 146.984 22.4106Z" fill="#F7CA60"/>
<path d="M10.1365 498.095C15.2004 498.095 19.3055 493.988 19.3055 488.92C19.3055 483.852 15.2004 479.744 10.1365 479.744C5.07251 479.744 0.96737 483.852 0.96737 488.92C0.96737 493.988 5.07251 498.095 10.1365 498.095Z" fill="#3B74F7"/>
<path d="M492.9 348.433C495.07 348.433 496.829 346.673 496.829 344.501C496.829 342.329 495.07 340.568 492.9 340.568C490.729 340.568 488.97 342.329 488.97 344.501C488.97 346.673 490.729 348.433 492.9 348.433Z" fill="#EB4487"/>
<path d="M314.09 400.072C317.013 400.072 319.383 397.701 319.383 394.776C319.383 391.85 317.013 389.479 314.09 389.479C311.166 389.479 308.796 391.85 308.796 394.776C308.796 397.701 311.166 400.072 314.09 400.072Z" fill="#FAFAFA"/>
</g>
<defs>
<clipPath id="clip0_2102_263">
<rect width="560" height="582" fill="white"/>
</clipPath>
</defs>
</svg>
