<svg width="189" height="40" viewBox="0 0 189 40" fill="none" xmlns="http://www.w3.org/2000/svg">
<g clip-path="url(#clip0_878_215)">
<path d="M50 19.8658C50 13.8525 54.3778 9.58496 60.3355 9.58496C63.8245 9.58496 66.5895 10.9151 68.4327 13.3121L65.0358 16.5127C64.517 15.7936 63.847 15.2105 63.0784 14.8091C62.3098 14.4077 61.4634 14.1988 60.6054 14.1988C57.5179 14.1988 55.3718 16.4573 55.3718 19.845C55.3718 23.2326 57.5179 25.498 60.6383 25.498C61.4964 25.498 62.3428 25.2892 63.1114 24.8878C63.8799 24.4864 64.5499 23.9033 65.0688 23.1842L68.4327 26.4263C66.6026 28.8233 63.8245 30.1535 60.3487 30.1535C54.3778 30.1535 50 25.886 50 19.8658Z" fill="#2CC995"/>
<path d="M84.841 25.9133H76.8952L75.4206 29.7582H69.9961L78.3106 9.97949H83.5771L91.852 29.7582H86.3222L84.841 25.9133ZM83.2874 21.7913L80.8714 15.4593L78.4554 21.7913H83.2874Z" fill="#2CC995"/>
<path d="M96.081 14.434H90.2812V9.97949H107.114V14.434H101.347V29.7582H96.081V14.434Z" fill="#2CC995"/>
<path d="M120.751 25.9133H112.805L111.331 29.7582H105.906L114.201 9.97949H119.467L127.789 29.7582H122.259L120.751 25.9133ZM119.198 21.7913L116.775 15.4593L114.359 21.7913H119.198Z" fill="#2CC995"/>
<path d="M130.518 9.97949H135.837V25.3245H144.797V29.7582H130.512L130.518 9.97949Z" fill="#2CC995"/>
<path d="M146.527 19.8658C146.527 13.9356 150.958 9.58496 156.975 9.58496C162.992 9.58496 167.416 13.9356 167.416 19.8658C167.416 25.7959 162.985 30.1535 156.975 30.1535C150.964 30.1535 146.527 25.8028 146.527 19.8658ZM162.05 19.8658C162.05 16.4504 159.819 14.2196 156.975 14.2196C154.131 14.2196 151.899 16.4504 151.899 19.8658C151.899 23.2811 154.131 25.5188 156.975 25.5188C159.819 25.5188 162.05 23.2881 162.05 19.8658Z" fill="#2CC995"/>
<path d="M183.519 19.4432H188.246V27.6387C185.913 29.2931 183.16 30.1695 180.346 30.1535C174.356 30.1535 169.984 25.886 169.984 19.8658C169.984 13.8455 174.336 9.58496 180.432 9.58496C183.947 9.58496 186.798 10.8597 188.648 13.2013L185.264 16.4227C184.706 15.7231 184.007 15.1626 183.218 14.7817C182.429 14.4007 181.57 14.2087 180.702 14.2196C177.476 14.2196 175.33 16.4504 175.33 19.8658C175.33 23.2811 177.476 25.5188 180.649 25.5188C181.64 25.5286 182.62 25.3062 183.519 24.8676V19.4432Z" fill="#2CC995"/>
</g>
<path d="M29.5564 0H10.4436C7.67382 0 5.01744 1.10031 3.05887 3.05887C1.10031 5.01744 1.73166e-08 7.67382 1.73166e-08 10.4436L1.73166e-08 29.5564C-7.89612e-05 30.9279 0.27 32.2859 0.794814 33.5531C1.31963 34.8202 2.0889 35.9715 3.0587 36.9413C4.02849 37.9111 5.17983 38.6804 6.44694 39.2052C7.71406 39.73 9.07214 40.0001 10.4436 40H29.5564C30.9279 40.0001 32.2859 39.73 33.5531 39.2052C34.8202 38.6804 35.9715 37.9111 36.9413 36.9413C37.9111 35.9715 38.6804 34.8202 39.2052 33.5531C39.73 32.2859 40.0001 30.9279 40 29.5564V10.4436C40 7.67382 38.8997 5.01744 36.9411 3.05887C34.9826 1.10031 32.3262 0 29.5564 0V0ZM34.1567 27.5106H5.84512V22.7521H14.2568L7.62933 16.1252L10.9939 12.7606L17.6196 19.3881V10.0846H22.3768V19.3881L29.0061 12.7606L32.3707 16.1252L25.7432 22.7521H34.1567V27.5106Z" fill="#2CC995"/>
<defs>
<clipPath id="clip0_878_215">
<rect width="138.647" height="20.5685" fill="white" transform="translate(50 9.58496)"/>
</clipPath>
</defs>
</svg>
