<svg viewBox="0 0 336 336" fill="none" xmlns="http://www.w3.org/2000/svg">
<g clip-path="url(#clip0_902_62)">
<path d="M335.5 167.75C335.5 75.1042 260.396 0 167.75 0C75.1042 0 0 75.1042 0 167.75C0 260.396 75.1042 335.5 167.75 335.5C260.396 335.5 335.5 260.396 335.5 167.75Z" fill="url(#paint0_linear_902_62)"/>
<path d="M108.371 214.79C111.849 217.635 115.525 220.228 119.371 222.55C125.353 226.172 131.727 229.1 138.371 231.28C160.571 238.612 184.708 237.386 206.05 227.842C227.393 218.299 244.399 201.126 253.735 179.692C263.072 158.258 264.063 134.11 256.516 111.983C248.969 89.8556 233.427 71.3463 212.94 60.0849C192.452 48.8234 168.496 45.6223 145.77 51.1094C123.044 56.5965 103.188 70.3759 90.0962 89.7452C77.0041 109.114 71.6206 132.676 75.0015 155.809C78.3823 178.942 90.2836 199.978 108.371 214.79Z" fill="url(#paint1_linear_902_62)" stroke="#1A326B" stroke-width="0.6" stroke-miterlimit="10"/>
<path d="M123.859 221.87C129.387 225.149 135.281 227.767 141.419 229.67C174.559 239.99 212.999 229.07 237.309 199.36C251.047 182.734 258.539 161.828 258.489 140.26C258.466 126.995 255.386 113.913 249.489 102.03C248.659 114.44 247.999 130.17 236.719 142.55C218.719 162.4 195.819 149.09 166.799 166.33C146.999 178.05 130.339 200.4 123.859 221.87Z" fill="#3262D1"/>
<path d="M141.422 229.67C174.562 239.99 213.002 229.07 237.312 199.36C251.049 182.733 258.542 161.827 258.492 140.26C257.242 149.6 254.492 159.46 246.862 167.81C228.812 187.66 205.962 174.35 176.942 191.59C162.562 200.13 149.802 214.3 141.422 229.67Z" fill="#2950AB"/>
<path d="M217.139 91.3799L174.309 123.19L182.229 104.42L217.139 91.3799Z" fill="#E2761B" stroke="#E2761B" stroke-width="0.6" stroke-linecap="round" stroke-linejoin="round"/>
<path d="M118.281 91.3799L160.761 123.49L153.221 104.42L118.281 91.3799Z" fill="#E4761B" stroke="#E4761B" stroke-width="0.6" stroke-linecap="round" stroke-linejoin="round"/>
<path d="M201.73 165.11L190.32 182.58L214.73 189.3L221.74 165.5L201.73 165.11Z" fill="#E4761B" stroke="#E4761B" stroke-width="0.6" stroke-linecap="round" stroke-linejoin="round"/>
<path d="M113.762 165.5L120.732 189.3L145.132 182.58L133.732 165.11L113.762 165.5Z" fill="#E4761B" stroke="#E4761B" stroke-width="0.6" stroke-linecap="round" stroke-linejoin="round"/>
<path d="M143.761 135.58L136.961 145.87L161.191 146.95L160.331 120.91L143.761 135.58Z" fill="#E4761B" stroke="#E4761B" stroke-width="0.6" stroke-linecap="round" stroke-linejoin="round"/>
<path d="M191.659 135.58L174.869 120.61L174.309 146.95L198.499 145.87L191.659 135.58Z" fill="#E4761B" stroke="#E4761B" stroke-width="0.6" stroke-linecap="round" stroke-linejoin="round"/>
<path d="M145.129 182.58L159.679 175.48L147.109 165.67L145.129 182.58Z" fill="#E4761B" stroke="#E4761B" stroke-width="0.6" stroke-linecap="round" stroke-linejoin="round"/>
<path d="M175.73 175.48L190.32 182.58L188.3 165.67L175.73 175.48Z" fill="#E4761B" stroke="#E4761B" stroke-width="0.6" stroke-linecap="round" stroke-linejoin="round"/>
<path d="M190.32 182.58L175.73 175.48L176.9 184.99L176.77 189L190.32 182.58Z" fill="#D7C1B3" stroke="#D7C1B3" stroke-width="0.6" stroke-linecap="round" stroke-linejoin="round"/>
<path d="M145.129 182.58L158.689 189L158.599 184.99L159.679 175.48L145.129 182.58Z" fill="#D7C1B3" stroke="#D7C1B3" stroke-width="0.6" stroke-linecap="round" stroke-linejoin="round"/>
<path d="M158.91 159.38L146.77 155.81L155.33 151.9L158.91 159.38Z" fill="#233447" stroke="#233447" stroke-width="0.6" stroke-linecap="round" stroke-linejoin="round"/>
<path d="M176.512 159.38L180.082 151.9L188.692 155.81L176.512 159.38Z" fill="#233447" stroke="#233447" stroke-width="0.6" stroke-linecap="round" stroke-linejoin="round"/>
<path d="M145.13 182.58L147.2 165.11L133.73 165.5L145.13 182.58Z" fill="#CD6116" stroke="#CD6116" stroke-width="0.6" stroke-linecap="round" stroke-linejoin="round"/>
<path d="M188.262 165.11L190.322 182.58L201.732 165.5L188.262 165.11Z" fill="#CD6116" stroke="#CD6116" stroke-width="0.6" stroke-linecap="round" stroke-linejoin="round"/>
<path d="M198.499 145.87L174.309 146.95L176.549 159.38L180.119 151.9L188.729 155.81L198.499 145.87Z" fill="#CD6116" stroke="#CD6116" stroke-width="0.6" stroke-linecap="round" stroke-linejoin="round"/>
<path d="M146.771 155.81L155.381 151.9L158.911 159.38L161.191 146.95L136.961 145.87L146.771 155.81Z" fill="#CD6116" stroke="#CD6116" stroke-width="0.6" stroke-linecap="round" stroke-linejoin="round"/>
<path d="M136.961 145.87L147.111 165.67L146.771 155.81L136.961 145.87Z" fill="#E4751F" stroke="#E4751F" stroke-width="0.6" stroke-linecap="round" stroke-linejoin="round"/>
<path d="M188.731 155.81L188.301 165.67L198.501 145.87L188.731 155.81Z" fill="#E4751F" stroke="#E4751F" stroke-width="0.6" stroke-linecap="round" stroke-linejoin="round"/>
<path d="M161.19 146.95L158.91 159.38L161.75 174.06L162.39 154.74L161.19 146.95Z" fill="#E4751F" stroke="#E4751F" stroke-width="0.6" stroke-linecap="round" stroke-linejoin="round"/>
<path d="M174.308 146.95L173.148 154.69L173.668 174.06L176.548 159.38L174.308 146.95Z" fill="#E4751F" stroke="#E4751F" stroke-width="0.6" stroke-linecap="round" stroke-linejoin="round"/>
<path d="M176.552 159.38L173.672 174.06L175.732 175.48L188.302 165.67L188.732 155.81L176.552 159.38Z" fill="#F6851B" stroke="#F6851B" stroke-width="0.6" stroke-linecap="round" stroke-linejoin="round"/>
<path d="M146.77 155.81L147.11 165.67L159.68 175.48L161.75 174.06L158.91 159.38L146.77 155.81Z" fill="#F6851B" stroke="#F6851B" stroke-width="0.6" stroke-linecap="round" stroke-linejoin="round"/>
<path d="M176.769 189L176.899 184.99L175.819 184.05H159.589L158.599 184.99L158.689 189L145.129 182.58L149.869 186.46L159.469 193.13H175.949L185.589 186.46L190.319 182.58L176.769 189Z" fill="#C0AD9E" stroke="#C0AD9E" stroke-width="0.6" stroke-linecap="round" stroke-linejoin="round"/>
<path d="M175.732 175.48L173.672 174.06H161.752L159.682 175.48L158.602 184.99L159.592 184.05H175.822L176.902 184.99L175.732 175.48Z" fill="#161616" stroke="#161616" stroke-width="0.6" stroke-linecap="round" stroke-linejoin="round"/>
<path d="M218.95 125.25L222.6 107.69L217.14 91.3799L175.73 122.11L191.66 135.58L214.17 142.17L219.16 136.36L217.01 134.81L220.45 131.67L217.78 129.6L221.23 126.97L218.95 125.25Z" fill="#763D16" stroke="#763D16" stroke-width="0.6" stroke-linecap="round" stroke-linejoin="round"/>
<path d="M112.852 107.69L116.512 125.25L114.192 126.97L117.632 129.6L115.012 131.67L118.452 134.81L116.302 136.36L121.252 142.17L143.762 135.58L159.682 122.11L118.282 91.3799L112.852 107.69Z" fill="#763D16" stroke="#763D16" stroke-width="0.6" stroke-linecap="round" stroke-linejoin="round"/>
<path d="M214.171 142.17L191.661 135.58L198.501 145.87L188.301 165.67L201.731 165.5H221.741L214.171 142.17Z" fill="#F6851B" stroke="#F6851B" stroke-width="0.6" stroke-linecap="round" stroke-linejoin="round"/>
<path d="M143.762 135.58L121.252 142.17L113.762 165.5H133.732L147.112 165.67L136.962 145.87L143.762 135.58Z" fill="#F6851B" stroke="#F6851B" stroke-width="0.6" stroke-linecap="round" stroke-linejoin="round"/>
<path d="M174.309 146.95L175.729 122.11L182.279 104.42H153.219L159.679 122.11L161.189 146.95L161.699 154.78L161.749 174.06H173.669L173.749 154.78L174.309 146.95Z" fill="#F6851B" stroke="#F6851B" stroke-width="0.6" stroke-linecap="round" stroke-linejoin="round"/>
<path d="M90.1986 56.9096L88.4486 50.2796L81.8086 48.5296L88.4486 46.7796L90.1986 40.1396L91.9386 46.7796L98.5786 48.5296L91.9386 50.2796L90.1986 56.9096Z" fill="white"/>
<path d="M166.451 28.4498L165.231 23.8398L160.621 22.6198L165.231 21.4098L166.451 16.7998L167.661 21.4098L172.271 22.6198L167.661 23.8398L166.451 28.4498Z" fill="white"/>
<path d="M286.119 259.69H46.7692C38.5844 259.69 31.9492 266.326 31.9492 274.51V289.91C31.9492 298.095 38.5844 304.73 46.7692 304.73H286.119C294.304 304.73 300.939 298.095 300.939 289.91V274.51C300.939 266.326 294.304 259.69 286.119 259.69Z" fill="url(#paint2_linear_902_62)" stroke="#EB4487" stroke-width="0.6" stroke-miterlimit="10"/>
<path d="M297.429 286.51V289.9C297.426 292.899 296.234 295.774 294.113 297.894C291.993 300.015 289.118 301.207 286.119 301.21H46.7787C43.78 301.207 40.9048 300.015 38.7843 297.894C36.6638 295.774 35.4714 292.899 35.4688 289.9V286.51C35.4714 289.509 36.6638 292.384 38.7843 294.504C40.9048 296.625 43.78 297.817 46.7787 297.82H286.119C289.117 297.814 291.99 296.621 294.11 294.501C296.23 292.381 297.423 289.508 297.429 286.51Z" fill="#EB4487"/>
<path d="M114.685 287.615C115.585 287.615 116.372 287.456 117.044 287.137C117.728 286.806 118.264 286.356 118.652 285.786C119.039 285.204 119.233 284.543 119.233 283.802C119.233 282.092 118.213 280.906 116.172 280.245L113.727 279.459C112.952 279.196 112.564 278.763 112.564 278.159C112.564 277.749 112.729 277.418 113.06 277.167C113.391 276.905 113.824 276.774 114.36 276.774C114.975 276.774 115.522 276.945 116.001 277.287C116.48 277.618 116.839 278.079 117.079 278.672L119.233 277.697C118.88 276.694 118.264 275.908 117.386 275.338C116.52 274.756 115.511 274.465 114.36 274.465C113.493 274.465 112.724 274.625 112.051 274.944C111.39 275.263 110.871 275.708 110.495 276.278C110.13 276.848 109.948 277.509 109.948 278.262C109.948 279.994 110.968 281.197 113.009 281.87L115.505 282.691C116.258 282.941 116.634 283.363 116.634 283.956C116.634 284.366 116.469 284.697 116.138 284.948C115.819 285.187 115.391 285.307 114.856 285.307C114.172 285.307 113.545 285.107 112.975 284.708C112.416 284.309 111.977 283.762 111.658 283.067L109.486 284.041C109.737 284.771 110.113 285.404 110.615 285.94C111.128 286.475 111.732 286.891 112.427 287.188C113.134 287.473 113.887 287.615 114.685 287.615ZM120.934 277.236H123.499V274.671H120.934V277.236ZM120.934 287.41H123.499V278.074H120.934V287.41ZM129.959 291.172C130.859 291.172 131.652 290.99 132.336 290.625C133.031 290.26 133.578 289.753 133.977 289.103C134.376 288.465 134.576 287.735 134.576 286.914V278.074H132.182V279.048C131.521 278.262 130.614 277.868 129.463 277.868C128.608 277.868 127.844 278.062 127.171 278.45C126.499 278.837 125.969 279.373 125.581 280.057C125.194 280.73 125 281.505 125 282.383C125 283.261 125.194 284.047 125.581 284.743C125.969 285.427 126.505 285.968 127.189 286.367C127.873 286.755 128.648 286.948 129.514 286.948C130.563 286.948 131.395 286.641 132.011 286.025V286.914C132.011 287.518 131.828 287.992 131.464 288.334C131.099 288.687 130.597 288.864 129.959 288.864C129.423 288.864 128.961 288.738 128.574 288.487C128.186 288.237 127.93 287.895 127.804 287.461L125.427 288.299C125.621 288.881 125.935 289.382 126.368 289.804C126.812 290.237 127.342 290.574 127.958 290.813C128.574 291.052 129.241 291.172 129.959 291.172ZM129.873 284.623C129.223 284.623 128.688 284.418 128.266 284.007C127.855 283.597 127.65 283.067 127.65 282.417C127.65 281.756 127.855 281.22 128.266 280.81C128.688 280.388 129.223 280.177 129.873 280.177C130.512 280.177 131.025 280.382 131.412 280.792C131.811 281.203 132.011 281.744 132.011 282.417C132.011 283.078 131.811 283.614 131.412 284.024C131.025 284.423 130.512 284.623 129.873 284.623ZM136.464 287.41H139.029V281.955C139.029 281.419 139.189 280.992 139.508 280.673C139.827 280.342 140.238 280.177 140.739 280.177C141.241 280.177 141.651 280.342 141.97 280.673C142.29 280.992 142.449 281.419 142.449 281.955V287.41H145.014V281.408C145.014 280.701 144.866 280.086 144.57 279.561C144.273 279.025 143.857 278.609 143.321 278.313C142.797 278.017 142.181 277.868 141.475 277.868C140.882 277.868 140.357 277.982 139.901 278.21C139.445 278.427 139.098 278.763 138.858 279.219V278.074H136.464V287.41ZM149.962 287.41H152.612V279.014L156.46 284.161H156.802L160.649 279.202V287.41H163.3V274.671H160.735L156.682 280.194L152.527 274.671H149.962V287.41ZM169.868 287.615C170.825 287.615 171.663 287.41 172.382 287C173.1 286.578 173.601 286.025 173.886 285.341L171.834 284.366C171.652 284.686 171.395 284.936 171.065 285.119C170.746 285.301 170.358 285.392 169.902 285.392C169.275 285.392 168.762 285.216 168.363 284.862C167.964 284.509 167.73 284.041 167.662 283.46H174.194C174.24 283.335 174.268 283.186 174.28 283.015C174.302 282.833 174.314 282.651 174.314 282.468C174.314 281.602 174.131 280.827 173.767 280.143C173.413 279.447 172.895 278.894 172.211 278.484C171.527 278.074 170.689 277.868 169.697 277.868C168.808 277.868 168.01 278.079 167.303 278.501C166.596 278.923 166.032 279.499 165.61 280.228C165.2 280.958 164.994 281.79 164.994 282.725C164.994 283.625 165.194 284.446 165.593 285.187C165.992 285.928 166.556 286.521 167.286 286.966C168.015 287.399 168.876 287.615 169.868 287.615ZM169.697 279.92C170.221 279.92 170.654 280.074 170.996 280.382C171.338 280.69 171.538 281.089 171.595 281.579H167.713C167.839 281.043 168.072 280.633 168.414 280.348C168.768 280.063 169.195 279.92 169.697 279.92ZM179.484 287.615C180.567 287.615 181.439 287.347 182.1 286.812C182.761 286.276 183.092 285.575 183.092 284.708C183.092 284.036 182.887 283.471 182.476 283.015C182.066 282.548 181.473 282.2 180.698 281.972L179.21 281.528C178.537 281.334 178.201 281.055 178.201 280.69C178.201 280.45 178.292 280.262 178.475 280.126C178.669 279.989 178.931 279.92 179.261 279.92C179.717 279.92 180.122 280.04 180.475 280.279C180.84 280.507 181.091 280.815 181.228 281.203L183.126 280.314C182.841 279.538 182.351 278.94 181.655 278.518C180.971 278.085 180.173 277.868 179.261 277.868C178.566 277.868 177.95 277.994 177.415 278.245C176.879 278.484 176.463 278.82 176.166 279.253C175.87 279.687 175.722 280.194 175.722 280.775C175.722 281.437 175.927 282.012 176.337 282.502C176.748 282.981 177.335 283.329 178.099 283.546L179.689 283.99C180.304 284.161 180.612 284.435 180.612 284.811C180.612 285.37 180.236 285.649 179.484 285.649C178.982 285.649 178.526 285.506 178.116 285.221C177.705 284.936 177.38 284.543 177.141 284.041L175.26 284.931C175.534 285.751 176.047 286.407 176.799 286.897C177.563 287.376 178.458 287.615 179.484 287.615ZM188.284 287.615C189.367 287.615 190.239 287.347 190.9 286.812C191.562 286.276 191.892 285.575 191.892 284.708C191.892 284.036 191.687 283.471 191.277 283.015C190.866 282.548 190.273 282.2 189.498 281.972L188.011 281.528C187.338 281.334 187.002 281.055 187.002 280.69C187.002 280.45 187.093 280.262 187.275 280.126C187.469 279.989 187.731 279.92 188.062 279.92C188.518 279.92 188.923 280.04 189.276 280.279C189.641 280.507 189.892 280.815 190.028 281.203L191.926 280.314C191.641 279.538 191.151 278.94 190.456 278.518C189.772 278.085 188.974 277.868 188.062 277.868C187.366 277.868 186.751 277.994 186.215 278.245C185.679 278.484 185.263 278.82 184.967 279.253C184.67 279.687 184.522 280.194 184.522 280.775C184.522 281.437 184.727 282.012 185.138 282.502C185.548 282.981 186.135 283.329 186.899 283.546L188.489 283.99C189.105 284.161 189.413 284.435 189.413 284.811C189.413 285.37 189.037 285.649 188.284 285.649C187.783 285.649 187.327 285.506 186.916 285.221C186.506 284.936 186.181 284.543 185.941 284.041L184.06 284.931C184.334 285.751 184.847 286.407 185.599 286.897C186.363 287.376 187.258 287.615 188.284 287.615ZM196.315 287.615C197.478 287.615 198.413 287.256 199.12 286.538V287.41H201.514V281.254C201.514 280.582 201.343 279.994 201.001 279.493C200.67 278.98 200.203 278.581 199.598 278.296C198.994 278.011 198.299 277.868 197.512 277.868C196.52 277.868 195.648 278.096 194.896 278.552C194.155 279.008 193.648 279.624 193.374 280.399L195.426 281.374C195.586 280.963 195.836 280.633 196.178 280.382C196.532 280.131 196.936 280.006 197.392 280.006C197.871 280.006 198.247 280.126 198.521 280.365C198.806 280.604 198.949 280.901 198.949 281.254V281.511L196.366 281.921C195.249 282.103 194.417 282.451 193.87 282.964C193.323 283.477 193.049 284.127 193.049 284.914C193.049 285.757 193.34 286.418 193.921 286.897C194.514 287.376 195.312 287.615 196.315 287.615ZM195.7 284.828C195.7 284.52 195.796 284.287 195.99 284.127C196.184 283.956 196.463 283.836 196.828 283.768L198.949 283.392V283.682C198.949 284.252 198.755 284.737 198.367 285.136C197.98 285.535 197.467 285.734 196.828 285.734C196.509 285.734 196.241 285.655 196.024 285.495C195.808 285.335 195.7 285.113 195.7 284.828ZM207.978 291.172C208.878 291.172 209.67 290.99 210.354 290.625C211.05 290.26 211.597 289.753 211.996 289.103C212.395 288.465 212.595 287.735 212.595 286.914V278.074H210.201V279.048C209.539 278.262 208.633 277.868 207.482 277.868C206.627 277.868 205.863 278.062 205.19 278.45C204.518 278.837 203.988 279.373 203.6 280.057C203.212 280.73 203.019 281.505 203.019 282.383C203.019 283.261 203.212 284.047 203.6 284.743C203.988 285.427 204.523 285.968 205.207 286.367C205.891 286.755 206.667 286.948 207.533 286.948C208.582 286.948 209.414 286.641 210.03 286.025V286.914C210.03 287.518 209.847 287.992 209.482 288.334C209.118 288.687 208.616 288.864 207.978 288.864C207.442 288.864 206.98 288.738 206.592 288.487C206.205 288.237 205.948 287.895 205.823 287.461L203.446 288.299C203.64 288.881 203.953 289.382 204.387 289.804C204.831 290.237 205.361 290.574 205.977 290.813C206.592 291.052 207.259 291.172 207.978 291.172ZM207.892 284.623C207.242 284.623 206.706 284.418 206.285 284.007C205.874 283.597 205.669 283.067 205.669 282.417C205.669 281.756 205.874 281.22 206.285 280.81C206.706 280.388 207.242 280.177 207.892 280.177C208.53 280.177 209.043 280.382 209.431 280.792C209.83 281.203 210.03 281.744 210.03 282.417C210.03 283.078 209.83 283.614 209.431 284.024C209.043 284.423 208.53 284.623 207.892 284.623ZM218.98 287.615C219.938 287.615 220.776 287.41 221.494 287C222.212 286.578 222.714 286.025 222.999 285.341L220.947 284.366C220.764 284.686 220.508 284.936 220.177 285.119C219.858 285.301 219.47 285.392 219.014 285.392C218.387 285.392 217.874 285.216 217.475 284.862C217.076 284.509 216.843 284.041 216.774 283.46H223.307C223.352 283.335 223.381 283.186 223.392 283.015C223.415 282.833 223.426 282.651 223.426 282.468C223.426 281.602 223.244 280.827 222.879 280.143C222.526 279.447 222.007 278.894 221.323 278.484C220.639 278.074 219.801 277.868 218.809 277.868C217.92 277.868 217.122 278.079 216.415 278.501C215.708 278.923 215.144 279.499 214.722 280.228C214.312 280.958 214.107 281.79 214.107 282.725C214.107 283.625 214.306 284.446 214.705 285.187C215.104 285.928 215.669 286.521 216.398 286.966C217.128 287.399 217.988 287.615 218.98 287.615ZM218.809 279.92C219.334 279.92 219.767 280.074 220.109 280.382C220.451 280.69 220.65 281.089 220.707 281.579H216.826C216.951 281.043 217.185 280.633 217.527 280.348C217.88 280.063 218.308 279.92 218.809 279.92Z" fill="#FAFAFA"/>
<path d="M298.619 284.48L294.449 268.65L278.629 264.49L294.449 260.32L298.619 244.49L302.789 260.32L318.609 264.49L302.789 268.65L298.619 284.48Z" fill="white"/>
<path d="M65.4816 70.3596C66.3818 70.3596 67.1116 69.6298 67.1116 68.7296C67.1116 67.8294 66.3818 67.0996 65.4816 67.0996C64.5813 67.0996 63.8516 67.8294 63.8516 68.7296C63.8516 69.6298 64.5813 70.3596 65.4816 70.3596Z" fill="white"/>
<path d="M125.501 31.7102C126.401 31.7102 127.131 30.9804 127.131 30.0802C127.131 29.18 126.401 28.4502 125.501 28.4502C124.601 28.4502 123.871 29.18 123.871 30.0802C123.871 30.9804 124.601 31.7102 125.501 31.7102Z" fill="white"/>
<path d="M207.669 30.0803C208.569 30.0803 209.299 29.3505 209.299 28.4503C209.299 27.5501 208.569 26.8203 207.669 26.8203C206.769 26.8203 206.039 27.5501 206.039 28.4503C206.039 29.3505 206.769 30.0803 207.669 30.0803Z" fill="white"/>
<path d="M292.36 103.66C293.261 103.66 293.99 102.931 293.99 102.03C293.99 101.13 293.261 100.4 292.36 100.4C291.46 100.4 290.73 101.13 290.73 102.03C290.73 102.931 291.46 103.66 292.36 103.66Z" fill="white"/>
<path d="M294.56 169.38C295.46 169.38 296.19 168.65 296.19 167.75C296.19 166.85 295.46 166.12 294.56 166.12C293.659 166.12 292.93 166.85 292.93 167.75C292.93 168.65 293.659 169.38 294.56 169.38Z" fill="white"/>
<path d="M312.091 196.39C312.991 196.39 313.721 195.66 313.721 194.76C313.721 193.86 312.991 193.13 312.091 193.13C311.191 193.13 310.461 193.86 310.461 194.76C310.461 195.66 311.191 196.39 312.091 196.39Z" fill="white"/>
<path d="M265.61 76.0803L262.71 65.1003L251.73 62.2003L262.71 59.3103L265.61 48.3203L268.5 59.3103L279.48 62.2003L268.5 65.1003L265.61 76.0803Z" fill="white"/>
<path d="M286.82 58.27L285.07 51.63L278.43 49.88L285.07 48.13L286.82 41.5L288.57 48.13L295.2 49.88L288.57 51.63L286.82 58.27Z" fill="white"/>
<path d="M302.9 40.01C303.8 40.01 304.53 39.2802 304.53 38.38C304.53 37.4798 303.8 36.75 302.9 36.75C301.999 36.75 301.27 37.4798 301.27 38.38C301.27 39.2802 301.999 40.01 302.9 40.01Z" fill="white"/>
<path d="M62.4698 217.05L59.5698 206.07L48.5898 203.18L59.5698 200.28L62.4698 189.3L65.3598 200.28L76.3498 203.18L65.3598 206.07L62.4698 217.05Z" fill="white"/>
<path d="M43.1595 223.03L41.4095 216.39L34.7695 214.65L41.4095 212.9L43.1595 206.26L44.9095 212.9L51.5495 214.65L44.9095 216.39L43.1595 223.03Z" fill="white"/>
<path d="M27.1495 226.85C28.0498 226.85 28.7795 226.12 28.7795 225.22C28.7795 224.32 28.0498 223.59 27.1495 223.59C26.2493 223.59 25.5195 224.32 25.5195 225.22C25.5195 226.12 26.2493 226.85 27.1495 226.85Z" fill="white"/>
<path d="M43.3214 158.87C44.2216 158.87 44.9514 158.141 44.9514 157.24C44.9514 156.34 44.2216 155.61 43.3214 155.61C42.4212 155.61 41.6914 156.34 41.6914 157.24C41.6914 158.141 42.4212 158.87 43.3214 158.87Z" fill="white"/>
<path d="M20.2003 125.12C21.1005 125.12 21.8303 124.391 21.8303 123.49C21.8303 122.59 21.1005 121.86 20.2003 121.86C19.3001 121.86 18.5703 122.59 18.5703 123.49C18.5703 124.391 19.3001 125.12 20.2003 125.12Z" fill="white"/>
<path d="M312.089 135.85L310.629 133.18L307.969 131.73L310.629 130.27L312.089 127.61L313.539 130.27L316.209 131.73L313.539 133.18L312.089 135.85Z" fill="white"/>
<path d="M17.7098 186.7L16.2498 184.04L13.5898 182.58L16.2498 181.13L17.7098 178.46L19.1698 181.13L21.8298 182.58L19.1698 184.04L17.7098 186.7Z" fill="white"/>
<path d="M54.0497 104.52L52.5997 101.86L49.9297 100.4L52.5997 98.9403L54.0497 96.2803L55.5097 98.9403L58.1697 100.4L55.5097 101.86L54.0497 104.52Z" fill="white"/>
<path d="M278.429 207.29L276.969 204.63L274.309 203.18L276.969 201.72L278.429 199.06L279.889 201.72L282.549 203.18L279.889 204.63L278.429 207.29Z" fill="white"/>
</g>
<defs>
<linearGradient id="paint0_linear_902_62" x1="167.75" y1="0" x2="167.75" y2="335.5" gradientUnits="userSpaceOnUse">
<stop stop-color="#2950AB"/>
<stop offset="0.69" stop-color="#1A326B"/>
</linearGradient>
<linearGradient id="paint1_linear_902_62" x1="167.731" y1="46.6502" x2="167.731" y2="167.3" gradientUnits="userSpaceOnUse">
<stop stop-color="#3FA9F5"/>
<stop offset="0.69" stop-color="#386DEB"/>
</linearGradient>
<linearGradient id="paint2_linear_902_62" x1="166.449" y1="260.76" x2="166.449" y2="283.33" gradientUnits="userSpaceOnUse">
<stop stop-color="#EB4487"/>
<stop offset="0.08" stop-color="#E04181"/>
<stop offset="0.25" stop-color="#D03C78"/>
<stop offset="0.43" stop-color="#C73A73"/>
<stop offset="0.69" stop-color="#C43971"/>
</linearGradient>
<clipPath id="clip0_902_62">
<rect width="335.5" height="335.5" fill="white"/>
</clipPath>
</defs>
</svg>
