<svg viewBox="0 0 107 135" fill="none" xmlns="http://www.w3.org/2000/svg">
<path d="M72.33 134.65L68.88 124.78L59 121.32L68.88 117.87L72.33 108L75.78 117.87L85.66 121.32L75.78 124.78L72.33 134.65Z" fill="white"/>
<path d="M39.5 18L37.5589 12.4446L32 10.4972L37.5589 8.55534L39.5 3L41.4411 8.55534L47 10.4972L41.4411 12.4446L39.5 18Z" fill="white"/>
<path d="M17 22L15.9647 19.0371L13 17.9985L15.9647 16.9628L17 14L18.0353 16.9628L21 17.9985L18.0353 19.0371L17 22Z" fill="white"/>
<path d="M89.4 102.8C90.1732 102.8 90.8 102.173 90.8 101.4C90.8 100.627 90.1732 100 89.4 100C88.6268 100 88 100.627 88 101.4C88 102.173 88.6268 102.8 89.4 102.8Z" fill="white"/>
<path d="M20.4 2.79999C21.1732 2.79999 21.8 2.17319 21.8 1.39999C21.8 0.626795 21.1732 0 20.4 0C19.6268 0 19 0.626795 19 1.39999C19 2.17319 19.6268 2.79999 20.4 2.79999Z" fill="white"/>
<path d="M26.95 76.3334C26.95 76.3334 14.44 75.5434 12.54 90.5134C11.54 98.1734 6.79004 94.1834 6.79004 94.1834C6.79004 94.1834 10.5901 99.5434 13.9901 95.8534C16.0901 93.5734 19.61 95.5134 15.66 99.5434C11.99 103.273 7.66 104.173 2 102.933C2 102.933 16 114.833 23.34 101.763C24.312 99.7914 25.6725 98.0362 27.34 96.6034C29.66 94.8634 31.67 97.5234 29.8 99.4234C28.7717 100.353 27.6789 101.208 26.53 101.983C26.53 101.983 39.27 96.7334 39.16 88.5434C39.05 80.3534 26.95 76.3334 26.95 76.3334Z" fill="#C43971" stroke="#9E2E5B" stroke-width="0.6" stroke-miterlimit="10"/>
<path d="M8.82031 105.013C11.9129 104.539 14.7575 103.042 16.9003 100.763C20.7203 96.8726 18.7303 94.5026 18.2903 94.0626C17.9754 93.7549 17.601 93.5147 17.1901 93.3565C16.7791 93.1983 16.3403 93.1255 15.9003 93.1426C15.0012 93.1738 14.1342 93.485 13.4203 94.0326C13.8592 92.9787 14.1454 91.8675 14.2703 90.7326C15.8203 78.5126 25.0203 78.0526 26.6303 78.0626C29.6208 79.1527 32.3691 80.8173 34.7203 82.9626C35.5179 83.6716 36.1671 84.5314 36.6305 85.4926C37.0939 86.4537 37.3624 87.4972 37.4203 88.5626C37.4703 91.7226 34.9503 94.5626 32.1303 96.7226C31.9642 96.1802 31.6691 95.6861 31.2703 95.2826C30.6002 94.6419 29.713 94.2778 28.786 94.2629C27.859 94.2481 26.9606 94.5837 26.2703 95.2026C24.4012 96.7811 22.8734 98.724 21.7803 100.913C20.1203 103.913 18.0503 105.553 15.4503 106.013C13.1902 106.312 10.8917 105.965 8.82031 105.013Z" fill="#EB4487"/>
<path d="M50.2629 35.9531L29.0129 39.5231C27.6294 39.7584 26.3536 40.419 25.363 41.4131L3.36296 63.4131C3.14269 63.6404 2.98621 63.9217 2.90935 64.2287C2.83249 64.5358 2.83794 64.8576 2.92516 65.1619C3.01238 65.4661 3.17827 65.742 3.40612 65.9617C3.63396 66.1813 3.91572 66.3371 4.22295 66.4131L28.413 72.2431L50.2629 35.9531Z" fill="#1E8A66" stroke="#104A37" stroke-width="0.6" stroke-miterlimit="10"/>
<path d="M4.10193 65.2237C4.02634 65.1492 3.96633 65.0605 3.92535 64.9626C3.88438 64.8648 3.86328 64.7598 3.86328 64.6537C3.86328 64.5476 3.88438 64.4426 3.92535 64.3447C3.96633 64.2468 4.02634 64.1581 4.10193 64.0837L26.1019 42.0837C26.9453 41.2376 28.0332 40.6779 29.2119 40.4837L48.312 37.2637L27.9919 71.0537L4.53192 65.4337C4.38732 65.4027 4.25511 65.3296 4.15192 65.2237H4.10193Z" fill="#197053"/>
<path d="M78.1707 64.0029L74.5906 85.2529C74.3588 86.6355 73.7016 87.9114 72.7106 88.9029L50.7106 110.903C50.4834 111.123 50.202 111.28 49.895 111.357C49.588 111.433 49.2661 111.428 48.9619 111.341C48.6576 111.253 48.3818 111.088 48.1621 110.86C47.9424 110.632 47.7867 110.35 47.7106 110.043L41.8906 85.8529L78.1707 64.0029Z" fill="#1E8A66" stroke="#104A37" stroke-width="0.6" stroke-miterlimit="10"/>
<path d="M48.8912 110.162C48.7888 110.057 48.7163 109.925 48.6813 109.782L43.0312 86.3024L76.8212 65.9824L73.6113 85.0924C73.4117 86.2715 72.8487 87.3588 72.0012 88.2024L50.0012 110.202C49.8449 110.336 49.6441 110.406 49.4385 110.399C49.2329 110.392 49.0375 110.307 48.8912 110.162Z" fill="#197053"/>
<path d="M42.6627 88.653L39.9026 89.9729L36.9026 89.6629L24.5327 77.293L24.2227 74.293C24.6527 73.353 25.1027 72.4329 25.5427 71.5329C44.4527 33.0029 69.2526 17.853 86.3326 11.853C98.0726 7.75295 106.163 8.00295 106.163 8.00295C106.163 8.00295 106.413 16.093 102.313 27.833C96.3527 44.943 81.1827 69.743 42.6627 88.653Z" fill="#2CC995" stroke="#104A37" stroke-width="0.6" stroke-miterlimit="10"/>
<path d="M41.8708 87.0331C41.1108 87.4131 40.3508 87.7831 39.5908 88.1331L37.7208 87.9431L26.2507 76.4731L26.0508 74.6031L27.1508 72.3231C35.5708 55.1731 45.1507 42.7131 54.7007 33.6631C46.5307 42.2731 38.4508 53.5331 31.2408 68.2431C30.8608 69.0031 30.4907 69.7631 30.1407 70.5231L30.3307 72.3931L41.8008 83.8531L43.6708 84.0431C44.4308 83.6831 45.1907 83.3231 45.9507 82.9431C60.6607 75.7231 71.9508 67.6531 80.5308 59.4831C71.5308 69.0431 59.0208 78.6231 41.8708 87.0331Z" fill="#27B082"/>
<path d="M102.312 27.853L86.3125 11.853C98.0525 7.75295 106.142 8.00295 106.142 8.00295C106.142 8.00295 106.413 16.123 102.312 27.853Z" fill="#1E8A66" stroke="#104A37" stroke-width="0.6" stroke-miterlimit="10"/>
<path d="M88.1719 12.313C93.662 10.4492 99.3821 9.34892 105.172 9.04297C104.864 14.8324 103.763 20.5523 101.902 26.043L88.1719 12.313Z" fill="#197053"/>
<path d="M42.6627 88.6532L39.9026 89.9732L36.9026 89.6632L24.5327 77.2932L24.2227 74.2932C24.6527 73.3532 25.1027 72.4332 25.5427 71.5332L42.6627 88.6532Z" fill="#1E8A66" stroke="#104A37" stroke-width="0.6" stroke-miterlimit="10"/>
<path d="M25.533 76.8529L25.293 74.4829C25.483 74.0729 25.6829 73.6629 25.8829 73.2529L41.0129 88.3829L39.783 88.9729L37.413 88.7229L25.533 76.8529Z" fill="#197053"/>
<path d="M52.9917 63.3022L50.8916 61.2021C50.0324 60.343 48.6394 60.343 47.7803 61.2021L20.5708 88.4116C19.7117 89.2707 19.7117 90.6637 20.5708 91.5229L22.6709 93.623C23.5301 94.4821 24.923 94.4821 25.7822 93.623L52.9917 66.4135C53.8508 65.5543 53.8508 64.1614 52.9917 63.3022Z" fill="#1E8A66" stroke="#104A37" stroke-width="0.6" stroke-miterlimit="10"/>
<path d="M25.067 92.9154L52.2765 65.706C52.7451 65.2373 52.7451 64.4775 52.2765 64.0089L50.1764 61.9088C49.7077 61.4402 48.9479 61.4402 48.4793 61.9088L21.2698 89.1183C20.8012 89.5869 20.8012 90.3467 21.2698 90.8153L23.3699 92.9154C23.8386 93.3841 24.5984 93.384 25.067 92.9154Z" fill="#197053"/>
<path d="M74.252 50.1134C79.8687 50.1134 84.4221 45.5602 84.4221 39.9434C84.4221 34.3267 79.8687 29.7734 74.252 29.7734C68.6353 29.7734 64.082 34.3267 64.082 39.9434C64.082 45.5602 68.6353 50.1134 74.252 50.1134Z" fill="#27B082" stroke="#104A37" stroke-width="0.6" stroke-miterlimit="10"/>
<path d="M74.252 49.1134C79.3165 49.1134 83.4221 45.0079 83.4221 39.9434C83.4221 34.879 79.3165 30.7734 74.252 30.7734C69.1876 30.7734 65.082 34.879 65.082 39.9434C65.082 45.0079 69.1876 49.1134 74.252 49.1134Z" fill="#1E8A66"/>
<path opacity="0.5" d="M74.1221 46.8632C77.8721 46.8632 80.912 43.8232 80.912 40.0732C80.912 36.3232 77.8721 33.2832 74.1221 33.2832C70.3721 33.2832 67.332 36.3232 67.332 40.0732C67.332 43.8232 70.3721 46.8632 74.1221 46.8632Z" fill="#5BBDEF"/>
<path d="M74.1221 46.8632C77.8721 46.8632 80.912 43.8232 80.912 40.0732C80.912 36.3232 77.8721 33.2832 74.1221 33.2832C70.3721 33.2832 67.332 36.3232 67.332 40.0732C67.332 43.8232 70.3721 46.8632 74.1221 46.8632Z" stroke="#FAFAFA" stroke-width="0.6" stroke-miterlimit="10"/>
<path d="M79.5312 41.0327C79.5661 41.0762 79.6161 41.1048 79.6712 41.1127C79.7087 41.12 79.7472 41.1198 79.7845 41.1122C79.8219 41.1045 79.8573 41.0896 79.8889 41.0683C79.9205 41.0469 79.9476 41.0195 79.9685 40.9877C79.9895 40.9559 80.004 40.9202 80.0112 40.8827C80.0932 40.5113 80.1401 40.133 80.1512 39.7527C80.1362 39.3156 80.0656 38.8821 79.9412 38.4628C79.931 38.426 79.9134 38.3918 79.8895 38.3621C79.8656 38.3324 79.8359 38.308 79.8022 38.2902C79.7685 38.2724 79.7315 38.2617 79.6935 38.2587C79.6555 38.2557 79.6173 38.2605 79.5812 38.2727C79.5086 38.2958 79.448 38.3465 79.4124 38.4138C79.3769 38.4812 79.3693 38.5598 79.3912 38.6327C79.4948 38.9978 79.5552 39.3737 79.5712 39.7527C79.5563 40.0886 79.5162 40.4229 79.4512 40.7527C79.4387 40.8023 79.4395 40.8543 79.4535 40.9035C79.4676 40.9527 79.4944 40.9973 79.5312 41.0327Z" fill="#FAFAFA"/>
<path d="M79.6712 38.2624H79.5812C79.5086 38.2855 79.448 38.3361 79.4124 38.4035C79.3769 38.4708 79.3693 38.5495 79.3912 38.6224C79.4948 38.9874 79.5552 39.3633 79.5712 39.7424C79.5556 40.0782 79.5155 40.4125 79.4512 40.7424C79.4423 40.789 79.4449 40.8371 79.4588 40.8824C79.4728 40.9277 79.4976 40.9689 79.5312 41.0024C79.5661 41.0458 79.6161 41.0744 79.6712 41.0824H79.7312C79.7981 41.0856 79.8638 41.0639 79.9156 41.0214C79.9673 40.9789 80.0014 40.9186 80.0112 40.8524C80.0932 40.481 80.1401 40.1026 80.1512 39.7224C80.1362 39.2852 80.0656 38.8518 79.9412 38.4324C79.9225 38.3752 79.8865 38.3252 79.8382 38.2893C79.7898 38.2535 79.7314 38.2336 79.6712 38.2324V38.2624Z" fill="#FAFAFA"/>
<path d="M79.5009 41.913C79.6611 41.913 79.791 41.7832 79.791 41.623C79.791 41.4629 79.6611 41.333 79.5009 41.333C79.3408 41.333 79.2109 41.4629 79.2109 41.623C79.2109 41.7832 79.3408 41.913 79.5009 41.913Z" fill="#FAFAFA"/>
<path d="M79.5305 41.3324C79.4918 41.3305 79.4532 41.3366 79.4171 41.3504C79.3809 41.3641 79.348 41.3853 79.3204 41.4124C79.292 41.4395 79.2694 41.472 79.2539 41.5081C79.2384 41.5442 79.2305 41.5831 79.2305 41.6224C79.2305 41.6616 79.2384 41.7005 79.2539 41.7366C79.2694 41.7727 79.292 41.8053 79.3204 41.8324C79.348 41.8595 79.3809 41.8806 79.4171 41.8944C79.4532 41.9081 79.4918 41.9143 79.5305 41.9124C79.5676 41.9141 79.6047 41.9079 79.6392 41.8941C79.6737 41.8803 79.7048 41.8592 79.7305 41.8324C79.7589 41.8053 79.7815 41.7727 79.797 41.7366C79.8125 41.7005 79.8204 41.6616 79.8204 41.6224C79.8204 41.5831 79.8125 41.5442 79.797 41.5081C79.7815 41.472 79.7589 41.4395 79.7305 41.4124C79.7048 41.3855 79.6737 41.3645 79.6392 41.3507C79.6047 41.3369 79.5676 41.3306 79.5305 41.3324Z" fill="#FAFAFA"/>
<path d="M76.5317 45.3231C74.8917 46.9731 71.8617 46.6231 69.7817 44.5431C67.7017 42.4631 67.3517 39.4331 69.0017 37.7831C69.3588 37.4485 69.7785 37.188 70.2368 37.0163C70.695 36.8447 71.1827 36.7654 71.6717 36.7831L72.8517 35.9631L73.7517 35.3431C73.7997 35.3064 73.857 35.2836 73.9171 35.2772C73.9773 35.2709 74.038 35.2811 74.0927 35.3069C74.1474 35.3327 74.194 35.3731 74.2273 35.4235C74.2606 35.474 74.2794 35.5327 74.2817 35.5931L74.3817 36.6831L74.4517 37.5931C74.9255 37.8702 75.3623 38.2062 75.7517 38.5931C76.1332 38.9724 76.4689 39.3953 76.7517 39.8531L77.6417 39.9231L78.7317 40.0231C78.7921 40.0253 78.8508 40.0442 78.9013 40.0775C78.9517 40.1108 78.992 40.1574 79.0178 40.2121C79.0436 40.2668 79.0539 40.3275 79.0476 40.3876C79.0412 40.4478 79.0184 40.505 78.9817 40.5531L78.3617 41.4531L77.5817 42.5731C77.6041 43.0789 77.5225 43.584 77.3419 44.057C77.1613 44.53 76.8856 44.9609 76.5317 45.3231Z" fill="#EBC05B" stroke="#6B582A" stroke-width="0.6" stroke-linecap="round" stroke-linejoin="round"/>
<path d="M70.272 44.0531C68.462 42.2431 68.112 39.6531 69.492 38.2731C69.7808 37.9944 70.1224 37.7765 70.4969 37.6322C70.8713 37.4879 71.271 37.4202 71.672 37.4331C71.8112 37.4334 71.9471 37.3915 72.062 37.3131L73.652 36.2031L73.772 37.6131C73.7831 37.7763 73.8544 37.9295 73.972 38.0431L74.102 38.1431C74.5262 38.3997 74.9189 38.7051 75.272 39.0531C75.6097 39.3893 75.9052 39.7655 76.152 40.1731C76.1796 40.2206 76.2132 40.2643 76.252 40.3031C76.3656 40.4208 76.5189 40.492 76.682 40.5031L78.072 40.6231L77.012 42.1531C76.9291 42.2696 76.8869 42.4102 76.892 42.5531C76.9187 42.9707 76.8578 43.3893 76.7132 43.782C76.5685 44.1746 76.3433 44.5327 76.052 44.8331C74.672 46.2131 72.082 45.8531 70.272 44.0531Z" fill="#F7CA60"/>
<path d="M71.7694 42.5427C71.7218 42.593 71.6644 42.633 71.6008 42.6603C71.5372 42.6876 71.4687 42.7017 71.3994 42.7017C71.3302 42.7017 71.2617 42.6876 71.1981 42.6603C71.1344 42.633 71.0771 42.593 71.0294 42.5427C70.9329 42.4438 70.8789 42.311 70.8789 42.1727C70.8789 42.0345 70.9329 41.9017 71.0294 41.8027" stroke="#6B582A" stroke-width="0.6" stroke-linecap="round" stroke-linejoin="round"/>
<path d="M72.5303 43.293C72.4309 43.3924 72.296 43.4483 72.1553 43.4483C72.0147 43.4483 71.8798 43.3924 71.7803 43.293C71.6809 43.1935 71.625 43.0586 71.625 42.918C71.625 42.7773 71.6809 42.6424 71.7803 42.543" stroke="#6B582A" stroke-width="0.6" stroke-linecap="round" stroke-linejoin="round"/>
</svg>
