<svg  viewBox="0 0 132 132" fill="none" xmlns="http://www.w3.org/2000/svg">
<path d="M79.9963 40.5047C79.996 42.3986 79.86 44.29 79.5894 46.1645C79.1724 49.0751 78.4279 51.9292 77.3699 54.6726C73.836 63.8659 66.9951 71.4073 58.1887 75.8179C49.3824 80.2285 39.246 81.19 29.7674 78.5139C20.2888 75.8378 12.152 69.7171 6.95259 61.3522C1.7532 52.9873 -0.133573 42.9817 1.66229 33.2977C3.45815 23.6137 8.80707 14.95 16.6601 9.00558C24.513 3.0612 34.3035 0.265051 44.1114 1.16551C53.9192 2.06597 63.0369 6.59808 69.6762 13.873C76.3155 21.1479 79.9975 30.6408 80 40.4899L79.9963 40.5047Z" fill="url(#paint0_linear_919_341)" stroke="#9E2E5B" stroke-width="0.6" stroke-miterlimit="10"/>
<path d="M78.1673 47.4484C77.7638 50.1256 77.0448 52.7456 76.0255 55.2537C70.5322 68.8112 56.7268 78.4291 40.5687 78.4291C31.4808 78.4647 22.6659 75.3245 15.6473 69.5511C11.3291 66.003 7.88408 61.51 5.57812 56.419C9.84699 59.4597 15.1516 63.4474 22.1949 63.0775C33.4811 62.4856 35.2419 51.4842 48.6071 46.6235C57.696 43.3053 69.4224 43.8269 78.1673 47.4484Z" fill="#C43971"/>
<path d="M76.0266 55.2527C70.5333 68.8102 56.7279 78.4281 40.5699 78.4281C31.4819 78.4636 22.667 75.3234 15.6484 69.55C19.0295 71.6327 22.9876 73.3565 27.7374 73.1086C39.0199 72.5205 40.7807 61.5154 54.1459 56.6547C60.7526 54.2613 68.7799 53.8803 76.0266 55.2527Z" fill="#9E2E5B"/>
<path d="M86.6544 114.877C87.5305 115.594 88.4568 116.248 89.426 116.833C90.9331 117.745 92.5386 118.483 94.2119 119.033C99.4491 120.764 105.127 120.607 110.26 118.588C115.393 116.569 119.658 112.817 122.313 107.982C124.968 103.147 125.846 97.5356 124.795 92.1208C123.744 86.706 120.83 81.8301 116.56 78.3397C106.47 70.0819 91.5941 71.5662 83.3387 81.6553C75.0833 91.7445 76.5652 106.62 86.6544 114.877Z" fill="url(#paint1_linear_919_341)" stroke="#6B582A" stroke-width="0.6" stroke-miterlimit="10"/>
<path d="M90.5586 116.66C91.9515 117.488 93.4375 118.148 94.9857 118.627C103.332 121.225 113.015 118.474 119.139 110.991C122.751 106.58 124.498 101.282 124.474 96.1053C124.462 92.7637 123.682 89.4695 122.194 86.4775C121.985 89.6033 121.818 93.5633 118.978 96.6832C114.435 101.681 108.675 98.3294 101.365 102.671C96.3942 105.622 92.1885 111.252 90.5586 116.66Z" fill="#D1AB52"/>
<path d="M94.9805 118.633C103.327 121.231 113.009 118.48 119.134 110.997C122.745 106.586 124.493 101.288 124.469 96.1113C124.152 98.4635 123.451 100.947 121.538 103.05C116.995 108.048 111.235 104.696 103.926 109.039C100.303 111.184 97.0892 114.754 94.9805 118.633Z" fill="#AB8C43"/>
<path d="M76.6642 131.471L74.5142 127.541L70.5742 125.391L74.5142 123.241L76.6642 119.301L78.8142 123.241L82.7442 125.391L78.8142 127.541L76.6642 131.471Z" fill="white"/>
<path d="M41.2541 34.64L39.104 30.7L35.1641 28.55L39.104 26.3999L41.2541 22.46L43.4041 26.3999L47.3341 28.55L43.4041 30.7L41.2541 34.64Z" fill="white"/>
<path d="M128.244 63.4998L126.984 61.1898L124.664 59.9198L126.984 58.6498L128.244 56.3398L129.514 58.6498L131.834 59.9198L129.514 61.1898L128.244 63.4998Z" fill="white"/>
<path d="M93.7628 54.27L89.6728 38.73L74.1328 34.64L89.6728 30.54L93.7628 15L97.8628 30.54L113.403 34.64L97.8628 38.73L93.7628 54.27Z" fill="white"/>
<path d="M38.2325 48.2804L51.008 62.0863L43.6683 68.8782C42.8605 69.6257 41.7887 70.0217 40.6889 69.9791C39.5891 69.9365 38.5513 69.4587 37.8037 68.6508L25.0011 54.8156L32.3407 48.0237C33.1486 47.2762 34.2203 46.8801 35.3201 46.9228C36.4199 46.9654 37.4578 47.4432 38.2053 48.251L38.2325 48.2804Z" fill="#27B082" stroke="#104A37" stroke-width="0.6" stroke-miterlimit="10"/>
<path d="M69.5625 82.0166L82.338 95.8225C83.0855 96.6304 83.4816 97.702 83.4389 98.8019C83.3963 99.9017 82.9185 100.94 82.1106 101.687L74.771 108.479L61.9955 94.673C61.248 93.8652 60.852 92.7934 60.8946 91.6936C60.9372 90.5938 61.415 89.556 62.2228 88.8085L69.5625 82.0166Z" fill="#27B082" stroke="#104A37" stroke-width="0.6" stroke-miterlimit="10"/>
<path d="M55.3358 67.302L66.4881 79.3537L58.2603 86.9674C57.7386 87.4502 57.0465 87.7059 56.3363 87.6784C55.626 87.6508 54.9558 87.3423 54.473 86.8206L43.3208 74.7689L51.5486 67.1552C51.8069 66.9161 52.1098 66.7303 52.4399 66.6084C52.77 66.4864 53.1209 66.4306 53.4726 66.4442C53.8243 66.4579 54.1698 66.5407 54.4895 66.6878C54.8092 66.835 55.0968 67.0437 55.3358 67.302Z" fill="#27B082" stroke="#104A37" stroke-width="0.6" stroke-linejoin="bevel"/>
<path d="M66.43 71.4793L61.3633 66.0039L57.4733 69.6036L62.54 75.079L66.43 71.4793Z" fill="#27B082" stroke="#104A37" stroke-width="0.6" stroke-miterlimit="10"/>
<path d="M65.9693 68.861L63.9453 66.6738L62.8884 67.6519L64.9124 69.8391L65.9693 68.861Z" fill="#27B082" stroke="#104A37" stroke-width="0.6" stroke-miterlimit="10"/>
<path d="M69.9371 62.5311L69.5703 62.1348L64.6821 66.6582L65.0488 67.0545L69.9371 62.5311Z" fill="#27B082" stroke="#104A37" stroke-width="0.6" stroke-miterlimit="10"/>
<path d="M73.4795 61.2608L73.0312 60.7764L65.3026 67.9282L65.7508 68.4126L73.4795 61.2608Z" fill="#27B082" stroke="#104A37" stroke-width="0.6" stroke-miterlimit="10"/>
<path d="M48.5699 67.8159L46.8516 65.959L44.7304 67.9218L46.4488 69.7787L48.5699 67.8159Z" fill="#27B082" stroke="#104A37" stroke-width="0.6" stroke-miterlimit="10"/>
<path d="M50.296 68.312L49.25 67.1816L45.749 70.4213L46.795 71.5516L50.296 68.312Z" fill="#27B082" stroke="#104A37" stroke-width="0.6" stroke-miterlimit="10"/>
<path d="M61.4574 86.0386L63.1758 87.8955L65.297 85.9327L63.5786 84.0757L61.4574 86.0386Z" fill="#27B082" stroke="#104A37" stroke-width="0.6" stroke-miterlimit="10"/>
<path d="M59.7275 85.5484L60.7734 86.6787L64.2745 83.439L63.2285 82.3087L59.7275 85.5484Z" fill="#27B082" stroke="#104A37" stroke-width="0.6" stroke-miterlimit="10"/>
<path d="M51.5623 83.5971L47.9219 79.6631L47.3934 80.1521L51.0338 84.0862L51.5623 83.5971Z" fill="#27B082" stroke="#104A37" stroke-width="0.6" stroke-miterlimit="10"/>
<path d="M46.5547 79.2451L51.4312 84.515C51.5501 84.6435 51.6131 84.8139 51.6063 84.9888C51.5995 85.1637 51.5236 85.3288 51.3951 85.4477L47.461 89.0881L42.5845 83.8182C42.4656 83.6898 42.4026 83.5193 42.4094 83.3444C42.4162 83.1695 42.4922 83.0044 42.6206 82.8855L46.5547 79.2451Z" fill="#27B082" stroke="#104A37" stroke-width="0.6" stroke-miterlimit="10"/>
<path d="M46.1687 87.6874L43.418 84.7148L42.8014 85.2854L45.5521 88.2579L46.1687 87.6874Z" fill="#27B082" stroke="#104A37" stroke-width="0.6" stroke-miterlimit="10"/>
<path d="M57.2739 81.6507L56.0439 82.7906L49.2539 75.4507L50.4839 74.3107L52.5039 76.4907L52.6339 73.1807L54.3039 73.2507L54.1839 76.5607L56.5939 74.3207L57.7339 75.5607L55.3239 77.7906L58.6339 77.9207L58.5639 79.6007L55.2539 79.4707L57.2739 81.6507Z" fill="#2CC995" stroke="#104A37" stroke-width="0.6" stroke-miterlimit="10"/>
<path d="M35.6862 48.0185L27.7227 55.3877L40.2536 68.9294L48.2172 61.5602L35.6862 48.0185Z" fill="#27B082"/>
<path d="M37.4602 49.9684L36.0475 48.4417C35.8487 48.2269 35.5133 48.2139 35.2985 48.4127L33.7719 49.8254C33.557 50.0242 33.544 50.3595 33.7428 50.5744L35.1555 52.101C35.3543 52.3159 35.6897 52.3289 35.9045 52.1301L37.4311 50.7174C37.646 50.5186 37.659 50.1832 37.4602 49.9684Z" fill="#2CC995"/>
<path d="M40.0149 52.7174L38.6022 51.1908C38.4033 50.9759 38.068 50.9629 37.8532 51.1617L36.3265 52.5744C36.1117 52.7732 36.0987 53.1086 36.2975 53.3234L37.7102 54.8501C37.909 55.0649 38.2443 55.0779 38.4592 54.8791L39.9858 53.4664C40.2006 53.2676 40.2137 52.9323 40.0149 52.7174Z" fill="#2CC995"/>
<path d="M42.55 55.4596L41.1373 53.9329C40.9385 53.7181 40.6032 53.7051 40.3883 53.9039L38.8617 55.3166C38.6469 55.5154 38.6338 55.8508 38.8326 56.0656L40.2454 57.5923C40.4442 57.8071 40.7795 57.8201 40.9943 57.6213L42.521 56.2086C42.7358 56.0098 42.7488 55.6744 42.55 55.4596Z" fill="#2CC995"/>
<path d="M45.1047 58.2194L43.692 56.6927C43.4932 56.4779 43.1578 56.4649 42.943 56.6637L41.4164 58.0764C41.2015 58.2752 41.1885 58.6105 41.3873 58.8254L42.8 60.352C42.9988 60.5669 43.3342 60.5798 43.549 60.381L45.0756 58.9684C45.2905 58.7696 45.3035 58.4342 45.1047 58.2194Z" fill="#2CC995"/>
<path d="M47.6438 60.9616L46.2311 59.4349C46.0323 59.2201 45.6969 59.2071 45.4821 59.4059L43.9555 60.8186C43.7406 61.0174 43.7276 61.3527 43.9264 61.5676L45.3391 63.0942C45.5379 63.309 45.8733 63.322 46.0881 63.1232L47.6147 61.7105C47.8296 61.5117 47.8426 61.1764 47.6438 60.9616Z" fill="#2CC995"/>
<path d="M34.718 52.5055L33.3053 50.9788C33.1065 50.764 32.7711 50.751 32.5563 50.9498L31.0296 52.3625C30.8148 52.5614 30.8018 52.8967 31.0006 53.1115L32.4133 54.6381C32.6121 54.853 32.9474 54.866 33.1623 54.6672L34.6889 53.2545C34.9038 53.0557 34.9168 52.7203 34.718 52.5055Z" fill="#2CC995"/>
<path d="M37.2649 55.2643L35.8522 53.7376C35.6533 53.5228 35.318 53.5098 35.1032 53.7086L33.5765 55.1213C33.3617 55.3201 33.3487 55.6554 33.5475 55.8703L34.9602 57.3969C35.159 57.6118 35.4943 57.6248 35.7091 57.426L37.2358 56.0133C37.4506 55.8145 37.4637 55.4791 37.2649 55.2643Z" fill="#2CC995"/>
<path d="M39.8078 58.0065L38.3951 56.4798C38.1963 56.265 37.861 56.252 37.6461 56.4508L36.1195 57.8635C35.9046 58.0623 35.8917 58.3976 36.0905 58.6125L37.5032 60.1391C37.702 60.354 38.0373 60.367 38.2521 60.1682L39.7788 58.7555C39.9936 58.5567 40.0066 58.2213 39.8078 58.0065Z" fill="#2CC995"/>
<path d="M42.3547 60.7555L40.942 59.2288C40.7432 59.014 40.4078 59.001 40.193 59.1998L38.6663 60.6125C38.4515 60.8114 38.4385 61.1467 38.6373 61.3615L40.05 62.8881C40.2488 63.103 40.5841 63.116 40.799 62.9172L42.3256 61.5045C42.5405 61.3057 42.5535 60.9703 42.3547 60.7555Z" fill="#2CC995"/>
<path d="M44.9016 63.5075L43.4889 61.9808C43.2901 61.766 42.9547 61.753 42.7399 61.9518L41.2132 63.3645C40.9984 63.5633 40.9854 63.8986 41.1842 64.1134L42.5969 65.6401C42.7957 65.8549 43.131 65.868 43.3459 65.6692L44.8725 64.2564C45.0874 64.0576 45.1004 63.7223 44.9016 63.5075Z" fill="#2CC995"/>
<path d="M31.9602 55.0582L30.5475 53.5316C30.3487 53.3167 30.0134 53.3037 29.7985 53.5025L28.2719 54.9152C28.057 55.114 28.044 55.4493 28.2428 55.6642L29.6556 57.1908C29.8544 57.4057 30.1897 57.4187 30.4045 57.2199L31.9312 55.8072C32.146 55.6084 32.159 55.2731 31.9602 55.0582Z" fill="#2CC995"/>
<path d="M34.5149 57.8082L33.1022 56.2816C32.9033 56.0667 32.568 56.0537 32.3532 56.2525L30.8265 57.6652C30.6117 57.864 30.5987 58.1993 30.7975 58.4142L32.2102 59.9408C32.409 60.1557 32.7443 60.1687 32.9592 59.9699L34.4858 58.5572C34.7007 58.3584 34.7137 58.0231 34.5149 57.8082Z" fill="#2CC995"/>
<path d="M37.05 60.5602L35.6373 59.0335C35.4385 58.8187 35.1032 58.8057 34.8884 59.0045L33.3617 60.4172C33.1469 60.616 33.1339 60.9513 33.3327 61.1661L34.7454 62.6928C34.9442 62.9076 35.2795 62.9207 35.4943 62.7219L37.021 61.3091C37.2358 61.1103 37.2488 60.775 37.05 60.5602Z" fill="#2CC995"/>
<path d="M39.6047 63.3092L38.192 61.7826C37.9932 61.5677 37.6579 61.5547 37.4431 61.7535L35.9164 63.1662C35.7015 63.365 35.6886 63.7003 35.8874 63.9152L37.3001 65.4418C37.4989 65.6567 37.8342 65.6697 38.049 65.4709L39.5757 64.0582C39.7905 63.8594 39.8035 63.524 39.6047 63.3092Z" fill="#2CC995"/>
<path d="M42.1516 66.0514L40.7389 64.5247C40.5401 64.3099 40.2048 64.2969 39.9899 64.4957L38.4633 65.9084C38.2484 66.1072 38.2354 66.4425 38.4343 66.6574L39.847 68.184C40.0458 68.3988 40.3811 68.4119 40.5959 68.2131L42.1226 66.8003C42.3374 66.6015 42.3504 66.2662 42.1516 66.0514Z" fill="#2CC995"/>
<path d="M69.7682 84.8642L61.8047 92.2334L74.3357 105.775L82.2992 98.4059L69.7682 84.8642Z" fill="#27B082"/>
<path d="M71.5617 86.8082L70.149 85.2816C69.9502 85.0667 69.6149 85.0537 69.4001 85.2525L67.8734 86.6652C67.6586 86.864 67.6456 87.1993 67.8444 87.4142L69.2571 88.9408C69.4559 89.1557 69.7912 89.1687 70.0061 88.9699L71.5327 87.5572C71.7476 87.3584 71.7605 87.0231 71.5617 86.8082Z" fill="#2CC995"/>
<path d="M74.1047 89.5602L72.692 88.0335C72.4932 87.8187 72.1579 87.8057 71.9431 88.0045L70.4164 89.4172C70.2015 89.616 70.1886 89.9513 70.3874 90.1661L71.8001 91.6928C71.9989 91.9076 72.3342 91.9207 72.549 91.7219L74.0757 90.3091C74.2905 90.1103 74.3035 89.775 74.1047 89.5602Z" fill="#2CC995"/>
<path d="M76.6594 92.3092L75.2467 90.7826C75.0479 90.5677 74.7126 90.5547 74.4977 90.7535L72.9711 92.1662C72.7562 92.365 72.7433 92.7003 72.9421 92.9152L74.3548 94.4418C74.5536 94.6567 74.8889 94.6697 75.1037 94.4709L76.6304 93.0582C76.8452 92.8594 76.8582 92.524 76.6594 92.3092Z" fill="#2CC995"/>
<path d="M79.1985 95.0621L77.7858 93.5355C77.587 93.3207 77.2516 93.3076 77.0368 93.5064L75.5101 94.9191C75.2953 95.118 75.2823 95.4533 75.4811 95.6681L76.8938 97.1947C77.0926 97.4096 77.4279 97.4226 77.6428 97.2238L79.1694 95.8111C79.3843 95.6123 79.3973 95.277 79.1985 95.0621Z" fill="#2CC995"/>
<path d="M81.7492 97.8112L80.3365 96.2845C80.1377 96.0697 79.8024 96.0566 79.5876 96.2555L78.0609 97.6682C77.8461 97.867 77.8331 98.2023 78.0319 98.4171L79.4446 99.9438C79.6434 100.159 79.9787 100.172 80.1936 99.9728L81.7202 98.5601C81.9351 98.3613 81.948 98.026 81.7492 97.8112Z" fill="#2CC995"/>
<path d="M68.8117 89.3619L67.399 87.8353C67.2002 87.6205 66.8649 87.6074 66.6501 87.8062L65.1234 89.219C64.9086 89.4178 64.8956 89.7531 65.0944 89.9679L66.5071 91.4946C66.7059 91.7094 67.0412 91.7224 67.2561 91.5236L68.7827 90.1109C68.9976 89.9121 69.0105 89.5768 68.8117 89.3619Z" fill="#2CC995"/>
<path d="M71.3586 92.1041L69.9459 90.5775C69.7471 90.3626 69.4118 90.3496 69.197 90.5484L67.6703 91.9611C67.4555 92.1599 67.4424 92.4953 67.6412 92.7101L69.0539 94.2368C69.2527 94.4516 69.5881 94.4646 69.8029 94.2658L71.3296 92.8531C71.5444 92.6543 71.5574 92.319 71.3586 92.1041Z" fill="#2CC995"/>
<path d="M73.9016 94.8629L72.4889 93.3363C72.2901 93.1214 71.9548 93.1084 71.7399 93.3072L70.2133 94.7199C69.9984 94.9187 69.9854 95.2541 70.1842 95.4689L71.5969 96.9956C71.7957 97.2104 72.1311 97.2234 72.3459 97.0246L73.8726 95.6119C74.0874 95.4131 74.1004 95.0778 73.9016 94.8629Z" fill="#2CC995"/>
<path d="M76.4485 97.6051L75.0358 96.0785C74.837 95.8636 74.5016 95.8506 74.2868 96.0494L72.7601 97.4621C72.5453 97.6609 72.5323 97.9963 72.7311 98.2111L74.1438 99.7378C74.3426 99.9526 74.6779 99.9656 74.8928 99.7668L76.4194 98.3541C76.6343 98.1553 76.6473 97.8199 76.4485 97.6051Z" fill="#2CC995"/>
<path d="M78.9914 100.365L77.5787 98.8382C77.3799 98.6234 77.0446 98.6104 76.8298 98.8092L75.3031 100.222C75.0883 100.421 75.0752 100.756 75.2741 100.971L76.6868 102.498C76.8856 102.712 77.2209 102.725 77.4357 102.527L78.9624 101.114C79.1773 100.915 79.1902 100.58 78.9914 100.365Z" fill="#2CC995"/>
<path d="M66.0617 91.8912L64.649 90.3646C64.4502 90.1497 64.1149 90.1368 63.9 90.3356L62.3734 91.7482C62.1586 91.9471 62.1456 92.2824 62.3444 92.4972L63.7571 94.0239C63.9559 94.2387 64.2912 94.2517 64.5061 94.0529L66.0327 92.6402C66.2475 92.4414 66.2605 92.1061 66.0617 91.8912Z" fill="#2CC995"/>
<path d="M68.6047 94.65L67.192 93.1234C66.9932 92.9085 66.6578 92.8956 66.443 93.0944L64.9164 94.507C64.7015 94.7058 64.6885 95.0412 64.8873 95.256L66.3 96.7827C66.4988 96.9975 66.8342 97.0105 67.049 96.8117L68.5756 95.399C68.7905 95.2002 68.8035 94.8649 68.6047 94.65Z" fill="#2CC995"/>
<path d="M71.1594 97.4L69.7467 95.8734C69.5479 95.6585 69.2125 95.6456 68.9977 95.8444L67.4711 97.257C67.2562 97.4558 67.2432 97.7912 67.442 98.006L68.8547 99.5327C69.0535 99.7475 69.3889 99.7605 69.6037 99.5617L71.1303 98.149C71.3452 97.9502 71.3582 97.6149 71.1594 97.4Z" fill="#2CC995"/>
<path d="M73.6945 100.152L72.2819 98.6253C72.083 98.4105 71.7477 98.3975 71.5329 98.5963L70.0062 100.009C69.7914 100.208 69.7784 100.543 69.9772 100.758L71.3899 102.285C71.5887 102.499 71.924 102.512 72.1389 102.314L73.6655 100.901C73.8803 100.702 73.8934 100.367 73.6945 100.152Z" fill="#2CC995"/>
<path d="M76.2414 102.908L74.8287 101.381C74.6299 101.166 74.2946 101.153 74.0797 101.352L72.5531 102.765C72.3383 102.964 72.3252 103.299 72.5241 103.514L73.9368 105.04C74.1356 105.255 74.4709 105.268 74.6857 105.07L76.2124 103.657C76.4272 103.458 76.4402 103.123 76.2414 102.908Z" fill="#2CC995"/>
<defs>
<linearGradient id="paint0_linear_919_341" x1="40.5037" y1="1.01587" x2="40.5037" y2="79.9898" gradientUnits="userSpaceOnUse">
<stop stop-color="#EB8587"/>
<stop offset="0.13" stop-color="#EB4487"/>
</linearGradient>
<linearGradient id="paint1_linear_919_341" x1="101.606" y1="73.3708" x2="101.606" y2="119.547" gradientUnits="userSpaceOnUse">
<stop stop-color="#F4D087"/>
<stop offset="0.13" stop-color="#EBC05B"/>
</linearGradient>
</defs>
</svg>
