<svg viewBox="0 0 1064 337" fill="none" xmlns="http://www.w3.org/2000/svg">
<path d="M1048 0H16C7.16344 0 0 7.16344 0 16V321C0 329.837 7.16345 337 16 337H1048C1056.84 337 1064 329.837 1064 321V16C1064 7.16344 1056.84 0 1048 0Z" fill="#9E2E5B" stroke="#9E2E5B" stroke-width="0.6" stroke-miterlimit="10"/>
<path d="M1049.33 55.5268C1057.62 56.2189 1064 63.1507 1064 71.4714V265.53C1064 273.85 1057.62 280.781 1049.33 281.474L928.872 291.535C924.598 291.892 920.647 293.949 917.904 297.246L889.624 331.234C886.584 334.887 882.078 337 877.325 337H186.672C181.921 337 177.416 334.889 174.376 331.238L146.067 297.241C143.324 293.948 139.375 291.892 135.104 291.535L14.668 281.474C6.37675 280.782 0 273.85 0 265.53V71.4712C0 63.1506 6.37732 56.2188 14.669 55.5266L135.102 45.4735C139.374 45.1169 143.325 43.0607 146.068 39.766L174.376 5.76291C177.416 2.11153 181.921 0 186.672 0H877.324C882.077 0 886.584 2.11337 889.624 5.76749L917.904 39.7616C920.647 43.059 924.599 45.1169 928.873 45.4737L1049.33 55.5268Z" fill="#C43971" stroke="#9E2E5B" stroke-width="0.6" stroke-miterlimit="10"/>
<path d="M1049.33 132.719C1057.62 133.411 1064 140.343 1064 148.663V188.346C1064 196.666 1057.62 203.598 1049.33 204.29L735.999 230.446C731.726 230.802 727.775 232.859 725.032 236.154L645.887 331.236C642.847 334.888 638.341 337 633.589 337H430.384C425.632 337 421.125 334.887 418.085 331.234L338.968 236.156C336.225 232.86 332.273 230.802 328 230.446L14.6691 204.29C6.37734 203.598 0 196.666 0 188.346V148.663C0 140.343 6.37732 133.411 14.669 132.719L327.999 106.563C332.273 106.207 336.225 104.149 338.968 100.853L418.085 5.76629C421.125 2.11289 425.632 0 430.384 0H633.589C638.341 0 642.847 2.11212 645.887 5.76437L725.032 100.854C727.775 104.15 731.726 106.207 735.999 106.563L1049.33 132.719Z" fill="#DD3F7D" stroke="#9E2E5B" stroke-width="0.6" stroke-miterlimit="10"/>
<path d="M435.321 205.835C432.579 202.521 428.619 200.451 424.332 200.091L237.884 184.439C218.336 182.798 218.336 154.192 237.884 152.551L424.333 136.9C428.619 136.54 432.579 134.47 435.321 131.156L519.671 29.2194C526.07 21.4864 537.926 21.4864 544.325 29.2194L628.675 131.156C631.417 134.47 635.378 136.54 639.664 136.9L826.112 152.551C845.661 154.192 845.661 182.798 826.112 184.439L639.664 200.091C635.378 200.451 631.417 202.521 628.675 205.835L544.326 307.779C537.927 315.512 526.07 315.512 519.671 307.779L435.321 205.835Z" fill="#EB4487" stroke="#9E2E5B" stroke-width="0.6" stroke-miterlimit="10"/>
</svg>
