<svg width="593" height="365" viewBox="0 0 593 365" fill="none" xmlns="http://www.w3.org/2000/svg">
<g opacity="0.45">
<mask id="mask0_0_1" style="mask-type:alpha" maskUnits="userSpaceOnUse" x="0" y="0" width="593" height="365">
<rect width="593" height="365" rx="16" fill="#25272C"/>
</mask>
<g mask="url(#mask0_0_1)">
<path opacity="0.5" d="M594.519 224.199L655.234 396.455C655.359 396.808 655.487 397.172 655.612 397.526C660.254 410.943 663.081 424.922 664.021 439.095C651.465 437.317 639.207 433.896 627.566 428.921C612.429 422.413 598.24 413.929 585.369 403.691L583.96 402.597C574.904 395.355 566.339 387.528 558.32 379.165C555.356 376.1 552.492 373.007 549.731 369.885C546.24 365.96 542.905 362.02 539.723 358.067C532.84 349.556 526.59 341.009 520.909 332.66C508.881 314.981 499.288 298.089 491.277 283.977C478.645 261.715 475.757 257.751 473.72 256.834C473.2 256.585 472.638 256.434 472.062 256.391C471.614 256.373 471.166 256.444 470.745 256.601C469.152 257.279 467.747 258.331 466.652 259.668C465.734 260.683 464.882 261.755 464.1 262.876V262.876C459.459 269.472 454.594 280.103 449.735 290.532C442.588 306.021 434.464 323.634 423.297 338.043C421.881 339.867 420.429 341.65 418.916 343.354C410.958 352.346 401.568 359.644 390.107 363.683C381.19 366.738 371.706 367.763 362.356 366.682C335.871 363.93 314.589 347.116 300.5 335.996C287.491 325.733 284.507 323.614 277.699 325.196C277.098 325.334 276.504 325.507 275.922 325.712C271.963 327.107 269.091 330.385 266.23 337.171C263.749 343.534 261.65 350.037 259.942 356.644C258.504 361.846 256.913 367.876 255.09 374.859C251.172 389.851 246.784 406.666 240.741 426.141L239.999 428.612L239.084 431.509L238.9 432.093C236.15 440.707 233.359 449.005 230.527 456.985C229.959 458.658 229.375 460.282 228.772 461.857C226.03 469.504 223.237 476.848 220.393 483.89C219.165 486.974 217.928 489.988 216.681 492.932L214.705 497.616C211.494 505.156 208.258 512.347 204.995 519.19L203.542 522.232C177.381 576.528 150.14 610.114 127.328 630.849L127.151 631.011C122.91 634.848 118.835 638.262 114.927 641.252C109.641 645.321 104.14 649.104 98.4471 652.585C89.1587 641.56 81.4162 629.331 75.4297 616.23C73.4339 611.852 71.613 607.338 69.9669 602.689L13.2973 441.911C27.7508 436.18 41.5019 428.82 54.2803 419.975C56.4271 418.489 58.5303 416.975 60.5895 415.398C64.8244 412.197 68.9019 408.822 72.8221 405.275C82.6342 396.423 91.4651 386.55 99.1626 375.829C100.15 374.464 101.105 373.1 102.046 371.697C104.261 368.449 106.389 365.121 108.43 361.713C114.79 351.013 120.221 339.796 124.664 328.184C125.296 326.569 125.915 324.948 126.507 323.281C129.161 315.953 131.537 308.328 133.634 300.408C136.411 289.884 138.936 277.947 141.622 265.3C143.474 256.538 145.393 247.399 147.538 238.236C150.813 223.622 154.938 209.205 159.893 195.059C162.306 188.367 165.093 181.812 168.238 175.425C178.181 155.459 191.529 139.662 210.493 132.978C213.733 131.836 217.068 130.986 220.458 130.438C249.638 125.621 273.647 144.016 291.173 157.437C304.268 167.471 312.917 174.078 326.186 174.693C330.659 174.941 335.141 174.318 339.382 172.859C345.021 170.758 350.098 167.384 354.212 163.003C365.165 151.84 373.194 134.051 381.546 115.508C391.879 92.5765 402.556 68.9492 420.002 59.0327C421.933 57.9288 423.959 57.0001 426.056 56.258C429.994 54.8728 434.143 54.1846 438.314 54.2245C440.033 54.246 441.749 54.3793 443.451 54.6235C449.825 55.5862 455.976 57.6461 461.63 60.7107C476.27 68.2776 489.023 80.7188 500.235 95.2278C501.662 97.0669 503.043 98.9333 504.431 100.819C519.589 121.726 531.71 146.012 541.809 166.172C556.479 195.482 565.323 212.427 576.191 219.932C578.802 221.82 581.767 223.17 584.914 223.902C588.061 224.635 591.327 224.736 594.519 224.199Z" fill="#1A326B"/>
<path opacity="0.5" d="M608.941 265.116L655.208 396.381C655.333 396.736 655.461 397.1 655.586 397.454C623.303 393.052 592.592 375.845 563.781 345.939C537.111 318.288 519.715 287.623 505.726 262.962C493.804 241.954 485.975 228.612 477.115 221.122C475.679 219.889 474.135 218.785 472.503 217.823C471.48 217.199 470.418 216.642 469.323 216.155C464.466 213.994 460.145 213.635 456.107 215.058C451.584 216.653 447.568 220.381 443.804 225.581C438.078 233.454 432.899 244.708 427.261 256.965C426.155 259.384 425.026 261.821 423.875 264.278C422.302 267.644 420.692 271.033 419.016 274.39C408.586 295.308 395.764 315.122 375.515 322.259C368.26 324.74 360.544 325.568 352.936 324.684C352.73 324.668 352.531 324.639 352.318 324.603C347.779 324.071 343.315 323.047 339.002 321.55C324.23 316.542 312.087 306.934 301.874 298.858C288.065 287.933 278.088 280.051 264.226 283.277C263.232 283.506 262.251 283.789 261.287 284.125C256.928 285.661 253.104 288.419 250.278 292.067C242.76 301.357 238.309 317.711 231.729 342.982L231.066 345.429C231.035 345.562 231.004 345.694 230.963 345.831C226.796 361.819 222.081 379.948 215.408 400.98C213.948 405.612 212.469 410.15 210.972 414.595C209.832 417.948 208.689 421.262 207.544 424.535L206.171 428.439C206.044 428.771 205.919 429.114 205.805 429.453C203.816 434.964 201.815 440.325 199.802 445.535C197.263 452.096 194.701 458.411 192.114 464.479C191.453 466.074 190.77 467.642 190.091 469.188C189.412 470.733 188.749 472.294 188.063 473.787C180.578 490.821 172.117 507.416 162.721 523.489C159.241 529.4 155.768 534.962 152.302 540.175C132.385 570.325 113.146 589.578 97.2615 601.839C90.3528 607.164 83.0485 611.958 75.4119 616.18C73.4134 611.794 71.5897 607.272 69.9408 602.615L27.6879 482.739C35.9538 479.466 44.017 475.704 51.8341 471.473C62.3772 465.763 72.3967 459.139 81.7759 451.678C91.1391 444.226 99.8011 435.939 107.654 426.92C110.011 424.223 112.304 421.448 114.534 418.597C118.769 413.18 122.728 407.556 126.396 401.744C127.277 400.327 128.157 398.91 129.027 397.497C132.384 391.887 135.535 386.095 138.48 380.121C139.151 378.867 139.706 377.631 140.296 376.371C143.356 369.856 146.181 363.087 148.772 356.065C149.384 354.455 149.972 352.809 150.553 351.143C153.073 343.917 155.35 336.434 157.384 328.694C158.972 322.656 160.446 316.327 161.91 309.746C163.182 303.971 164.456 298.029 165.73 291.921C167.643 282.859 169.612 273.577 171.755 264.345C174.621 251.573 178.202 238.968 182.481 226.59C187.065 213.741 192.64 202.093 199.71 192.795C206.536 183.749 214.733 176.953 224.809 173.402C227.435 172.482 230.135 171.789 232.88 171.332C255.707 167.591 273.871 181.529 289.914 193.835C304.107 204.713 317.499 214.988 336.131 215.858C342.096 216.186 348.073 215.354 353.726 213.408C362.208 210.418 369.322 205 375.496 197.988C377.234 196.036 378.884 193.961 380.492 191.8C389.666 179.315 396.788 163.469 403.798 147.907C406.928 141.004 409.932 134.247 413.112 128.024C418.461 117.407 424.144 108.244 430.981 102.326C432.652 100.86 434.475 99.5754 436.418 98.4947V98.4947C437.582 97.8436 438.797 97.2894 440.052 96.8379L440.339 96.7367C447.583 94.1832 455.699 95.2069 464.461 99.7658C474.6 105.045 483.608 113.933 491.809 124.765C493.221 126.624 494.601 128.55 495.962 130.516C506.887 146.298 516.355 165.204 525.183 182.832C540.721 213.875 555.345 243.149 576.264 257.577C586.923 264.931 597.912 267.476 608.941 265.116Z" fill="#2950AB"/>
<path opacity="0.5" d="M616.005 285.157L647.852 375.512C622.523 371.364 594.664 358.203 566.296 328.797C553.625 315.451 542.31 300.89 532.515 285.327C529.903 281.262 527.417 277.176 525.028 273.209C507.91 244.657 495.765 218.597 479.789 204.111C478.341 202.789 476.822 201.546 475.238 200.387C472.683 198.507 469.936 196.9 467.04 195.595C462.974 193.66 458.478 192.785 453.971 193.05C442.684 193.922 434.475 203.779 427.016 217.307C426.522 218.21 426.031 219.124 425.531 220.04C424.012 222.864 422.542 225.858 421.069 228.942L420.333 230.483C406.42 259.826 392.629 296.62 362.455 302.779C357.732 303.72 352.895 303.934 348.114 303.413C342.198 302.769 336.42 301.227 330.98 298.84C302.524 286.576 285.077 255.796 257.428 262.237C251.81 263.453 246.667 266.28 242.636 270.368C240.832 272.206 239.215 274.216 237.808 276.37C232.805 283.892 229.048 294.225 225.272 307.316C224.484 310.037 223.689 312.893 222.888 315.894C221.224 322.063 219.498 328.75 217.613 335.936C213.809 350.397 209.416 366.912 203.534 385.454C201.822 390.855 199.424 398.321 196.309 407.256L195.894 408.508C195.34 410.095 194.801 411.722 194.15 413.411C193.087 416.361 191.963 419.454 190.731 422.652C187.527 431.176 183.855 440.55 179.614 450.269L178.65 452.488L177.57 454.979L174.955 460.82C166.43 479.737 156.625 498.061 145.607 515.665C145.607 515.665 145.607 515.665 145.607 515.665C143.45 519.078 141.235 522.463 138.962 525.822L138.858 525.969C130.943 537.661 122.162 548.752 112.589 559.147V559.147C105.091 567.261 96.9396 574.752 88.2159 581.544C81.6163 586.635 74.6424 591.225 67.3533 595.275L34.7782 502.855C42.4947 499.821 50.041 496.372 57.3836 492.522C70.3665 485.751 82.6002 477.637 93.8813 468.317C102.94 460.833 111.321 452.572 118.926 443.628C124.02 437.663 128.773 431.419 133.163 424.926C135.432 421.599 137.579 418.219 139.603 414.786C140.464 413.377 141.325 411.969 142.132 410.501C146.348 403.108 150.183 395.507 153.621 387.728V387.728L153.864 387.155C156.351 381.585 158.596 375.978 160.597 370.335C161.198 368.694 161.779 367.049 162.34 365.399C164.952 357.847 167.209 350.265 169.188 342.747C171.424 334.288 173.447 325.252 175.449 315.969C177.928 304.506 180.349 292.654 183.006 281.029C184.748 273.441 186.593 266.048 188.549 258.97C189.914 254.067 191.377 249.285 192.953 244.695C202.381 217.054 215.869 195.72 239.028 191.979C256.566 189.113 270.247 197.843 284.166 208.323C290.671 213.204 297.215 218.48 304.237 223.123C314.92 230.2 326.683 235.826 340.991 236.486C361.96 237.451 376.883 227.229 388.528 212.347C405.235 190.995 415.237 160.278 426.789 139.229C428.551 135.98 430.49 132.828 432.596 129.787V129.787C434.049 127.71 435.654 125.74 437.395 123.895C438.94 122.246 440.656 120.764 442.512 119.472C443.927 118.502 445.458 117.713 447.07 117.125C452.466 115.101 458.575 115.546 465.752 119.272C473.828 123.466 481.038 130.663 487.78 139.782C489.168 141.67 490.531 143.643 491.895 145.682C517.728 184.405 537.63 249.424 576.186 275.98C590.472 285.922 603.8 288.033 616.005 285.157Z" fill="#3262D1"/>
</g>
</g>
<path d="M366.781 286.526L361.472 271.339L346.27 266.015L361.472 260.706L366.781 245.519L372.089 260.706L387.292 266.015L372.089 271.339L366.781 286.526Z" fill="white"/>
<path d="M279.818 92.573L273.734 85.8664L264.689 86.4426L271.4 80.3556L270.817 71.3195L276.901 78.0261L285.943 77.442L279.235 83.5369L279.818 92.573Z" fill="white"/>
<path d="M238.468 110.575L235.223 106.998L230.399 107.305L233.979 104.059L233.668 99.2397L236.912 102.817L241.734 102.505L238.157 105.756L238.468 110.575Z" fill="white"/>
<path d="M396.768 211.843C397.958 211.843 398.922 210.878 398.922 209.689C398.922 208.499 397.958 207.534 396.768 207.534C395.578 207.534 394.614 208.499 394.614 209.689C394.614 210.878 395.578 211.843 396.768 211.843Z" fill="white"/>
<path d="M239.511 72.3811C240.607 71.9172 241.119 70.653 240.655 69.5574C240.191 68.4619 238.927 67.9499 237.831 68.4138C236.736 68.8778 236.224 70.142 236.688 71.2376C237.152 72.3331 238.416 72.8451 239.511 72.3811Z" fill="white"/>
<path d="M287.11 166.145C287.11 166.145 267.86 164.929 264.937 187.964C263.398 199.75 256.089 193.611 256.089 193.611C256.089 193.611 261.936 201.858 267.168 196.181C270.399 192.672 275.816 195.657 269.738 201.858C264.091 207.598 257.428 208.983 248.719 207.075C248.719 207.075 270.261 225.385 281.555 205.274C283.051 202.24 285.144 199.539 287.71 197.335C291.28 194.657 294.373 198.75 291.495 201.674C289.913 203.104 288.231 204.42 286.464 205.613C286.464 205.613 306.067 197.535 305.897 184.933C305.728 172.331 287.11 166.145 287.11 166.145Z" fill="#C43971" stroke="#9E2E5B" stroke-width="0.6" stroke-miterlimit="10"/>
<path d="M259.213 210.276C263.972 209.546 268.349 207.244 271.646 203.736C277.524 197.75 274.462 194.104 273.785 193.427C273.3 192.953 272.724 192.583 272.092 192.34C271.46 192.097 270.784 191.985 270.107 192.011C268.724 192.059 267.39 192.538 266.291 193.38C266.967 191.759 267.407 190.049 267.599 188.303C269.984 169.5 284.14 168.792 286.618 168.807C291.219 170.484 295.448 173.046 299.066 176.347C300.293 177.438 301.292 178.761 302.005 180.24C302.718 181.719 303.131 183.324 303.221 184.964C303.298 189.826 299.42 194.196 295.081 197.52C294.825 196.685 294.371 195.925 293.757 195.304C292.726 194.318 291.361 193.758 289.935 193.735C288.508 193.712 287.126 194.228 286.064 195.181C283.188 197.609 280.837 200.599 279.155 203.967C276.601 208.583 273.416 211.106 269.415 211.814C265.937 212.274 262.4 211.741 259.213 210.276V210.276Z" fill="#EB4487"/>
<path d="M322.982 104.012L290.284 109.505C288.155 109.867 286.192 110.884 284.668 112.413L250.816 146.265C250.477 146.615 250.236 147.048 250.118 147.52C250 147.993 250.008 148.488 250.142 148.956C250.276 149.424 250.532 149.849 250.882 150.187C251.233 150.525 251.666 150.764 252.139 150.881L289.361 159.852L322.982 104.012Z" fill="#1E8A66" stroke="#104A37" stroke-width="0.6" stroke-miterlimit="10"/>
<path d="M251.953 149.05C251.837 148.936 251.744 148.799 251.681 148.649C251.618 148.498 251.586 148.337 251.586 148.173C251.586 148.01 251.618 147.848 251.681 147.698C251.744 147.547 251.837 147.411 251.953 147.296L285.805 113.444C287.103 112.143 288.776 111.281 290.59 110.982L319.98 106.028L288.713 158.021L252.615 149.373C252.392 149.326 252.189 149.213 252.03 149.05H251.953Z" fill="#197053"/>
<path d="M365.924 147.172L360.415 179.87C360.058 181.997 359.047 183.961 357.522 185.486L323.67 219.338C323.321 219.677 322.888 219.918 322.415 220.036C321.943 220.154 321.448 220.146 320.98 220.012C320.511 219.878 320.087 219.622 319.749 219.272C319.411 218.921 319.171 218.488 319.054 218.015L310.099 180.793L365.924 147.172Z" fill="#1E8A66" stroke="#104A37" stroke-width="0.6" stroke-miterlimit="10"/>
<path d="M320.871 218.2C320.713 218.037 320.602 217.835 320.548 217.615L311.854 181.486L363.847 150.219L358.908 179.624C358.601 181.438 357.735 183.111 356.431 184.41L322.579 218.261C322.338 218.467 322.029 218.575 321.713 218.564C321.397 218.552 321.096 218.422 320.871 218.2V218.2Z" fill="#197053"/>
<path d="M311.287 185.102L307.04 187.133L302.424 186.656L283.39 167.622L282.913 163.006C283.575 161.56 284.267 160.144 284.944 158.759C314.041 99.4724 352.201 76.1609 378.483 66.9286C396.547 60.6199 408.995 61.0045 408.995 61.0045C408.995 61.0045 409.38 73.4528 403.071 91.5173C393.901 117.845 370.558 156.005 311.287 185.102Z" fill="#2CC995" stroke="#104A37" stroke-width="0.6" stroke-miterlimit="10"/>
<path d="M310.068 182.61C308.899 183.194 307.73 183.764 306.56 184.302L303.683 184.01L286.034 166.361L285.726 163.483L287.419 159.975C300.374 133.586 315.115 114.414 329.81 100.488C317.239 113.737 304.806 131.063 293.712 153.697C293.127 154.867 292.558 156.036 292.019 157.205L292.312 160.083L309.961 177.716L312.838 178.009C314.008 177.455 315.177 176.901 316.346 176.316C338.981 165.207 356.353 152.789 369.555 140.218C355.707 154.928 336.457 169.669 310.068 182.61Z" fill="#27B082"/>
<path d="M403.071 91.5481L378.452 66.9286C396.516 60.6199 408.964 61.0045 408.964 61.0045C408.964 61.0045 409.38 73.4989 403.071 91.5481Z" fill="#1E8A66" stroke="#104A37" stroke-width="0.6" stroke-miterlimit="10"/>
<path d="M381.313 67.6363C389.76 64.7685 398.562 63.0755 407.471 62.6047C406.996 71.513 405.304 80.3143 402.439 88.7629L381.313 67.6363Z" fill="#197053"/>
<path d="M311.287 185.102L307.04 187.133L302.424 186.656L283.39 167.623L282.913 163.006C283.575 161.56 284.267 160.144 284.944 158.76L311.287 185.102Z" fill="#1E8A66" stroke="#104A37" stroke-width="0.6" stroke-miterlimit="10"/>
<path d="M284.929 166.945L284.56 163.298C284.852 162.668 285.16 162.037 285.468 161.406L308.749 184.687L306.856 185.594L303.209 185.21L284.929 166.945Z" fill="#197053"/>
<path d="M327.18 146.094L323.949 142.863C322.627 141.541 320.483 141.541 319.161 142.863L277.294 184.731C275.972 186.053 275.972 188.196 277.294 189.518L280.525 192.749C281.847 194.071 283.991 194.071 285.313 192.749L327.18 150.882C328.502 149.56 328.502 147.416 327.18 146.094Z" fill="#1E8A66" stroke="#104A37" stroke-width="0.6" stroke-miterlimit="10"/>
<path d="M284.212 191.66L326.08 149.792C326.801 149.071 326.801 147.902 326.08 147.181L322.848 143.95C322.127 143.229 320.958 143.229 320.237 143.95L278.369 185.817C277.648 186.538 277.648 187.708 278.369 188.429L281.601 191.66C282.322 192.381 283.491 192.381 284.212 191.66Z" fill="#197053"/>
<path d="M359.894 125.8C368.537 125.8 375.543 118.794 375.543 110.151C375.543 101.509 368.537 94.5024 359.894 94.5024C351.252 94.5024 344.245 101.509 344.245 110.151C344.245 118.794 351.252 125.8 359.894 125.8Z" fill="#27B082" stroke="#104A37" stroke-width="0.6" stroke-miterlimit="10"/>
<path d="M359.894 124.261C367.687 124.261 374.004 117.944 374.004 110.151C374.004 102.359 367.687 96.0413 359.894 96.0413C352.101 96.0413 345.784 102.359 345.784 110.151C345.784 117.944 352.101 124.261 359.894 124.261Z" fill="#1E8A66"/>
<path opacity="0.5" d="M359.694 120.799C365.464 120.799 370.142 116.122 370.142 110.351C370.142 104.581 365.464 99.9036 359.694 99.9036C353.924 99.9036 349.246 104.581 349.246 110.351C349.246 116.122 353.924 120.799 359.694 120.799Z" fill="#5BBDEF"/>
<path d="M359.694 120.799C365.464 120.799 370.142 116.122 370.142 110.351C370.142 104.581 365.464 99.9036 359.694 99.9036C353.924 99.9036 349.246 104.581 349.246 110.351C349.246 116.122 353.924 120.799 359.694 120.799Z" stroke="#FAFAFA" stroke-width="0.6" stroke-miterlimit="10"/>
<path d="M368.017 111.829C368.071 111.895 368.148 111.939 368.233 111.952C368.29 111.963 368.349 111.963 368.407 111.951C368.464 111.939 368.519 111.916 368.568 111.883C368.616 111.85 368.658 111.808 368.69 111.759C368.722 111.71 368.745 111.655 368.756 111.598C368.882 111.026 368.954 110.444 368.971 109.859C368.948 109.186 368.839 108.519 368.648 107.874C368.632 107.818 368.605 107.765 368.568 107.719C368.532 107.674 368.486 107.636 368.434 107.609C368.382 107.581 368.325 107.565 368.267 107.56C368.208 107.556 368.15 107.563 368.094 107.582C367.982 107.617 367.889 107.695 367.834 107.799C367.78 107.903 367.768 108.024 367.802 108.136C367.961 108.697 368.054 109.276 368.079 109.859C368.056 110.376 367.994 110.89 367.894 111.398C367.875 111.474 367.876 111.554 367.898 111.63C367.919 111.705 367.961 111.774 368.017 111.829V111.829Z" fill="#FAFAFA"/>
<path d="M368.233 107.566H368.094C367.982 107.602 367.889 107.68 367.834 107.783C367.78 107.887 367.768 108.008 367.802 108.12C367.961 108.682 368.054 109.26 368.079 109.843C368.055 110.36 367.993 110.874 367.894 111.382C367.88 111.454 367.884 111.528 367.906 111.598C367.927 111.667 367.966 111.731 368.017 111.782C368.071 111.849 368.148 111.893 368.233 111.905H368.325C368.428 111.91 368.529 111.877 368.609 111.811C368.688 111.746 368.741 111.653 368.756 111.551C368.882 110.98 368.954 110.398 368.971 109.813C368.948 109.14 368.839 108.473 368.648 107.828C368.619 107.74 368.564 107.663 368.49 107.608C368.415 107.552 368.325 107.522 368.233 107.52V107.566Z" fill="#FAFAFA"/>
<path d="M367.971 113.182C368.217 113.182 368.417 112.983 368.417 112.736C368.417 112.49 368.217 112.29 367.971 112.29C367.724 112.29 367.524 112.49 367.524 112.736C367.524 112.983 367.724 113.182 367.971 113.182Z" fill="#FAFAFA"/>
<path d="M368.016 112.29C367.957 112.287 367.897 112.296 367.842 112.318C367.786 112.339 367.735 112.371 367.693 112.413C367.649 112.455 367.614 112.505 367.591 112.56C367.567 112.616 367.554 112.676 367.554 112.736C367.554 112.796 367.567 112.856 367.591 112.912C367.614 112.967 367.649 113.018 367.693 113.059C367.735 113.101 367.786 113.133 367.842 113.155C367.897 113.176 367.957 113.185 368.016 113.182C368.073 113.185 368.13 113.175 368.183 113.154C368.236 113.133 368.284 113.1 368.324 113.059C368.368 113.018 368.402 112.967 368.426 112.912C368.45 112.856 368.462 112.796 368.462 112.736C368.462 112.676 368.45 112.616 368.426 112.56C368.402 112.505 368.368 112.455 368.324 112.413C368.284 112.372 368.236 112.339 368.183 112.318C368.13 112.297 368.073 112.287 368.016 112.29V112.29Z" fill="#FAFAFA"/>
<path d="M363.402 118.43C360.878 120.969 356.216 120.43 353.015 117.23C349.815 114.029 349.276 109.367 351.815 106.828C352.365 106.313 353.011 105.912 353.716 105.648C354.421 105.384 355.171 105.262 355.924 105.289L357.739 104.027L359.124 103.073C359.198 103.017 359.286 102.982 359.379 102.972C359.471 102.962 359.565 102.978 359.649 103.018C359.733 103.057 359.805 103.12 359.856 103.197C359.907 103.275 359.936 103.365 359.94 103.458L360.094 105.135L360.201 106.536C360.93 106.962 361.602 107.479 362.202 108.074C362.789 108.658 363.305 109.309 363.74 110.013L365.11 110.121L366.787 110.275C366.88 110.278 366.97 110.307 367.048 110.358C367.126 110.41 367.188 110.481 367.227 110.565C367.267 110.65 367.283 110.743 367.273 110.836C367.263 110.928 367.228 111.016 367.172 111.09L366.218 112.475L365.017 114.198C365.052 114.977 364.926 115.754 364.649 116.482C364.371 117.209 363.946 117.873 363.402 118.43V118.43Z" fill="#EBC05B" stroke="#6B582A" stroke-width="0.6" stroke-linecap="round" stroke-linejoin="round"/>
<path d="M353.77 116.476C350.985 113.691 350.446 109.705 352.57 107.582C353.014 107.153 353.54 106.818 354.116 106.596C354.692 106.374 355.307 106.269 355.924 106.289C356.138 106.29 356.347 106.225 356.524 106.105L358.971 104.397L359.155 106.566C359.173 106.817 359.282 107.053 359.463 107.228L359.663 107.382C360.316 107.777 360.92 108.247 361.464 108.782C361.983 109.299 362.438 109.878 362.818 110.505C362.86 110.578 362.912 110.646 362.971 110.705C363.146 110.886 363.382 110.996 363.633 111.013L365.772 111.198L364.141 113.552C364.013 113.731 363.948 113.948 363.956 114.168C363.997 114.81 363.904 115.454 363.681 116.058C363.458 116.663 363.112 117.214 362.664 117.676C360.54 119.799 356.555 119.245 353.77 116.476Z" fill="#F7CA60"/>
<path d="M356.074 114.152C356.001 114.229 355.912 114.291 355.814 114.333C355.717 114.375 355.611 114.397 355.505 114.397C355.398 114.397 355.293 114.375 355.195 114.333C355.097 114.291 355.009 114.229 354.935 114.152C354.787 114 354.704 113.795 354.704 113.583C354.704 113.37 354.787 113.166 354.935 113.013" stroke="#6B582A" stroke-width="0.6" stroke-linecap="round" stroke-linejoin="round"/>
<path d="M357.245 115.306C357.092 115.459 356.884 115.545 356.668 115.545C356.451 115.545 356.244 115.459 356.091 115.306C355.938 115.153 355.852 114.945 355.852 114.729C355.852 114.512 355.938 114.305 356.091 114.152" stroke="#6B582A" stroke-width="0.6" stroke-linecap="round" stroke-linejoin="round"/>
<path d="M60 288.869C59.9995 290.199 60.0929 291.528 60.2795 292.845C60.5737 294.882 61.0963 296.878 61.8374 298.798C64.3107 305.251 69.1033 310.547 75.2752 313.646C81.4472 316.745 88.5531 317.425 95.1995 315.551C101.846 313.677 107.553 309.385 111.202 303.517C114.851 297.649 116.178 290.627 114.923 283.83C113.668 277.033 109.922 270.951 104.419 266.776C98.916 262.601 92.0533 260.634 85.1769 261.262C78.3004 261.89 71.9064 265.067 67.2487 270.17C62.591 275.272 60.0058 281.933 60 288.845V288.869Z" fill="url(#paint0_linear_0_1)" stroke="#1A326B" stroke-width="0.723829" stroke-miterlimit="10"/>
<path d="M61.2781 293.744C61.5597 295.622 62.0627 297.46 62.7766 299.22C66.6179 308.744 76.2986 315.476 87.6382 315.476C94.0042 315.504 100.18 313.304 105.097 309.256C108.122 306.765 110.533 303.61 112.143 300.036C109.17 302.173 105.436 304.958 100.5 304.702C92.5915 304.286 91.3547 296.571 81.9892 293.161C75.6207 290.839 67.3969 291.202 61.2781 293.744Z" fill="#3262D1"/>
<path d="M62.7776 299.22C66.6189 308.744 76.2996 315.477 87.6393 315.477C94.0053 315.504 100.181 313.304 105.098 309.256C102.719 310.721 99.9601 311.929 96.6301 311.756C88.7215 311.34 87.4906 303.625 78.1192 300.214C73.481 298.524 67.8558 298.256 62.7776 299.22Z" fill="#2950AB"/>
<path d="M134.17 254.135L139.405 264.017L134.163 266.801C133.586 267.107 132.911 267.172 132.287 266.98C131.662 266.789 131.14 266.357 130.834 265.78L125.6 255.898L130.841 253.114C131.418 252.808 132.093 252.743 132.717 252.935C133.342 253.126 133.864 253.558 134.17 254.135Z" fill="#27B082" stroke="#104A37" stroke-width="0.722126" stroke-miterlimit="10"/>
<path d="M145.602 278.18L150.817 288.102C151.121 288.682 151.183 289.359 150.989 289.985C150.795 290.611 150.36 291.134 149.781 291.439L144.517 294.212L139.306 284.294C139.001 283.715 138.939 283.038 139.134 282.412C139.328 281.786 139.762 281.263 140.342 280.958L145.605 278.185L145.602 278.18Z" fill="#27B082" stroke="#104A37" stroke-width="0.723829" stroke-miterlimit="10"/>
<path d="M139.704 267.527L144.249 276.175L138.348 279.283C137.974 279.481 137.537 279.521 137.134 279.395C136.73 279.27 136.393 278.989 136.196 278.615L131.654 269.972L137.554 266.864C137.928 266.667 138.363 266.627 138.766 266.751C139.169 266.875 139.506 267.154 139.704 267.527Z" fill="#27B082" stroke="#104A37" stroke-width="0.723829" stroke-linejoin="bevel"/>
<path d="M145.428 271.648L143.364 267.719L140.574 269.189L142.639 273.118L145.428 271.648Z" fill="#27B082" stroke="#104A37" stroke-width="0.723829" stroke-miterlimit="10"/>
<path d="M145.566 270.067L144.741 268.497L143.983 268.896L144.808 270.466L145.566 270.067Z" fill="#1E8A66" stroke="#104A37" stroke-width="0.723829" stroke-miterlimit="10"/>
<path d="M148.586 267.302L148.437 267.018L144.931 268.864L145.081 269.149L148.586 267.302Z" fill="#2FD69F" stroke="#104A37" stroke-width="0.723829" stroke-miterlimit="10"/>
<path d="M150.916 266.782L150.734 266.434L145.191 269.354L145.374 269.701L150.916 266.782Z" fill="#2FD69F" stroke="#104A37" stroke-width="0.723829" stroke-miterlimit="10"/>
<path d="M135.731 266.788L135.03 265.455L133.509 266.257L134.209 267.59L135.731 266.788Z" fill="#1E8A66" stroke="#104A37" stroke-width="0.723829" stroke-miterlimit="10"/>
<path d="M136.652 267.331L136.226 266.52L133.715 267.842L134.141 268.654L136.652 267.331Z" fill="#27B082" stroke="#104A37" stroke-width="0.723829" stroke-miterlimit="10"/>
<path d="M140.329 279.253L141.029 280.585L142.551 279.784L141.85 278.451L140.329 279.253Z" fill="#1E8A66" stroke="#104A37" stroke-width="0.723829" stroke-miterlimit="10"/>
<path d="M139.41 278.703L139.836 279.514L142.347 278.191L141.921 277.38L139.41 278.703Z" fill="#27B082" stroke="#104A37" stroke-width="0.723829" stroke-miterlimit="10"/>
<path d="M132.812 273.043L134.799 276.824C134.847 276.917 134.857 277.024 134.826 277.124C134.795 277.223 134.726 277.307 134.634 277.355L131.813 278.841L129.826 275.06C129.777 274.968 129.767 274.86 129.798 274.76C129.829 274.661 129.898 274.578 129.99 274.529L132.812 273.043Z" fill="#27B082" stroke="#104A37" stroke-width="0.723829" stroke-miterlimit="10"/>
<path d="M131.294 277.844L130.173 275.711L129.73 275.944L130.852 278.077L131.294 277.844Z" fill="#1E8A66" stroke="#104A37" stroke-width="0.723829" stroke-miterlimit="10"/>
<path d="M138.597 276.078L137.715 276.544L134.947 271.283L135.835 270.819L136.654 272.376L137.238 270.499L138.194 270.793L137.608 272.676L139.337 271.765L139.801 272.648L138.073 273.558L139.954 274.144L139.655 275.099L137.779 274.515L138.597 276.078Z" fill="#27B082" stroke="#104A37" stroke-width="0.723829" stroke-miterlimit="10"/>
<path d="M133.332 254.756L132.756 253.66C132.675 253.506 132.484 253.446 132.33 253.528L131.235 254.105C131.081 254.186 131.022 254.377 131.103 254.531L131.678 255.627C131.759 255.781 131.95 255.84 132.104 255.759L133.199 255.182C133.353 255.101 133.413 254.91 133.332 254.756Z" fill="#2CC995"/>
<path d="M134.369 256.73L133.793 255.634C133.712 255.48 133.521 255.421 133.367 255.502L132.272 256.079C132.118 256.16 132.059 256.351 132.14 256.505L132.715 257.601C132.796 257.755 132.987 257.814 133.141 257.733L134.236 257.156C134.39 257.075 134.45 256.884 134.369 256.73Z" fill="#2CC995"/>
<path d="M135.408 258.703L134.832 257.608C134.751 257.453 134.561 257.394 134.406 257.475L133.311 258.052C133.157 258.133 133.098 258.324 133.179 258.478L133.755 259.574C133.836 259.728 134.027 259.788 134.181 259.706L135.276 259.13C135.43 259.048 135.489 258.857 135.408 258.703Z" fill="#2CC995"/>
<path d="M136.446 260.672L135.871 259.576C135.79 259.422 135.599 259.362 135.445 259.444L134.35 260.021C134.196 260.102 134.136 260.293 134.217 260.447L134.793 261.542C134.874 261.697 135.065 261.756 135.219 261.675L136.314 261.098C136.468 261.017 136.527 260.826 136.446 260.672Z" fill="#2CC995"/>
<path d="M137.48 262.651L136.904 261.555C136.823 261.401 136.632 261.341 136.478 261.423L135.383 262C135.229 262.081 135.17 262.272 135.251 262.426L135.827 263.521C135.908 263.676 136.098 263.735 136.252 263.654L137.348 263.077C137.502 262.996 137.561 262.805 137.48 262.651Z" fill="#2CC995"/>
<path d="M131.36 255.799L130.784 254.704C130.703 254.55 130.513 254.49 130.359 254.572L129.263 255.148C129.109 255.23 129.05 255.42 129.131 255.575L129.707 256.67C129.788 256.825 129.979 256.884 130.133 256.803L131.228 256.226C131.382 256.145 131.441 255.954 131.36 255.799Z" fill="#2CC995"/>
<path d="M132.394 257.768L131.818 256.672C131.737 256.518 131.546 256.459 131.392 256.54L130.297 257.117C130.143 257.198 130.084 257.389 130.165 257.543L130.74 258.639C130.822 258.793 131.012 258.852 131.166 258.771L132.261 258.194C132.415 258.113 132.475 257.922 132.394 257.768Z" fill="#2CC995"/>
<path d="M133.432 259.747L132.856 258.651C132.775 258.497 132.584 258.438 132.43 258.519L131.335 259.096C131.181 259.177 131.122 259.368 131.203 259.522L131.778 260.618C131.859 260.772 132.05 260.831 132.204 260.75L133.299 260.173C133.453 260.092 133.513 259.901 133.432 259.747Z" fill="#2CC995"/>
<path d="M134.466 261.715L133.89 260.619C133.809 260.465 133.618 260.405 133.464 260.487L132.369 261.064C132.215 261.145 132.156 261.336 132.237 261.49L132.813 262.585C132.894 262.74 133.084 262.799 133.238 262.718L134.333 262.141C134.488 262.06 134.547 261.869 134.466 261.715Z" fill="#2CC995"/>
<path d="M135.51 263.69L134.934 262.594C134.853 262.44 134.662 262.381 134.508 262.462L133.413 263.039C133.259 263.12 133.2 263.311 133.281 263.465L133.856 264.561C133.938 264.715 134.128 264.774 134.282 264.693L135.377 264.116C135.531 264.035 135.591 263.844 135.51 263.69Z" fill="#2CC995"/>
<path d="M129.386 256.834L128.811 255.738C128.73 255.584 128.539 255.525 128.385 255.606L127.29 256.183C127.136 256.264 127.076 256.455 127.157 256.609L127.733 257.705C127.814 257.859 128.005 257.918 128.159 257.837L129.254 257.26C129.408 257.179 129.467 256.988 129.386 256.834Z" fill="#2CC995"/>
<path d="M130.426 258.809L129.85 257.713C129.769 257.559 129.578 257.499 129.424 257.581L128.329 258.157C128.175 258.239 128.116 258.429 128.197 258.584L128.772 259.679C128.853 259.834 129.044 259.893 129.198 259.812L130.293 259.235C130.447 259.154 130.507 258.963 130.426 258.809Z" fill="#2CC995"/>
<path d="M131.461 260.781L130.885 259.685C130.804 259.531 130.613 259.472 130.459 259.553L129.364 260.13C129.21 260.211 129.151 260.402 129.232 260.556L129.808 261.652C129.889 261.806 130.079 261.865 130.233 261.784L131.328 261.207C131.482 261.126 131.542 260.935 131.461 260.781Z" fill="#2CC995"/>
<path d="M132.5 262.756L131.924 261.66C131.843 261.506 131.652 261.446 131.498 261.528L130.403 262.105C130.249 262.186 130.19 262.377 130.271 262.531L130.847 263.626C130.928 263.781 131.118 263.84 131.272 263.759L132.367 263.182C132.522 263.101 132.581 262.91 132.5 262.756Z" fill="#2CC995"/>
<path d="M133.541 264.731L132.966 263.635C132.885 263.481 132.694 263.422 132.54 263.503L131.445 264.08C131.291 264.161 131.231 264.352 131.312 264.506L131.888 265.602C131.969 265.756 132.16 265.815 132.314 265.734L133.409 265.157C133.563 265.076 133.622 264.885 133.541 264.731Z" fill="#2CC995"/>
<path d="M146.01 281.253L145.434 280.158C145.353 280.003 145.162 279.944 145.008 280.025L143.913 280.602C143.759 280.684 143.7 280.874 143.781 281.029L144.357 282.124C144.438 282.278 144.628 282.338 144.782 282.256L145.877 281.68C146.032 281.598 146.091 281.408 146.01 281.253Z" fill="#2CC995"/>
<path d="M147.045 283.226L146.469 282.13C146.388 281.976 146.197 281.916 146.043 281.998L144.948 282.575C144.794 282.656 144.735 282.846 144.816 283.001L145.392 284.096C145.473 284.251 145.663 284.31 145.817 284.229L146.912 283.652C147.067 283.571 147.126 283.38 147.045 283.226Z" fill="#2CC995"/>
<path d="M148.086 285.201L147.51 284.105C147.429 283.951 147.239 283.892 147.085 283.973L145.989 284.55C145.835 284.631 145.776 284.822 145.857 284.976L146.433 286.072C146.514 286.226 146.705 286.285 146.859 286.204L147.954 285.627C148.108 285.546 148.167 285.355 148.086 285.201Z" fill="#2CC995"/>
<path d="M149.121 287.174L148.545 286.078C148.464 285.924 148.274 285.865 148.12 285.946L147.025 286.523C146.87 286.604 146.811 286.795 146.892 286.949L147.468 288.045C147.549 288.199 147.74 288.258 147.894 288.177L148.989 287.6C149.143 287.519 149.202 287.328 149.121 287.174Z" fill="#2CC995"/>
<path d="M150.158 289.148L149.582 288.053C149.501 287.898 149.31 287.839 149.156 287.92L148.061 288.497C147.907 288.579 147.848 288.769 147.929 288.924L148.505 290.019C148.586 290.173 148.776 290.233 148.931 290.151L150.026 289.575C150.18 289.493 150.239 289.303 150.158 289.148Z" fill="#2CC995"/>
<path d="M144.039 282.287L143.463 281.192C143.382 281.037 143.191 280.978 143.037 281.059L141.942 281.636C141.788 281.717 141.729 281.908 141.81 282.063L142.385 283.158C142.466 283.312 142.657 283.372 142.811 283.29L143.906 282.714C144.06 282.632 144.12 282.442 144.039 282.287Z" fill="#2CC995"/>
<path d="M145.075 284.262L144.5 283.166C144.419 283.012 144.228 282.953 144.074 283.034L142.979 283.611C142.825 283.692 142.765 283.883 142.846 284.037L143.422 285.133C143.503 285.287 143.694 285.346 143.848 285.265L144.943 284.688C145.097 284.607 145.156 284.416 145.075 284.262Z" fill="#2CC995"/>
<path d="M146.113 286.235L145.537 285.139C145.456 284.985 145.265 284.926 145.111 285.007L144.016 285.584C143.862 285.665 143.803 285.856 143.884 286.01L144.459 287.106C144.541 287.26 144.731 287.319 144.885 287.238L145.98 286.661C146.134 286.58 146.194 286.389 146.113 286.235Z" fill="#2CC995"/>
<path d="M147.152 288.21L146.576 287.115C146.495 286.96 146.304 286.901 146.15 286.982L145.055 287.559C144.901 287.641 144.842 287.831 144.923 287.986L145.499 289.081C145.58 289.235 145.77 289.295 145.924 289.213L147.019 288.637C147.174 288.555 147.233 288.365 147.152 288.21Z" fill="#2CC995"/>
<path d="M148.187 290.183L147.611 289.087C147.53 288.933 147.339 288.874 147.185 288.955L146.09 289.532C145.936 289.613 145.877 289.804 145.958 289.958L146.534 291.054C146.615 291.208 146.805 291.267 146.959 291.186L148.054 290.609C148.209 290.528 148.268 290.337 148.187 290.183Z" fill="#2CC995"/>
<path d="M142.065 283.331L141.489 282.236C141.408 282.082 141.217 282.022 141.063 282.104L139.968 282.68C139.814 282.762 139.755 282.952 139.836 283.107L140.411 284.202C140.492 284.357 140.683 284.416 140.837 284.335L141.932 283.758C142.086 283.677 142.146 283.486 142.065 283.331Z" fill="#2CC995"/>
<path d="M143.099 285.299L142.523 284.204C142.442 284.049 142.251 283.99 142.097 284.071L141.002 284.648C140.848 284.729 140.789 284.92 140.87 285.074L141.445 286.17C141.526 286.324 141.717 286.384 141.871 286.302L142.966 285.725C143.12 285.644 143.18 285.453 143.099 285.299Z" fill="#2CC995"/>
<path d="M144.139 287.279L143.563 286.183C143.482 286.029 143.291 285.97 143.137 286.051L142.042 286.628C141.888 286.709 141.829 286.9 141.91 287.054L142.486 288.15C142.567 288.304 142.757 288.363 142.911 288.282L144.006 287.705C144.161 287.624 144.22 287.433 144.139 287.279Z" fill="#2CC995"/>
<path d="M145.173 289.247L144.597 288.151C144.516 287.997 144.325 287.937 144.171 288.019L143.076 288.596C142.922 288.677 142.863 288.868 142.944 289.022L143.52 290.117C143.601 290.272 143.791 290.331 143.945 290.25L145.041 289.673C145.195 289.592 145.254 289.401 145.173 289.247Z" fill="#2CC995"/>
<path d="M146.213 291.226L145.637 290.13C145.556 289.976 145.366 289.917 145.211 289.998L144.116 290.575C143.962 290.656 143.903 290.847 143.984 291.001L144.56 292.097C144.641 292.251 144.832 292.31 144.986 292.229L146.081 291.652C146.235 291.571 146.294 291.38 146.213 291.226Z" fill="#2CC995"/>
<path d="M162.676 308.822L161.397 306.482L159.055 305.203L161.397 303.923L162.676 301.578L163.954 303.923L166.291 305.203L163.954 306.482L162.676 308.822Z" fill="white"/>
<path d="M135.03 238.506L133.752 236.161L131.409 234.881L133.752 233.602L135.03 231.256L136.309 233.602L138.646 234.881L136.309 236.161L135.03 238.506Z" fill="white"/>
<path d="M166.253 250.191L163.821 240.941L154.58 238.507L163.821 236.066L166.253 226.816L168.691 236.066L177.932 238.507L168.691 240.941L166.253 250.191Z" fill="white"/>
<path d="M179.59 275.299C180.05 275.299 180.423 274.926 180.423 274.465C180.423 274.005 180.05 273.632 179.59 273.632C179.13 273.632 178.758 274.005 178.758 274.465C178.758 274.926 179.13 275.299 179.59 275.299Z" fill="white"/>
<path d="M101.937 217.667C102.397 217.667 102.769 217.294 102.769 216.833C102.769 216.373 102.397 216 101.937 216C101.477 216 101.104 216.373 101.104 216.833C101.104 217.294 101.477 217.667 101.937 217.667Z" fill="white"/>
<defs>
<linearGradient id="paint0_linear_0_1" x1="87.6743" y1="261.172" x2="87.6743" y2="316.572" gradientUnits="userSpaceOnUse">
<stop stop-color="#3FA9F5"/>
<stop offset="0.33" stop-color="#386DEB"/>
</linearGradient>
</defs>
</svg>
